<?xml version="1.0" encoding="UTF-8"?>
<svg id="Layer_1" xmlns="http://www.w3.org/2000/svg" version="1.1" viewBox="0 0 500 500">
  <!-- Generator: Adobe Illustrator 30.1.0, SVG Export Plug-In . SVG Version: 2.1.1 Build 136)  -->
  <defs>
    <style>
      .st0 {
        fill: #daaa97;
      }
    </style>
  </defs>
  <path class="st0" d="M324.46,323.7l-1.21-18.95-14.28-.41c-3.48-.1-9.07-3.16-7.77-7.42,3.97-13.02,7.97-25.42,11.08-38.74.71-3.04,1.29-8.27.1-11.1l-8.42-19.92c-5.7,6.1-2.13,8.13-11.01,14.34l-16.51,11.54c-4.14,2.9-8.22,5.15-13.74,3.48-3.93-1.19-7.19-4.91-7.75-8.55-.71-4.57.52-9.37,4.44-12.21l19.25-13.93,16.76-31.7c5.21-9.86,15.83-14.49,26.77-12.12,8.15,1.76,15.84,6.68,19.26,14.72l14.89,34.96c6.31,14.81,10.43,37.33,12.49,53.53l1.67,13.17c.46,3.65.54,9.67-4.62,9.89l-14.23.61-.57,19.39-.72,15.22-.51,24.04c-.16,7.43-5.07,13.06-12.15,12.96-7.64-.1-12.02-6.53-12.02-13.73,0-4.94-.5-9.67-.61-14.55l-.58-24.54Z"/>
  <path class="st0" d="M205.93,369.18c-.01,4.54-5.15,7.13-8.03,7.4-3.44.32-8.79-2.6-8.82-6.76l-.21-35.95c0-1.13-1.48-2.72-2.55-2.7l-8.09.13c-.93.01-1.97,2.35-1.97,3.23l.03,33.36c0,4.44-3.1,7.81-7.2,8.61-3.12.61-9.39-1.64-9.4-6.01l-.18-73.02-29.06-34.17c-2.77-3.26.12-9.38,2.73-11.04,3.77-2.39,8.55-1.64,11.62,1.91l20.05,23.16c1.75,2.02,4.66,3.94,7.42,3.94h20.45c4.21,0,6.69-2.92,9.12-5.69,6.91-7.87,13.35-15.8,20.52-23.15,3.15-3.23,9.15-1.21,11.16,1.1,3.06,3.54,2.8,8.18-.16,11.63l-27.18,31.69-.24,72.35Z"/>
  <path class="st0" d="M190.09,195.63c-5.37,1.19-9.35,1.27-14.34.22-19.68-4.15-32.82-22.25-29.07-42.79,3.18-17.38,18.19-29.41,35.24-29.67,17.44-.27,32.94,11.84,36.3,29.22,3.84,19.84-8.35,38.65-28.13,43.02ZM200.63,164.31c2.65-.34,3.27-4.32,2.91-5.84-.43-1.8-2.55-3.48-4.89-3.54l-11.04-.25c-.21-5.57.31-10.86-.54-15.99-.33-1.99-3.68-3.55-5.17-3.31s-4.31,2.13-4.32,4.08l-.09,20.62c0,2.03,1.93,4.63,4,4.63,6.54,0,12.82.41,19.15-.41Z"/>
  <path class="st0" d="M286.94,176.2c-13.19-2.66-21.67-13.85-21.56-26.44s8.98-23.41,21.79-25.87c16.42-3.16,31.21,9.6,31.39,25.91s-14.74,29.8-31.63,26.4Z"/>
  <path class="st0" d="M202.55,258.02c-2.56,9.63-11.16,15.55-20.71,15.34-9.01-.19-17.65-6.74-19.58-16.02-1.39-6.68.09-13.08,4.16-18.16s10.42-7.58,17.15-7.27c13.05.6,22.47,13.01,18.99,26.11Z"/>
  <path class="st0" d="M255.73,376.54l-23.66-.06c-2.12,0-4.54-3.14-4.54-5.21l.08-22.1c0-2.07,3.38-4.1,5.08-4.6h20.88c2.35.01,5.84,1.83,5.84,4.67l-.02,23.24c0,1.19-2.56,3.15-3.67,4.06Z"/>
  <path class="st0" d="M273.89,337.86l-19.9.03c-1.91,0-5.88-1.18-6.42-3.34v-25.07c0-1.59,3.18-3.57,4.7-3.57l21.81.03c2.68,0,4.77,2.78,4.77,5.26l-.04,21.41c0,2.41-2.6,4.61-4.92,5.25Z"/>
  <path class="st0" d="M292.13,376.57l-20.77-.09c-2.55-.01-4.64-2.81-4.63-5.25l.04-21.33c0-2.83,2.23-4.63,4.8-5.3l20.64-.02c2.35,0,5.86,1.86,5.87,4.59l.11,23.38c-.86,2.7-3.29,4.04-6.05,4.02Z"/>
</svg>