<?xml version="1.0" encoding="UTF-8"?>
<svg id="Layer_1" xmlns="http://www.w3.org/2000/svg" version="1.1" viewBox="0 0 500 500">
  <!-- Generator: Adobe Illustrator 30.1.0, SVG Export Plug-In . SVG Version: 2.1.1 Build 136)  -->
  <defs>
    <style>
      .st0 {
        fill: #daaa97;
      }
    </style>
  </defs>
  <path class="st0" d="M319.85,348.97l-140.06-.18c-11.35-.01-20.35-10.13-21.21-20.97v-85.39s91.4-57.02,91.4-57.02l91.42,57.03v85.05c-.7,11.54-9.9,20.71-21.56,21.47ZM265.26,295.76c2-.17,3.72.03,5.58,0l7.51-.09c2.29-.03,4.46.11,6.72.05l3.56-.1c2.35.23,4.56.26,7.05-.02v-30.32s-30.42,0-30.42,0v-30.43s-30.52-.02-30.52-.02v30.43s-30.52.03-30.52.03v30.43c2.54-.11,4.77-.12,7.17.06l7.79-.11c2.44-.03,4.77.2,7.2-.06l8.35.22.03,30.3h30.5s0-30.39,0-30.39Z"/>
  <path class="st0" d="M250,168.09l-87.57,58.19c-3.51,2.34-8.36.74-10.42-2.55s-1.37-8.11,2.14-10.45l90.8-60.46c2.49-1.66,6.03-2.64,8.74-.84l92.31,61.43c3.48,2.31,4.01,7.1,1.97,10.31s-6.86,4.94-10.42,2.57l-87.55-58.2Z"/>
</svg>