<?xml version="1.0" encoding="UTF-8"?>
<svg id="Layer_1" xmlns="http://www.w3.org/2000/svg" version="1.1" viewBox="0 0 500 500">
  <!-- Generator: Adobe Illustrator 30.1.0, SVG Export Plug-In . SVG Version: 2.1.1 Build 136)  -->
  <defs>
    <style>
      .st0 {
        fill: #daaa97;
      }
    </style>
  </defs>
  <path class="st0" d="M363.29,356.94h-226.33c-2.64,0-4.11-1.76-4.31-3.84s1.78-4.14,4.12-4.17l11.34-.16v-101.77c.13-2.09,1.78-4.13,3.9-4.13l27.79-.04.02-65.33c-.09-2.67,1.84-4.57,4.46-4.57l31.9-.05c2.29-17.36,16.72-29.65,33.52-29.82,17.09-.18,31.77,12.28,34.1,29.85h31.32c2.43.02,4.37,1.03,5.04,3.53l.02,66.53,27.17-.02c2.47,0,4.37,1.36,4.52,4.07v101.79s11.37.1,11.37.1c2.08.02,4.06,1.83,4.1,3.86.03,1.66-1.01,4.16-4.06,4.16ZM248.1,151.34c-14.79,1.1-25.14,14.01-23.82,28.14,1.3,13.94,13.57,24.32,27.55,23.34s24.99-13.29,23.97-27.62c-.99-13.8-12.97-24.97-27.7-23.87ZM254.18,242.92l37.17.02.04-43.43c0-2.76,1.9-4.64,4.4-4.49,2.27.14,3.81,1.93,3.81,4.49v43.33s12.36.03,12.36.03v-61.68s-28.1.04-28.1.04c-2.43,17.62-17.09,30.04-34.15,29.88-16.77-.15-31.21-12.49-33.52-29.92l-28.15-.04v61.68s12.36.01,12.36.01v-43.34c.01-2.8,1.8-4.61,4.37-4.47,2.18.12,3.84,1.94,3.84,4.48v43.33s37.28.01,37.28.01l.14-14.92c-.3-2.68,1.9-4.55,4.25-4.37,2.11.16,3.79,1.95,3.82,4.34l.08,15.04ZM326.71,263.4c3.11,0,4.57,2.01,4.57,4.39v81.06s12.38-.03,12.38-.03v-97.76s-187.29,0-187.29,0l-.04,97.76,12.38.03v-81.06c0-2.56,1.83-4.39,4.54-4.39h153.45ZM280.52,288.48c2.23,0,3.92,2.1,3.92,3.93l.02,56.48,38.69-.04.02-14.29-13.82-.14c-2.55-.03-3.79-2.83-3.3-5.03.39-1.76,2.33-3.07,4.53-3.08l12.63-.08-.06-12.12-13.25-.07c-2.05-.01-3.84-2.04-3.96-3.65-.16-2.21,1.18-4.12,3.39-4.45l13.87-.15.02-34.15-146.4-.02-.03,34.17,14.49.18c2.04.75,3.11,2.9,2.7,5.03-.25,1.32-2.15,3.03-3.85,3.05l-13.3.11v12.12s13.27.03,13.27.03c2.08,0,3.82,2.05,3.96,3.71.17,1.97-1.18,4.37-3.39,4.4l-13.84.18.11,14.29,38.61-.02.02-55.83c0-2.49,1.5-4.56,4.19-4.56h60.75ZM245.87,348.89l.03-52.18h-22.14s.04,52.15.04,52.15l22.07.03ZM276.22,348.88l.03-52.17h-22.13s.03,52.17.03,52.17h22.08Z"/>
  <path class="st0" d="M254.12,188.19c-.03,2.45-1.65,4.27-3.82,4.4-2.53.15-4.4-1.66-4.41-4.43l-.02-6.87-7.32-.16c-2.1-.04-3.88-1.62-4.17-3.66-.26-1.8,1.47-4.37,3.65-4.43l7.78-.2.09-6.87c.03-2.48,1.62-4.23,3.89-4.4,2.45-.18,4.3,1.68,4.32,4.43l.05,6.82,7.23.16c2.32.05,4.26,1.95,4.26,4.11,0,2.13-1.91,4.07-4.22,4.09l-7.22.06-.08,6.97Z"/>
</svg>