<?xml version="1.0" encoding="UTF-8"?>
<svg id="Layer_1" xmlns="http://www.w3.org/2000/svg" version="1.1" viewBox="0 0 500 500">
  <!-- Generator: Adobe Illustrator 30.1.0, SVG Export Plug-In . SVG Version: 2.1.1 Build 136)  -->
  <defs>
    <style>
      .st0 {
        fill: #daaa97;
      }
    </style>
  </defs>
  <path class="st0" d="M272,349.66c-5.27,6.21-12.38,9.2-20.29,9.58l-3.51-.02c-7.78-.04-15.17-3.42-20.2-9.56h-84.91c-2.83-.42-4.89-2.35-4.89-5.2v-18.34s.06-7.29.06-7.29l.06-15.64v-13.52s-.07-9.38-.07-9.38l.07-14.94v-13.53s-.06-14.94-.06-14.94l.03-13.46c0-1.43.63-3.18,1.77-4.1,2.19-1.76,4.53-3.07,7.06-4.39,16.23-8.46,37.22-11.73,55.4-10.86,16.4.9,33.21,4.69,47.47,13.1,30-17.78,78.22-17.64,107.68.52,1.62,1,3.55,2.32,3.76,4.29.54,5.01.19,9.85.21,14.89l.08,14.6v13.88s-.06,14.94-.06,14.94v13.53s.06,14.59.06,14.59l.02,14.59v21.75c0,2.79-2.24,4.5-4.92,4.91h-84.81ZM202.04,311.04c15.02.51,29.32,3.79,43.18,10.54l.02-96.16c-21.09-12.34-49.17-14.31-72.47-9.52-8.82,2.06-17.19,4.9-24.92,9.49l.02,96.11c14.21-6.83,28.59-10.05,43.59-10.48,3.59-.27,6.79-.27,10.58,0ZM308.66,310.97l6.15.41c12.86,1.08,25,4.27,37.27,10.15v-96.17c-14.82-8.62-32.96-12.06-49.66-11.8-15.78-.07-33.94,3.65-47.71,11.91v96.17c12-5.92,24.34-9.5,37.41-10.26l6.64-.39c3.25-.19,6.5-.15,9.9-.02ZM352.04,339.96l-.04-7.38c-5.22-3.31-10.37-5.44-16.13-7.35-19.09-6.34-45.21-6.41-64.33-.17-6.3,2.06-12.37,4.48-17.68,8.34-2.63,1.91-5.11,1.9-7.73,0-12.24-8.91-33.11-12.96-48.22-12.95h-2.87c-15.65,0-33.86,3.74-47.17,12.22l.11,7.32h82.51c5.01,0,4.45,6.98,14.34,9.03,4.38.91,9.02.66,13.18-.9,7.3-2.74,6.62-8.12,11.45-8.12l82.56-.02Z"/>
  <path class="st0" d="M364.5,208.2l-114.49-57.21-114.48,57.17c-2.61,1.3-5.38-.01-6.49-2.3s-.25-5.14,2.34-6.44l116.1-58.03c1.49-.74,3.2-.89,4.76-.11l116.57,58.25c2.48,1.24,3.19,4.26,2.11,6.39s-3.77,3.62-6.43,2.29Z"/>
</svg>