<?xml version="1.0" encoding="UTF-8"?>
<svg id="Layer_1" data-name="Layer 1" xmlns="http://www.w3.org/2000/svg" viewBox="0 0 96 96">
  <defs>
    <style>
      .cls-1 {
        fill: #e2a793;
      }
    </style>
  </defs>
  <path class="cls-1" d="M53.99,25.12h-6.55s-.39-4.93-.39-4.93l-2.88-.79c.53,9.64,1.5,22.06,10.87,27.15,5.56,3.02,11.79,2.82,16.94,6.76,7.26,5.55,9.59,14.48,9.84,23.28l9.76,1.68-.8,2.08c-11.15-.63-21.87-5.75-28.21-15.09-4.62,3.56-10,6.81-15.39,9.07-2.4,1-15.85,5.59-17.35,5.37-.86-.13-1.42-1.34-1.19-2.24l13.07-3.29-9.4-4.87c-7.25,4.1-15.66,7.46-23.93,8.74-2.47.38-8.83,2.05-8.35-1.4,11.47-.93,22.99-3.85,32.45-10.53,8.67,5.91,12.37,7.57,21.76,2.19,2.25-1.29,7.54-6.14,9.15-6.41,2.06-.34,1.43,3.26,3.28,4.11l1.65-3.27c7.46,1.68,2.23,11.81,11.02,12.26.1-7.67-3.64-17.88-10.87-21.42-3.27-1.6-7.61-2.05-11.19-3.53-9.95-4.12-12.7-10.46-14.49-20.66-1.23-7.02-3.96-15.28,6.34-11.22l-.04,4.51h2.45c-.95-2.43,2.92-11.17.4-12.25-2.05-.88-1.39,4.34-3.21,4.67-5.97-1.38-12.15-.56-17.97.91l-2.05-3.45-2.51-.5,2.45,12.27h2.45s-.82-4.89-.82-4.89c3.56-.69,8.36-4.18,9.04,1.17,1.24,9.86-4.13,30.25-9.69,38.63-.84,1.27-1.53,2.96-3.43,2.7l8.28-20.74c1.54-6.88,2.73-13.89,2.34-20.96h-3.26s-.12,5.61-.12,5.61l-6.48.58-3.69-15.21,6.48-1.66,1.89,3.38,16.12-.82,1.39-4.08,6.48,1.17-1.63,9.82v6.13Z"/>
  <path class="cls-1" d="M64.39,19.59c19.5-3.59,20,26.65-.14,23.46-11.97-1.89-12.13-21.2.14-23.46ZM64.39,22.04c-10.12,2.06-9.22,19.21,3.1,19,13.57-.23,12.23-22.12-3.1-19Z"/>
</svg>