<?xml version="1.0" encoding="UTF-8"?>
<svg id="Layer_1" data-name="Layer 1" xmlns="http://www.w3.org/2000/svg" viewBox="0 0 96 96">
  <defs>
    <style>
      .cls-1 {
        fill: #e2a793;
      }
    </style>
  </defs>
  <rect class="cls-1" x="64.21" y="67.96" width="6.65" height="26.6"/>
  <rect class="cls-1" x="24.31" y="74.61" width="6.65" height="19.95"/>
  <path class="cls-1" d="M63.38,62.14c.09.36-.15.42-.31.62-.44.58-1.76,1.65-2.39,2.18-8.36,7.12-18.76,10.2-29.72,8.62-.09-.36.15-.41.31-.62.38-.49,1.82-1.7,2.39-2.18,8.46-7.18,18.66-9.95,29.72-8.62Z"/>
  <path class="cls-1" d="M24.73,45.51C13.14,42.35,3.48,33.12,0,21.62c11.74,3.39,20.79,12.39,24.73,23.89Z"/>
  <path class="cls-1" d="M64.21,30.55c-10.24-6.35-16.84-17.12-18.28-29.09.15-.15,1.4.79,1.64.96,9.34,6.52,15.5,16.73,16.64,28.13Z"/>
  <path class="cls-1" d="M96,42.61c-4.45,11.26-14.01,19.58-25.56,23.06,4.41-11.1,14.02-19.87,25.56-23.06Z"/>
  <rect class="cls-1" x="64.21" y="1.46" width="6.65" height="26.6"/>
  <rect class="cls-1" x="64.21" y="34.71" width="6.65" height="26.6"/>
  <path class="cls-1" d="M45.71,46.14c-.23,2.57-.46,5.01-1.1,7.52-1.88,7.44-6.92,13.54-13.45,17.41-.16-9.47,4.41-18.32,12.19-23.65.36-.24,2.09-1.53,2.35-1.28Z"/>
  <rect class="cls-1" x="24.31" y="21.41" width="6.65" height="19.95"/>
  <rect class="cls-1" x="24.31" y="48.01" width="6.65" height="19.95"/>
  <path class="cls-1" d="M64.42,33.04c-7.19,2.52-14.21,3.03-21.56.89-.56-.16-7.5-2.65-7.11-3.17,8.76-3.33,18.42-3.04,26.84,1.1.62.3,1.44.6,1.83,1.18Z"/>
</svg>