<?xml version="1.0" encoding="UTF-8"?>
<svg id="Layer_1" data-name="Layer 1" xmlns="http://www.w3.org/2000/svg" viewBox="0 0 96 96">
  <defs>
    <style>
      .cls-1 {
        fill: #e2a793;
      }
    </style>
  </defs>
  <path class="cls-1" d="M21.77,15.87v12.37h10.66c.39-4.71,2.64-11.39,8.21-11.61,3.35-.13,10.3-.24,13.33.62,4.78,1.37,9.1,6.03,9.81,10.99h10.45v-12.37h13.01v12.37h6.61v4.37l-.32.32h-6.29v49.91h-13.01v-49.91h-10.45c-.84,5.14-5.38,9.81-10.41,11.03-3.03.73-9.99.8-13.16.49-5.14-.51-7.41-7.12-7.79-11.52h-10.66v49.91h-13.01v-49.91H2.46l-.32-.32v-4.37h6.61v-12.37h13.01ZM17.07,20.35h-3.63v7.89h3.63v-7.89ZM82.55,20.35h-3.63v7.89h3.63v-7.89ZM40.48,21.23c-3.93,2.53-4.06,9.59-3.08,13.66.94,3.91,3.58,7.65,5.86,1.93,1.45-3.63,1.5-8.71.09-12.36-.37-.96-1.65-3.43-2.87-3.23ZM46.93,39.76h4.37c.75,0,3.08-1.08,3.8-1.53,3.7-2.36,4.5-5.9,3.99-10.1-.39-3.22-5.51-6.93-8.64-6.93h-3.52c2.65,5.65,2.72,12.92,0,18.56ZM17.07,32.93h-3.63v45.43h3.63v-45.43ZM82.55,32.93h-3.63v45.43h3.63v-45.43Z"/>
  <path class="cls-1" d="M45.01,58.74l1.75-3.27c1.23-1.82,2.72-3.38,4.46-4.71.41-.32,3.15-2.3,3.39-2.04.05,2.13.39,4.29,1.06,6.29,1.73,5.14,4.78,8.06,5.52,14.1,2.25,18.18-26.2,17.46-26.65,2.97-.21-6.7,2.68-10.85,6.63-15.78,1.19-1.48,2.5-3.05,3.83-4.38v6.83ZM48.64,63.33c-.16,1.59.12,3.4,0,5.01-2.88-1.04-5.29-2.57-7.04-5.12-2.92,4.99-4.37,11.89,2.35,14.39,5.44,2.03,13.21-.15,12.79-7.03-.32-5.17-3.35-8.93-5.12-13.55-.39-.09-.41.13-.6.35-1.07,1.24-2.22,4.31-2.38,5.94Z"/>
</svg>