<?xml version="1.0" encoding="UTF-8"?>
<svg id="Layer_1" data-name="Layer 1" xmlns="http://www.w3.org/2000/svg" viewBox="0 0 96 96">
  <defs>
    <style>
      .cls-1 {
        fill: #e2a793;
      }
    </style>
  </defs>
  <path class="cls-1" d="M90.78,89.93c-.49.73-1.2,1.16-2,.58-3.95-3.53-7.48-7.99-11.45-11.44-3.87-3.37-9.1-3.5-12.71.34-2.11,2.25-3.61,4.13-6.11,6.08-1.75,1.37-6.95,4.86-8.96,5.24-1.43.27-2.17-1.05-1.3-2.14,6.29-2.74,15.42-9.18,17.34-16.07.36-1.27,1.03-3.56-.95-3.64H16.84c-1.93-.21-1.21-2.5-.33-2.5h6.6c-.06-6.91-.43-13.47,2.36-19.94,3.51-8.13,11.22-13.61,20.29-13.15.79.04,3.23.27,3.67.84.77,1.02-.38,2.09-.78,3.06-.52,1.24-.89,3.04-.97,4.38-.06.89.54,2.77-1.09,2.76-2,0-1.41-3.63-1.2-4.89.19-1.2.61-2.32.95-3.47-8.79-.92-16.02,4.64-19.01,12.66-2.14,5.76-1.7,11.71-1.71,17.75h4.85v-6.77c0-.95,1.3-1.9,2.17-1.16.09.08.51.78.51.83v7.1h7.52c-.25-.71-.68-1.36-.79-2.13-.35-2.4.63-4.48,2.63-5.8-3.23-2.34-6.24-5.43-7.18-9.44l-1,1.92c-.65,1.07-.5,4.72-2.08,4.75-.39,0-1.11-.37-1.22-.77-.45-1.54,1.16-5.69,2-7.12.28-.48,1.55-2.01,1.61-2.24.16-.62-.73-2.78.64-3.18,2.32-.69,1.76,2.27,1.91,3.54.45,3.83,2.27,6.77,5.16,9.21,1.2,1.02,3.06,1.87,4.07,2.78.6.53.63,1.45.03,1.98-.55.49-1.04.23-1.63.37-2.29.53-3.23,3.11-1.71,4.98,1.56,1.93,5.28.95,7.49,1.13,4.92-4.55,11.47-7.48,18.25-7.65.6-.01,2.79.26,3.01,0,1.17-2.94,3.76-7.53,3.22-10.74-.4-2.33-4-4.23-5.97-5.14-.18,1.44-3.02,5.64-4.67,4.25-1.47-1.24.73-2.38,1.4-3.27.49-.65.82-1.4,1.1-2.15-.85-.49-3.55-1.21-4.02-1.92-.6-.91-.43-4.59-1.71-5.15-1.07-.47-6.17,3.09-8.15,2.48-.25-.08-.71-.46-.79-.71-.53-1.76,1.43-1.69,2.51-2.1,1.65-.62,4.58-2.31,6.23-2.31,2.8,0,3.92,3.93,4.12,6.16,3.7,1.71,11.79,4.73,12.46,9.35.57,3.94-1.66,8.21-3.13,11.73,1.09.32,4.77.85,5.22,1.88.24.55.08,1.32-.45,1.64-.79.47-3.67-.72-4.77-.94-6.72-1.33-14.45.18-19.72,4.6h10.94c.07,0,1,.43,1.14.53,2.69,1.74,1.77,5.19.78,7.66,3.74-1.18,7.99-.43,10.95,2.17l12.28,12.37v.84Z"/>
  <path class="cls-1" d="M30.79,5.22c2.81.59,5.28,1.96,6.92,4.36,2.2,3.22,3.17,9.12-2.15,9.52-3.83.29-8.09-.17-11.96-.08-1.23-.14-2.72-1.52-2.96-2.72-.32-1.59.51-3.35-1.79-3.56-3.89-.36-8.55.45-12.37.01-1.66-.19-1.62-2.27-.15-2.5,4.21.33,9.22-.49,13.34,0,1.71.21,3.16,1.76,3.4,3.45.22,1.55-.5,2.69,1.62,2.89,3.49.33,7.48-.25,11.02-.02,1.64-.23,1.28-1.94.99-3.14-.8-3.27-3.68-5.46-6.99-5.71-7.54-.57-15.77.45-23.39,0-1.39-.35-1.44-1.8-.26-2.5h24.73Z"/>
  <path class="cls-1" d="M90.78,68.88v.84c-.51.71-1.04,1.1-1.9.65-1.24-1.14-2.38-2.42-3.7-3.48-.88-.71-2.62-1.62-3.26-2.25-1-.99-.05-2.43,1.05-2.24.81.14,3.73,2.41,4.47,3.06,1.16,1.02,2.26,2.32,3.34,3.43Z"/>
  <path class="cls-1" d="M7.73,68.88v20.97c0,.89-2.23,1.52-2.5-.18l.03-22.34c.14-.4.44-.87.89-.95.68-.13,5.33-.13,6.01,0,.78.15,1.14,1.13.84,1.83-.03.08-.62.67-.66.67h-4.59Z"/>
  <path class="cls-1" d="M23.89,21.63c.99-.23,1.59.25,1.72,1.21v17.89c-.12,1.35-1.56,1.69-2.43.75l-.09-18.8c.02-.52.27-.93.79-1.05Z"/>
  <path class="cls-1" d="M29.57,21.63c.81-.24,1.62.22,1.73,1.04-.35,3.85.44,8.45,0,12.21-.21,1.76-2.33,1.6-2.52.17-.5-3.72.4-8.54,0-12.38-.03-.36.49-.95.79-1.04Z"/>
  <path class="cls-1" d="M35.25,21.63c.9-.27,1.61.12,1.72,1.05.33,2.77-.24,6.17-.01,9.02-.21,1.35-2.3,1.34-2.5-.32-.21-1.76-.21-6.77,0-8.53.05-.43.33-1.08.79-1.22Z"/>
  <path class="cls-1" d="M53.63,39.67c1.15-.34,1.79.57,1.65,1.64-.18,1.32-1.99,5.7-3.77,4.42-1.35-.98.34-2.49.81-3.53.32-.72.52-2.3,1.31-2.53Z"/>
</svg>