<?xml version="1.0" encoding="UTF-8"?>
<svg id="Layer_1" data-name="Layer 1" xmlns="http://www.w3.org/2000/svg" viewBox="0 0 96 96">
  <defs>
    <style>
      .cls-1 {
        fill: #e2a793;
      }
    </style>
  </defs>
  <path class="cls-1" d="M90.79,50.74l-.85.84c.04,1.1-.06,2.95-1.45,3.14-.36.05-.98-.16-1.07.31v24.86c-.17.87-.87,1.61-1.77,1.69-1.57.14-4.68.14-6.24,0-.9-.08-1.7-.82-1.84-1.71-.1-.65.12-3.15-.1-3.45l-12.26-7.31-11.95,7.1c-.47,1.33.34,3.41-.53,4.58-.35.47-.88.74-1.46.79-2.02.18-4.34-.13-6.39-.02-2.45-.62-1.38-3.26-1.62-5.05-.02-.12-.02-.23-.13-.3l-11.96-7.09-12.26,7.31c-.24.33.02,2.86-.1,3.54-.15.82-1.01,1.55-1.84,1.63-2.01.18-4.29-.14-6.33,0-1.08-.19-1.75-1.15-1.77-2.21v-24.5c-.09-.24-.94-.1-1.28-.21-1.16-.38-1.21-2.08-1.17-3.08-.57-.46-1.03-.98-1.11-1.75-.09-.85-.11-3.59.04-4.38.12-.65.96-1.64,1.65-1.64h2.17l.13-.13v-20.35c0-.71.95-1.82,1.56-2.16,2.13-1.17,4.27.33,4.59,2.59.06.42-.19.73.26.95.66.34,2.56.73,3.36.89,3.63.7,7.42.62,11.02-.19,1.09-.25,2.16-.57,3.2-.95.17-.14.06-.63.09-.87.45-3.66,5.48-3.53,6.04-.5.1.55-.22,1.27.35,1.56.53.27,2.14.62,2.79.76,4.37.94,8.88.86,13.19-.33.31-.09,1.38-.36,1.58-.5.25-.18.1-.69.14-.99.45-3.64,5.53-3.58,6.11-.4.07.4-.04,1.06.05,1.33.09.28,2.34.81,2.74.9,4.26.93,8.56.84,12.77-.26.78-.2,1.55-.48,2.32-.71.23-.74.06-1.67.56-2.3,1.81-2.28,5.21-1.59,5.67,1.34v20.01s.13.3.13.3h1.56c.48,0,1.18.64,1.43,1.04v5.89ZM11.09,23.5v20.18l.13.13h2.25l.13-.13v-20.09c0-.45-.82-.99-1.26-1-.49-.01-1.16.44-1.26.92ZM35.17,23.5v20.18l.13.13h2.25l.13-.13v-20.09c0-.32-.54-.87-.86-.96-.63-.17-1.51.2-1.65.87ZM59.25,23.5v20.18l.13.13h2.25s.15-.13.17-.17l.04-19.69c-.07-1.02-1.08-1.74-2.01-1.16-.18.11-.54.52-.58.72ZM83.34,23.67v20.01l.13.13h2.25l.13-.13v-20.27c0-.21-.69-.75-.93-.8-.68-.14-1.48.35-1.58,1.06ZM81.52,26.32c-3.65,1.18-7.54,1.75-11.39,1.47-2.22-.16-4.39-.65-6.54-1.21v17.11l.13.13h17.67l.13-.13v-17.37ZM33.35,26.4c-.97.17-1.9.52-2.86.74-3.93.89-7.93.95-11.89.19-1.07-.21-2.11-.56-3.19-.75v17.11l.13.13h17.59s.13-.11.22-.09v-17.32ZM39.42,26.71v16.89s.2.22.22.22h17.67l.13-.13v-17.06c-.06-.08-.09-.11-.2-.12-.26,0-1.32.39-1.69.48-4.5,1.07-8.93,1.17-13.47.18-.83-.18-1.64-.47-2.46-.67h-.12c0,.08-.09.17-.09.21ZM7.23,45.63l-.13.13v3.98s.13.15.17.17c4.94.07,9.91.06,14.86.05,15.44-.03,30.9-.15,46.35-.09,6.75.02,13.57.16,20.36.1.32,0,.44-.28.47-.57.08-.71.08-2.59,0-3.3-.02-.19-.06-.34-.22-.47H7.23ZM87.99,52.89c.15-.25.21-1.01-.07-1.15-5-.07-10.02-.05-15.04-.05-17.02.01-34.03.03-51.02,0-4.52,0-9.07-.03-13.57.05l-.03,1.16,79.72-.02ZM16.98,54.73h-6.19l-.13.13v24.69c0,.25.37.29.56.31,1.25.11,4.07.14,5.29,0,.19-.02.34-.06.47-.22v-24.9ZM43.23,56.5v-1.65h-24.43v1.6l12.33,7.34,11.91-7.05c.08-.04.18-.17.2-.25ZM51.37,79.54v-24.69c-.57-.33-1.42-.04-2.03-.04-.34,0-.64-.1-.95-.1-1.15,0-2.28.09-3.43.09v24.73c0,.18.49.29.65.31,1.32.12,3.79.1,5.12,0,.23-.02.6-.03.65-.31ZM77.53,56.41v-1.56l-.3-.13c-6.31.05-12.62,0-18.89,0-1.71,0-3.4-.01-5.1.1l-.1.07c-.03.35-.14,1.59.07,1.8l11.9,7.11,12.42-7.39ZM85.59,54.73h-6.11l-.13.13v24.77c.13.15.28.2.47.22,1.25.15,3.81.09,5.12,0,.23-.01.63,0,.69-.26l-.05-24.87ZM43.23,58.8l-12.08,7.02-12.34-7.19.09,1,10.13,6.07c.64.6.52,1.17-.17,1.63-3.09,2.08-6.63,3.79-9.78,5.82-.4.23-.24.68-.27,1.08l.34-.05c3.69-2.1,7.28-4.55,10.98-6.61,1.14-.63,1.05-.53,2.15.07,3.41,1.87,6.7,4.26,10.12,6.08.15.08.72.44.84.33-.03-.3.11-.73-.12-.96l-9.82-5.86c-.52-.35-.52-1.17-.02-1.53l9.83-5.85c.24-.24.09-.73.12-1.04ZM77.53,58.62l-12.34,7.19-11.95-7.02c-.21.04-.22.94.09,1.04l9.71,5.84c.46.35.57,1.08.1,1.47l-9.88,5.94c-.24.24-.13.65-.15.96l.41-.07,11.09-6.67c.27-.13.57-.28.87-.12l12.07,7.12-.02-1.02-10.38-6.21c-.51-.62-.19-1.22.44-1.55l9.87-5.9.09-.99ZM18.8,71.1l7.88-4.63-7.88-4.72v9.35ZM77.53,61.74l-7.89,4.63.06.22,7.82,4.5v-9.35ZM43.23,62c-.3-.03-.57.19-.84.33-1.99,1.06-4.46,2.54-6.34,3.79-.15.1-.32.19-.44.34,2.26,1.32,4.44,2.83,6.73,4.1.28.15.58.38.89.36v-8.92ZM53.1,62v8.79l.21.13,7.41-4.46-7.21-4.39-.41-.07Z"/>
</svg>