<?xml version="1.0" encoding="UTF-8"?>
<svg id="Layer_1" data-name="Layer 1" xmlns="http://www.w3.org/2000/svg" viewBox="0 0 96 96">
  <defs>
    <style>
      .cls-1 {
        fill: #e2a793;
      }
    </style>
  </defs>
  <path class="cls-1" d="M87.49,35.75v54.16c0,.35-.69,1.32-1.19,1.21l-77.05-.1c-.54-.37-.74-1.02-.75-1.65v-53.61s-4.33,0-4.33,0c-.12,0-.6-.59-.64-.83-.15-.77-.1-3.94.01-4.78.39-3,3.29-4.43,6.07-4.27,12.44-7.2,24.44-16.04,36.93-23.04.49-.28.98-.71,1.55-.68.43.02.97.46,1.37.68,12.65,7.08,24.68,16.1,37.39,23.13,2.61-.3,5.25,1.52,5.6,4.18.11.84.16,4.01.01,4.78-.05.24-.52.83-.64.83h-4.34ZM82.14,25.97L48.08,4.75,13.86,25.97h68.27ZM90.26,33.53v-3.04c0-.71-1.11-2.07-1.93-2.13-26.75-.35-53.61-.17-80.38-.09-.92.07-2.2,1.35-2.2,2.22v3.04h84.51ZM25.49,35.75h-14.58v30.26h5.44c3.47-2.98,6.8-6.24,9.21-10.16,3.67-5.97,5.25-13.14,5.64-20.1h-3.23c-.5.46-.22,1.29-.28,1.94-.66,6.84-2.51,14.14-6.27,19.93-.51.78-2.89,4.13-3.51,4.42-.91.42-1.89-.4-1.58-1.39.15-.49,2.43-3.09,2.95-3.88,4.05-6.17,5.8-13.69,6.2-21.02ZM78.82,83.17h-4.52c-.16,0-.87-.29-1-.47l-.16-1.23,4.54-14.05c-2.07-2.12-4.34-4.01-6.23-6.3-5.82-7.05-8.45-15.99-8.89-25.06l-.15-.22-28.35-.09-.56.18c-.47,7.42-2.17,14.87-6.09,21.22-2.46,3.97-5.71,7.11-9.08,10.28l4.54,14.05-.16,1.23c-.13.18-.84.47-1,.47h-4.52c-.16.54.22,1.43.11,1.85-.07.28-.71.91-.94.91h-5.44v2.95h17.35v-10.24c0-.13.43-.92.55-1.11.84-1.38,2.15-1.66,3.69-1.57.42-2.13.06-4.61,1.08-6.57,2.12-4.08,8.25-4.67,11.1-1.07,1.68,2.12,1.53,5.08,1.67,7.65h3.32c.07-1.6.07-3.46.42-5.02,1.2-5.39,8.29-6.75,11.67-2.54,1.76,2.19,1.33,4.95,1.76,7.56,1.36-.11,2.86.21,3.65,1.42.11.16.58,1.18.58,1.26v10.24h17.35v-2.95h-5.44c-.23,0-.86-.64-.94-.91-.11-.43.27-1.31.11-1.85ZM70.51,35.75c.39,7.32,2.15,14.85,6.2,21.02.52.79,2.8,3.39,2.95,3.88.31.99-.67,1.81-1.58,1.39-.63-.29-3.01-3.64-3.51-4.42-3.46-5.35-5.25-11.82-6.06-18.11-.13-1-.05-2.42-.21-3.3-.04-.21-.09-.35-.28-.46h-3.23c.39,6.97,1.97,14.12,5.64,20.1,2.42,3.93,5.74,7.19,9.21,10.16h5.44v-30.26h-14.58ZM16.26,68.22h-5.35v15.5h3.88l-1.11-8.77c-.02-.93.99-1.54,1.77-1.02,1.18,1.88.74,4.68,1.37,6.84h3.51l-4.06-12.55ZM44.12,75.97c-.12-3.54-.17-7.98-4.9-7.76-4.31.2-4.34,4.44-4.33,7.76h9.23ZM61.1,75.97c0-3.31-.02-7.55-4.33-7.76-4.73-.22-4.77,4.22-4.9,7.76h9.23ZM85.09,68.22h-5.35l-4.06,12.55h3.51c.5-1.28.39-6.19,1.37-6.84.79-.52,1.76.09,1.77,1.02.03,2.22-.92,5.41-1.11,7.76-.03.34,0,.68,0,1.01h3.88v-15.5ZM30.47,79.2v9.69h2.95v-6.92c0-.34.79-.92,1.2-.83h26.58c.45-.13,1.38.42,1.38.83v6.92h2.95v-9.69s-.39-.71-.49-.85H30.96c-.07.05-.48.79-.49.85ZM60.36,88.89v-5.26l-.28-.28h-24.17l-.28.28v5.26h24.73Z"/>
</svg>