<?xml version="1.0" encoding="UTF-8"?>
<svg id="Layer_1" data-name="Layer 1" xmlns="http://www.w3.org/2000/svg" viewBox="0 0 96 96">
  <defs>
    <style>
      .cls-1 {
        fill: #e2a793;
      }
    </style>
  </defs>
  <path class="cls-1" d="M47.1,94.29c-1.16-.43-2.53-1.87-2.53-3.16v-9.85c-2.63,1.58-4.97,3.95-7.54,5.57-4.13,2.62-7.42-2.04-4.56-4.92l12.09-9.06v-18.89l-15.99,9.59-1.78,15.58c-1.14,3.12-5.46,3.06-6.41-.17-.09-3.64.71-7.25.86-10.89-2.95,1.26-5.51,3.54-8.37,4.91-4.18,2-6.96-3.02-3.73-5.53,2.16-1.68,5.53-3.15,7.93-4.73.14-.09.84-.48.74-.61l-9.35-3.76c-3.37-2.02-1.41-6.9,2.38-6.17l14.22,5.69,16.26-9.77-.3-.42-15.96-9.52-14.07,5.66c-3.76.82-5.88-3.72-2.75-6l9.57-3.9c-2.48-2.09-6.02-3.36-8.55-5.27-3.41-2.57-.56-7.61,3.62-5.6,2.86,1.37,5.42,3.65,8.37,4.91l-.9-8.95c-.76-4.97,5.77-6.28,6.67-1.06.73,4.24.66,9.05,1.29,13.36.06.4.12.8.28,1.17l15.99,9.59v-18.89l-12.09-9.06c-2.58-2.59-.03-6.64,3.27-5.62.51.16.85.43,1.28.7,2.56,1.62,4.9,3.99,7.54,5.57V4.9c0-.06.27-.99.32-1.12.97-2.38,4.14-2.78,5.72-.76.15.19.65,1,.65,1.16v10.76c2.66-1.67,5.09-4.09,7.72-5.75,4.16-2.64,7.55,2.15,4.12,5.2l-11.84,8.95v18.71l16.23-9.62,1.56-14.98c.68-3.66,5.78-3.64,6.57-.04l-1.04,10.71,9.53-5.56c3.2-.67,5.4,3.19,3.22,5.57-1.32,1.44-6.43,3.86-8.4,5.16-.14.09-.84.48-.74.61l9.46,3.83c3.08,2.17,1.28,6.75-2.49,6.1l-14.26-5.73-16.21,9.82.3.42,15.91,9.57,14.12-5.69c3.81-.92,5.81,3.72,2.74,5.99l-9.57,3.9c-.1.13.6.52.74.61,1.97,1.3,7.08,3.72,8.4,5.16,1.44,1.58.99,4.29-.93,5.23-1.49.72-2.27.37-3.62-.31-2.76-1.38-5.42-3.5-8.19-4.91l1.08,10.39c-.32,3.47-5.11,4.16-6.41.99l-1.76-15.68-16.23-9.62v18.71c4.14,3.48,8.84,6.31,12.8,9.97,1.72,3.39-1.96,6.46-5.02,4.29l-7.79-5.86v10.76c0,.86-1.63,2.09-2.35,2.44h-1.81Z"/>
</svg>