<?xml version="1.0" encoding="UTF-8"?>
<svg id="Layer_1" data-name="Layer 1" xmlns="http://www.w3.org/2000/svg" viewBox="0 0 96 96">
  <defs>
    <style>
      .cls-1 {
        fill: #e2a793;
      }
    </style>
  </defs>
  <path class="cls-1" d="M40,2.45c.46.37.9.67.9,1.33,0,2.54-5.88.6-7.28,1.61l-4.63,16.05h37.99l-4.79-16.25-17.66-.09c-1.34-.57-1.26-1.77-.27-2.66h18.64c.82.54,1.61.84,1.96,1.86l4.99,17.11c2.39.18,5.7-.78,6.47,2.32l.07,19.09c-.2.92-1.08,1.57-1.99,1.12-.15-.07-.67-.5-.67-.58v-19l-.27-.27H22.51l-.27.27v66.05l.27.27h50.95l.27-.27v-42.97c0-.08.51-.5.66-.58,1.02-.51,1.86.26,2,1.29v42.44c-.02,1.21-.85,2.27-1.99,2.62l-52.08.13c-1.21-.03-2.27-.85-2.62-1.99l-.11-67.33c.59-3.39,4-2.46,6.53-2.61l4.99-17.11c.35-1.02,1.14-1.32,1.96-1.86h6.92Z"/>
  <path class="cls-1" d="M49.41,41.33c.9-.5,2.06-2.43,3.01-2.59.69-.12,1.56.58,1.61,1.27.08,1.28-3.79,4.2-4.61,5.31v9.68l8.17-4.88c.73-1.33,1.04-5.84,2.04-6.66.84-.68,2.05-.08,2.19.84.1.66-.74,2.8-.86,3.6.24.2,2.64-1.62,3.14-1.74,1.44-.33,2.4,1.1,1.47,2.18l-3.2,2.04c1.21.38,4.36.45,4.26,2.21-.02.29-.37.86-.61,1-1.17.69-5.52-1.17-7.03-1.18l-8.34,4.89,8.3,5.12c1.7.12,5.18-1.67,6.66-1.36,1.04.22,1.32,1.71.48,2.36-.7.54-2.8.77-3.73.98l3.27,2.14c.74.92,0,2.32-1.17,2.21-.65-.06-3.38-2.01-3.53-1.86.09,1.2,1.73,4.17,0,4.71-.76.24-1.32.07-1.71-.62-.85-1.53-.87-4.47-1.67-6.15l-8.18-4.87v9.68c1.11,1.42,3.27,2.85,4.26,4.26.47.68.54,1.43-.18,1.95-1.55,1.12-2.89-1.73-4.08-2.39v3.46c0,1.5-2.84,1.5-2.84,0v-3.46c-1.19.67-2.53,3.51-4.08,2.39-.72-.52-.66-1.27-.18-1.95.99-1.41,3.15-2.84,4.26-4.26v-9.68l-8.18,4.87c-.79,1.68-.82,4.62-1.67,6.15-.38.69-.95.86-1.71.62-1.73-.54-.08-3.51,0-4.71-.13-.16-2.85,1.8-3.53,1.86-1.17.11-1.91-1.29-1.17-2.21.58-.72,2.61-1.31,3.27-2.14-1.18-.3-4.08-.38-4.22-1.91-.3-3.18,6.14.21,7.64-.08l8.3-5.12-8.3-4.94c-1.48.07-5.93,1.9-7.07,1.22-.24-.14-.59-.71-.61-1-.1-1.82,3.07-1.69,4.26-2.21l-3.2-2.04c-.92-1.08.03-2.52,1.47-2.18.51.12,2.9,1.94,3.14,1.74-.11-.81-.96-2.94-.86-3.6.19-1.23,2-1.69,2.64-.22.71,1.62.86,4.18,1.46,5.91l8.3,5.02v-9.68c-.83-1.11-4.69-4.04-4.61-5.31.04-.69.91-1.39,1.61-1.27.95.16,2.11,2.09,3.01,2.59v-3.46c0-.48.77-1.14,1.34-1.17.64-.03,1.5.59,1.5,1.17v3.46Z"/>
  <path class="cls-1" d="M57.87,9.79c2.99,2.9,1.13,7.87-2.91,8.41-3.01.41-10.14.3-13.28.05-6.44-.51-6.13-8.99-1.01-9.73,4.39-.63,9.99.38,14.51-.05.89.1,2.05.69,2.69,1.31ZM40.06,14.81c.27.28.86.55,1.27.6,4.18.51,9.37-.38,13.67-.02,2.2-.69,2.16-3.72-.18-4.24-4.21.33-9.19-.48-13.3-.01-1.81.21-2.73,2.33-1.45,3.67Z"/>
</svg>