<?xml version="1.0" encoding="UTF-8"?>
<svg id="Layer_1" data-name="Layer 1" xmlns="http://www.w3.org/2000/svg" viewBox="0 0 96 96">
  <defs>
    <style>
      .cls-1 {
        fill: #e2a793;
      }
    </style>
  </defs>
  <path class="cls-1" d="M30.1,84.98c-.11,1.27-.66,3.39-1.14,4.59-.61,1.53-2.13,4.23-4.09,2.93-1.93-1.27.23-3.14.74-4.37,1.19-2.91.81-6.72.82-9.81-3.12-3.14-5.84-6.64-7.64-10.72-.6-1.35-1.11-3.75-1.72-4.79-.43-.74-1.42-1.28-1.96-1.86-4.52-4.89-7.35-10.41-6.81-17.29.09-1.09.91-3.32.87-4.02-.04-.65-1-2.73-1.2-3.68-.7-3.33-.54-6.57.52-9.8-2.09.08-3.24,2.87-5.36,2.21-.81-.25-1.22-1.43-1.01-2.17.23-.83.97-1.26,1.38-1.89,1.33-2.09,1.59-4.58.61-6.86-.68-1.58-2.95-3.03-1.64-4.69,1.45-1.84,2.79.09,3.99.81,2.51,1.52,5.38,1.5,7.85-.07.72-.46,1.31-1.45,2.34-1.49.44-.02.66.27,1.22.09.26-.09,4.39-2.88,4.59-3.07.44-.42,1.07-1.89,1.63-2.57C28.42,1.25,38,.02,44.21,1.83c4.54,1.32,8.28,4.22,11.9,7.13.02-.83-.22-1.66-.54-2.42-.58-1.41-3.64-3.97-1.25-5.2,1.86-.96,2.89,1.12,4.47,1.79,2.23.95,4.69.75,6.76-.51,1.04-.64,2.9-2.78,4.09-.77,1.11,1.87-.98,2.91-1.7,4.5-.77,1.72-.83,3.96-.1,5.72.62,1.52,2.69,2.78,1.95,4.54-.08.18-.71.73-.9.81-1.48.61-1.99-.54-2.95-1.16-1.25-.8-2.75-1.51-4.27-1.28,2.22,3.52,5.63,5.49,7.17,9.47,1.22,3.15,1.3,6.61,1.06,9.94,1.68-.46,3.18-3.27,4.98-1.63,1.77,1.61-.81,3.35-1.44,4.89-.94,2.32-.79,4.75.58,6.87.34.52,1.13,1.05,1.33,1.72.46,1.53-.69,2.82-2.26,2.46-1.08-.25-3.23-3.01-5.1-2.43-.89,4.85-3.65,9.09-7.05,12.55-.3,7.5-4.55,14.2-9.75,19.32,0,3.15-.45,6.75.69,9.75.54,1.43,2.62,3.02.91,4.47-1.71,1.44-3.19-.68-3.88-2.07-1.39-2.82-1.47-6.13-1.59-9.22-5.12,3.34-11.57,3.43-16.77.22l-.44.26c-.07,1.12.1,2.34,0,3.44ZM66.06,34.78c.48-4.07.32-8.56-2.39-11.86-.65-.79-1.64-1.43-2.28-2.12-1.26-1.38-2.17-3.18-3.56-4.49l-.26-.07c-3,3.18-5.89-.25-2.62-2.98-4.71-4.87-10.78-8.98-17.87-8.51-3.06.2-7.43,1.33-9.67,3.53-1.35,1.33-1.52,1.82-.79,3.48,1.16,2.67,4.54,6.54,7.26,7.66,1.22.51,2.86.74,4.16,1.19,6.83,2.4,13.77,5.91,18.15,11.88,1,1.36,4.22,5.65,1.9,6.84-2.28,1.17-2.82-1.42-3.67-2.78-4.47-7.09-11.99-10.82-19.85-13.06l-.28.07c-.81,2.19-.76,4.29.36,6.36,1.87,3.43,5.31,4.36,8.43,6.3,6.92,4.28,13.3,10.53,16.94,17.86,1.85-1.99,3.11-4.5,3.92-7.07-1.42.43-2.37,2.45-4.01,1.42-2.39-1.5.49-3.55,1.14-5.15.93-2.29.67-4.59-.61-6.66-.66-1.06-2.83-2.97-.61-4.12,2.06-1.07,3.89,2.52,6.19,2.27ZM63.29,7.42c-.95.11-2.25,0-3.25,0-.04,0-.22-.29-.28-.19.22,1.39.23,2.63,0,4.02,1.38-.12,2.64-.12,4.02,0-.33-1.3-.25-2.7,0-4.01-.22-.07-.4.18-.48.19ZM23.21,12.97c-.25-.19-3.8,2.56-4.21,2.96-.44.42-2.9,3.31-3.01,3.68-.39,1.36.43,3.53,1.14,4.71.67,1.13,2.21,2.05.93,3.62-1.6,1.95-3.76-1.41-5.44-1.56-1.86,3.18-1.6,7.32-.4,10.69,3.04-1.59,6.01-3.67,8.23-6.31,1.24-1.48,2.26-4.91,4.54-3.78,2.61,1.28-1.36,5.85-2.53,7.13-2,2.19-4.78,4.16-7.34,5.67-.48.29-2.16.93-2.38,1.16-.32.34-.76,2.72-.81,3.3-.42,5.15,1.97,10.05,5.45,13.67.41.09.25-.17.33-.42,2.95-9.2,7.56-17.74,16.39-22.43-3.85-3.22-5-8.3-3.27-12.99-3.24-2.32-6.2-5.3-7.63-9.1ZM12.31,18.33c-1.4.19-2.61.19-4.02,0,.29,1.38.19,2.64,0,4.01,1.32-.28,2.69-.28,4.01,0-.26-1.37-.26-2.65,0-4.01ZM37.51,37.68c-.24.04-1.78.78-2.12.96-6.76,3.46-11.43,11.61-13.71,18.61-.9,2.77-1.4,3.72-.47,6.59,2.4,7.37,10.39,16.91,18.93,16.07,8.85-.87,19.99-16.28,16.2-24.8-2.64-5.95-10.82-13.51-16.55-16.54-.58-.31-1.68-.99-2.28-.89ZM69.31,38.6h-4.02v3.83h4.02c.05-.14-.19-.23-.19-.29v-3.25s.29-.22.19-.29Z"/>
  <path class="cls-1" d="M87.29,74.36c2.67-.21,5.98,1.54,6.46,4.35.26,1.55.26,8.3,0,9.85-.45,2.66-3.1,4.16-5.59,4.36-7.01.54-14.72-.42-21.81,0-2.08-.11-4.15-1.24-5.04-3.18-.86-1.87-.87-9.31-.28-11.31.92-3.13,3.93-4.21,6.95-4.05-.14-3.32,1.77-6.08,4.97-6.98,2.66-.75,5.99.7,6.46-3.3.15-1.3-.81-2.91.36-3.84,1.87-1.5,3.5,1.09,4.43,2.4,2.42,3.41,3.95,7.49,3.1,11.73ZM71.61,74.37h11.86c.61-2.21.4-4.4-.49-6.5-.1-.25-.21-.87-.56-.77-.11.03-.93,1.47-1.27,1.8-2.35,2.3-4.37,1.62-7.11,2.07-1.63.27-2.41,1.86-2.44,3.4ZM66.01,78.24c-.85.17-1.38.7-1.48,1.58-.17,1.47-.21,6.43.02,7.84.1.62.58,1.1,1.13,1.36l22.87.09c1.19-.14,1.53-.92,1.63-2.01.14-1.55.2-5.8-.02-7.26-.11-.75-.6-1.32-1.32-1.55l-22.82-.05Z"/>
  <path class="cls-1" d="M69.64,81.87l15.24-.03c2.04.31,2.22,3.12.19,3.61h-15.47c-1.98-.54-1.98-3.08.03-3.58Z"/>
</svg>