<?xml version="1.0" encoding="UTF-8"?>
<svg id="Layer_1" data-name="Layer 1" xmlns="http://www.w3.org/2000/svg" viewBox="0 0 96 96">
  <defs>
    <style>
      .cls-1 {
        fill: #e2a793;
      }
    </style>
  </defs>
  <path class="cls-1" d="M32.97,34.67c-8.95-.68-18.98-5.29-24.17-12.79C1.43,11.25,10.74,5.44,20.65,4.57c14.17-1.24,33.6,4.71,40.07,18.47.66,1.41,1.01,2.9,1.58,4.33,3.15.94,6.21,1.84,9.14,3.34,8.43,4.31,16.42,13.15,18.12,22.69,1.13,6.35-1.32,15.3-5.58,20.18-4.91,5.63-15.24,8.91-22.33,10.78-11.47,3.03-22.21,4.27-33.78.84-12.07-3.58-18.8-9.63-20.53-22.51-.82-6.16-.16-7.37,5.04-10.32,3.06-1.74,6.14-3.15,9.03-5.24,4.67-3.39,7.82-8.16,11.56-12.47ZM8.33,10.92c.56-.23,1.07-.54,1.64-.75,5.16-1.89,13.45.23,18.51,2.06,8.59,3.1,16.35,8.24,22.49,14.97,1.61,1.76,5.37,6.84,7.61,7.22,2.84.49,3.05-2.9,2.93-4.94-.38-6.45-5.53-12.6-10.56-16.2-8.64-6.19-22.38-9.14-32.84-7.34-3.58.62-7.53,2-9.79,4.98ZM61.74,34c-2.2,3.36-5.74.37-7.64-1.67-2.41-2.58-4.44-5.32-7.08-7.75-8.08-7.47-22.71-14.99-33.95-14.1-8.67.69-6.13,7.94-2.17,12.54,6.26,7.28,16.65,11.02,26.14,10.87,10.3-7.06,28.11,1.5,25.43,14.84-1.06,5.27-5.18,11.5-9.26,14.93-8.43,7.1-18.28,7.21-28.46,4.05-3.55-1.1-12.28-4.64-14.28-7.69-2.82-4.29,3.8-6.28,6.63-7.82,4.69-2.55,7.72-4.81,11.24-8.83,2.47-2.81,4.67-5.87,7.41-8.42l-1.6-.15c-3.89,4.38-7.11,9.38-11.86,12.9-1.86,1.38-3.96,2.58-5.98,3.72-2.67,1.5-10.89,4.56-7.44,8.74,4.59,5.55,19.55,9.92,26.59,10.53,5.75.5,13.31-2.49,18-5.75,8.29-5.77,14.4-16.2,10.57-26.39-.58-1.54-1.37-3.2-2.31-4.54ZM88.92,56.06c-.17-3.09-1.13-6.06-2.45-8.83-4.52-9.45-13.85-16.51-24.07-18.69,0,.85.16,1.66.12,2.51-.02.48-.29,1.34-.21,1.75.09.49,1.16,2.08,1.45,2.68,2.25,4.65,3.11,8.65,1.95,13.81-2.15,9.6-10.51,17.25-19.53,20.5-1.13.41-2.29.67-3.43,1.03-.12.04-.34.03-.31.19,1.94-.17,3.91-.16,5.85-.33,14.31-1.29,28.5-7.21,40.62-14.63ZM61.85,46.04c-.16-8.52-9.22-14.18-17.12-13.72-9.35.54-12.95,9.79-19.11,15.34-3.87,3.49-7.99,5.07-12.38,7.58-1.25.71-3.3,1.93-2.28,3.62,1.93-1.82,4.48-3.06,6.89-4.14,6.01-2.7,12.4-4.49,18.78-6.09.36-.6,1.26-1.24,1.59-1.75.11-.17,0-.33.22-.55,2.03-2.01,5.25-2.87,7.88-1.53.89.45,1.54,1.23,2.33,1.81,4.38-.46,8.8-.83,13.21-.56ZM49.25,47.49c1.84,2,2.51,3.98,1.96,6.69-.18.87-1.2,2.86-1.13,3.46.17,1.28,3.39,1.36,2.79,3.23-1.08.79-.89-.35-1.23-.78-.57-.72-2.53-.8-2.71-2.21-.1-.77.91-2.49,1.15-3.37.58-2.09.47-3.51-.74-5.27-1.92-2.79-4.64-5.29-8.23-3.59.95.32,1.75.92,2.64,1.38,1.14.6,2.01.54,2.63,1.95.72,1.65-.21,2.69.14,4.09.04.14.47.92.56,1,.26.21.78.17,1.16.51,1.23,1.09.07,3.25-1.18,3.83-.51.23-1.08.25-1.55.57-.71.49-1.32,1.8-1.95,2.45.92.24,1.78-.06,2.74,0,.65.04,1.35.26,2,.34.41.05,1.45-.19,1.6.3.13.45-.13.67-.53.76-.92.22-2.03-.31-2.96-.4-1.17-.1-2.33.35-3.4-.11-.54,1.19,1.17,1.43,1.97,1.88.89.5,1.88,1.23,2.16,2.25,4.41-2.11,7.99-5.4,10.64-9.49,1.93-2.97,3.56-6.48,3.97-10.02-4.18-.07-8.34.07-12.49.56ZM36.43,50.61c-1.12,1.52-2.07,3.38-2.22,5.31-.27,3.63,4.19,3.88,6.79,3.22.59-.15,2.36-1.38,2.12,0-.11.61-1.35.81-1.87.92-1.74.37-3.58.41-5.3-.08-.51.87-1.19,1.68-2.09,2.18-.62.34-1.25.44-1.89.68-.41.16-1.17.75-1.56.56l-.21-.25c-.29-1.04,2.33-1.43,2.99-1.71-1.73-1.38-4.24-1.92-6.12-.49-.47.36-1.37,1.57-1.95,1.5-.31-.04-.44-.3-.38-.59.05-.25,1.21-1.31,1.49-1.53,2.68-2.13,5.13-1.11,7.85.28l.88-1.01c-2.68-1.73-1.61-5.13-.64-7.57l1.49-2.19c-6.5,1.67-13.29,3.56-19.31,6.56-.71.35-5.15,2.79-5.05,3.41,1.17,1.28,2.7,2.21,4.23,3.03,7.53,4.07,17.97,7.23,26.52,5.33,1.38-.31,2.7-.81,4.03-1.26-.84-2.85-5.85-1.64-3.85-5.46.36-.68,1.95-2.5,2.04-2.87.12-.49-.67-1.07-.29-1.45.65-.63.93.54,1.16.62,1.03.36,2.77-1.08,2.45-2.1-.26-.84-1.77-.09-1.95-.74-.08-.32.17-.48.17-.65,0-.17-.48-1.04-.52-1.56-.08-.95.32-1.8.23-2.68-.16-1.51-1.79-1.77-2.9-2.34-.75-.39-.97-.91-1.95-.84-.76.06-1.4.47-2.06.78M38.04,48.5l-.94,1.29M88.94,57.3l-6.58,3.63c-18.53,9.59-40.01,14.83-60.38,7.64-4.89-1.73-10.21-4.02-13.82-7.81-.08.99.14,2.05.31,3.03,1.76,9.89,6.11,15.23,15.35,18.99,13.46,5.47,26.76,3.93,40.36-.11,5.44-1.62,12.57-4.07,16.95-7.69,5.17-4.27,7.28-11.18,7.8-17.67Z"/>
  <path class="cls-1" d="M38.26,73.78c1.03.51,1.39,1.59,2.49,2.15,1.77.9,2.61.16,4.13.44,1.63.31,2.66,1.89,4.63,2.05,1.01.08,1.82-.35,2.78-.43,1.83-.14,2.89.78,4.57,1,.41.05,1.48-.2,1.26.59-.15.55-1.24.46-1.7.4-1.11-.13-2.08-.91-3.24-1-1.38-.11-2.44.6-3.89.44-2.1-.23-3.6-2.16-5.26-2.11-1.58.05-2.12.29-3.66-.45-.71-.35-3.03-1.96-2.47-2.89l.35-.2Z"/>
</svg>