<?xml version="1.0" encoding="UTF-8"?>
<svg id="Layer_1" data-name="Layer 1" xmlns="http://www.w3.org/2000/svg" viewBox="0 0 96 96">
  <defs>
    <style>
      .cls-1 {
        fill: #e2a793;
      }
    </style>
  </defs>
  <path class="cls-1" d="M84.94,76.18h7.93c.12,0,.9.45,1.01.59.72.87.36,2.54-.79,2.83l-89.67.07c-1.3-.06-1.98-1.22-1.54-2.41.2-.53.82-1.08,1.39-1.08h7.78v-40.51c0-1.14,1.76-3.03,2.81-3.44,10.52-5.32,20.69-12.15,31.22-17.36,2.58-1.28,3.36-1.23,5.92.05,10.85,5.46,21.41,12.33,32.19,17.99.62.47,1.74,2.01,1.74,2.77v40.51ZM81.6,76.18v-39.78c0-.13-.3-.61-.43-.74l-32.48-18.13c-1.06-.41-2.7.79-3.69,1.32-9.45,5-19.65,10.52-28.8,16-.52.31-1.79.88-1.79,1.55v39.78h31.85v-7.42c-4.92,3.14-9.88,1.12-13.15-3.21-.8-1.05-2.88-4.51-2.85-5.73.06-2.37,2.29-2.78,4.15-2.99,3.16-.35,6.55-.04,9.34,1.57l2.52,2.35-.07-2.04c-7.23-4.14-6.31-11.59-2.46-17.88.67-1.09,2.05-3.38,3.29-3.69,2.2-.57,3.02.49,4.16,2.04,1.93,2.61,3.92,6.59,4.1,9.86.21,3.93-1.91,7.95-5.45,9.67l-.07,2.04c.59-.59,1.1-1.29,1.76-1.81,2.71-2.12,6.78-2.49,10.09-2.12,1.83.2,4.11.65,4.15,2.99.03,1.45-2.56,5.45-3.57,6.61-3.27,3.78-8.01,5.19-12.44,2.33v7.42h31.85ZM47.94,40.84c-3.12,3.82-5.98,10.4-1.25,14.18,1.5,1.2,2.79.1,3.78-1.17,2.6-3.33,1.02-7.76-.95-10.97-.21-.35-1.29-2.1-1.57-2.04ZM34.18,60.33c1.03,3.05,4.03,6.84,7.64,6.54,2.76-.23,3.12-1.57,1.79-3.82-1.83-3.1-6.28-3.08-9.42-2.72ZM61.96,60.33c-3.19-.34-7.71-.43-9.57,2.72-1.4,2.36-.88,3.65,1.94,3.82,3.71.23,6.26-3.6,7.63-6.54Z"/>
</svg>