<?xml version="1.0" encoding="UTF-8"?>
<svg id="Layer_1" data-name="Layer 1" xmlns="http://www.w3.org/2000/svg" viewBox="0 0 96 96">
  <defs>
    <style>
      .cls-1 {
        fill: #e2a793;
      }
    </style>
  </defs>
  <path class="cls-1" d="M61.57,40.27c2.69,1.68,8.95,2.83,10.72,5.33,2.64,3.73-.7,8.33-5.18,7.4-1.4-.29-9.54-3.81-10.94-4.63-2.2-1.29-2.6-3.72-4.22-5.47l-1.52,9.02c3.61,4.79,8.77,8.29,12.16,13.22.56,6.92,2.85,14.98,3.03,21.79.16,6.15-9.17,8.67-10.77-.06-1.05-5.72-1.06-11.66-2.35-17.35l-8.18-8.19c-.47.36-1.83,9.8-2.58,11.57-1.15,2.68-9.71,14.44-11.91,17.01-1.98,2.32-4.53,3.65-7.43,1.76-2.81-1.83-3.1-4.77-1.55-7.56,2.87-5.18,8.08-10.35,11.09-15.61l6.34-31.17c-.96-.09-3.11,1.3-3.63,2.09-2,3.04-2.67,10.04-5.11,12.69-3.38,3.68-9.05.55-8.08-4.27,2.02-3.91,3.15-11.4,5.55-14.79.6-.84,1.44-1.31,2.27-1.87,2.24-1.52,14.7-9,16.49-9.25,1.95-.27,3.7-.09,5.39.91,3.94,2.34,7.55,13.42,10.41,17.41ZM52.77,57.34c-.8-.85-4.19-4.04-4.32-4.76l4.16-23.18c.19-4.1-3.62-6.73-7.46-5.22l-16.26,9.81c-1.04,1.15-4.28,10.49-4.92,12.56-.56,1.85-1.25,4.64,1.51,5.19,2.46.5,3.09-1.59,3.82-3.36.91-2.21,2.82-9.31,3.88-10.66.22-.28,5.67-3.49,6.05-3.59,1.04-.26,1.4.17,1.43,1.17-.34,4.28-2.65,10.01-2.71,14.13-.03,2.36,1.87,4.2,3.34,5.87,4.04,4.57,8.92,8.51,13.02,13.04l2.87,20.02c1.72,3.46,5.99,2.61,6.5-1.14-1.36-6.47-1.3-13.79-2.66-20.18-.17-.81-.33-1.35-.81-2.05-1.38-2.01-5.5-5.57-7.45-7.65ZM54.8,31.46c-.84-.08-.51-.01-.63.47-.37,1.6-1.42,6.27-1.3,7.63.05.58,2.9,6.02,3.39,6.49,1.91,1.86,8.96,3.36,11.5,5.04,2.46.63,4.35-2.15,2.94-4.22-1.36-2.01-8.25-3.53-10.47-5.1l-5.42-10.31ZM27.69,89.52c3.11-5.65,8.8-11.11,11.81-16.64,1.83-3.36,1.98-9.67,3.07-13.5l-5.4-5.68-3.42,15.65c-3.17,5.27-7.85,10.21-10.93,15.46-2.44,4.16,1.04,7.36,4.86,4.7Z"/>
  <path class="cls-1" d="M49.32,3.56c11.63-1.85,13.5,15.65,2.43,16.74-11.01,1.08-12.67-15.11-2.43-16.74ZM49.97,5.47c-8.15,1.01-6.84,13.35,1.14,12.93,8.89-.46,7.68-14.02-1.14-12.93Z"/>
</svg>