<?xml version="1.0" encoding="UTF-8"?>
<svg id="Layer_1" data-name="Layer 1" xmlns="http://www.w3.org/2000/svg" viewBox="0 0 96 96">
  <defs>
    <style>
      .cls-1 {
        fill: #e2a793;
      }
    </style>
  </defs>
  <path class="cls-1" d="M4.47,22.6c.57-.49.86-.84,1.7-.68v-11.48c.05-.77.52-1.19,1.27-1.28,1.47-.17,3.95.3,5.23-.04,1.5-.4,4-3.12,5.86-3.32l42.3-.04c1.45.13,1.76,1.87.43,2.48l-41.92.08c-1.85.45-3.26,2.02-5.02,2.72v10.88h67.34v-10.88l-4.72-2.68-10.5-.04c-1.29-.48-1.3-2.05,0-2.54,3.41.3,7.55-.42,10.86.01,2.15.28,4.38,2.91,6.01,3.35,1.37.36,5.02-.4,5.99.3.17.12.29.28.39.46l.13,12.03c.98-.16,1.59.31,1.71,1.27l-.09,19.47c-.43.6-.86.8-1.61.68l-.03,12.46c-.27.83-.99,1.24-1.83.88-.08-.04-.68-.63-.68-.68v-7.06h-2.89v41.32h2.89v-29.33c0-.06.58-.57.72-.64.91-.4,1.76.19,1.83,1.14-.13,10.24.25,20.57-.19,30.76l-.66.61h-6.46c-.32-.16-.85-.98-.85-1.28v-9.27H14.33v9.27c0,.29-.53,1.11-.85,1.28h-6.46c-.5-.38-.91-.74-.86-1.44v-48.05c-.83.16-1.12-.19-1.69-.68v-20.07ZM11.61,11.72h-2.89v10.2h2.89v-10.2ZM87.28,11.72h-2.89v10.2h2.89v-10.2ZM88.98,24.47H7.02v16.32h10.12c1.09,0,1.09,2.55,0,2.55h-8.42v2.89h78.56v-2.89H22.24c-1.09,0-1.09-2.55,0-2.55h66.74v-16.32ZM11.61,48.96h-2.89v41.32h2.89v-41.32ZM81.67,48.96H14.33v25.17h67.34v-25.17ZM81.67,76.68H14.33v2.89h67.34v-2.89Z"/>
  <path class="cls-1" d="M49.39,29.71c.04.06.86.38,1.16.62,2.37,1.93,1.84,5.72-.96,6.87-4.17,1.71-7.62-3.51-4.41-6.62.34-.33,1.38-.8,1.42-.87.27-.42.05-2.27,1.61-1.98,1.24.23.92,1.58,1.18,1.98ZM47.44,32.16c-1.19.35-1.19,2.72.5,2.81,2.14.11,1.86-3.51-.5-2.81Z"/>
  <path class="cls-1" d="M33.57,29.72c.03.06.86.38,1.17.62,3.5,2.78.44,8.45-3.91,6.97-2.81-.96-3.59-4.65-1.46-6.72.34-.33,1.38-.8,1.42-.87.11-.18.03-.86.3-1.32.67-1.15,2.08-.69,2.42.45.08.27-.04.7.06.87ZM33.32,32.51c-.8-.95-2.68-.39-2.51,1.23.26,2.44,4.12.68,2.51-1.23Z"/>
  <path class="cls-1" d="M65.2,29.71c.04.07,1.02.51,1.33.79,2.16,1.96,1.56,5.59-1.13,6.7-4.13,1.7-7.57-3.43-4.49-6.53.38-.38,1.46-.88,1.51-.96.1-.16,0-.72.16-1.12.5-1.22,2.05-1.13,2.48.15.1.3.06.82.14.96ZM63.25,32.16c-1.48.35-1.01,3.07.74,2.78,1.81-.3,1.62-3.34-.74-2.78Z"/>
  <path class="cls-1" d="M17.34,28.09c.47.47.28,1.4.42,1.63.03.05.81.33,1.08.54,2.59,2.03,1.88,6.14-1.24,7.09-4.18,1.27-7.09-3.99-3.95-6.84.3-.27,1.28-.74,1.33-.8.18-.25.05-1,.45-1.5.47-.59,1.4-.63,1.92-.11ZM15.81,32.16c-1.22.36-1.09,2.54.38,2.78,2.2.36,2.24-3.56-.38-2.78Z"/>
  <path class="cls-1" d="M81.02,29.71c.05.07,1.09.57,1.41.88,3.06,2.96-.05,8.12-4.17,6.72-2.91-.99-3.66-4.89-1.28-6.89.35-.29,1.22-.64,1.25-.7.27-.46-.15-2.1,1.46-2.01,1.32.07,1.03,1.59,1.33,2ZM79.07,32.16c-1.5.36-1.03,3.07.74,2.78,1.81-.3,1.62-3.34-.74-2.78Z"/>
</svg>