<?xml version="1.0" encoding="UTF-8"?>
<svg id="Layer_1" data-name="Layer 1" xmlns="http://www.w3.org/2000/svg" viewBox="0 0 96 96">
  <defs>
    <style>
      .cls-1 {
        fill: #e2a793;
      }
    </style>
  </defs>
  <path class="cls-1" d="M43.97,67.39c4.18-.25,8.53-1.6,12.72-1.36,9.51.54,19.03,2.67,28.57,3.11,3.63.33,6.08,2.68,5.43,6.49-.43,2.54-2.82,3.5-4.96,4.27.28,4.06,6.68.68,7.68,2.96.27.62.27,9.18,0,9.8-.12.27-.47.51-.7.7H3.57c-.23-.19-.58-.44-.7-.7-.26-.59-.3-8.07-.16-9.12.12-.93.6-1.42,1.54-1.54,3.57-.46,7.93.52,11.58-.17l5.91-7.57c.08-1.02-9.48-9.86-10.9-11.44-1.89-2.11-3.44-3.77-2.32-6.82,1.14-3.11,4.92-4.25,7.63-2.42l11.99,12.15c.67.18,1.77-1.62,2.48-2.2,4.78-3.92,11.36-1.72,13.35,3.88ZM16.91,59.12c-.78-.79-2.39-2.84-3.42-2.91-1.39-.09-2.29,1.47-1.49,2.62l11.58,11.97c.89.98,2.62-1.74,2.27-2.53-3.11-2.93-5.96-6.12-8.95-9.16ZM39.63,66.69c-1.81-1.89-4.33-2.2-6.49-.66-1.01.72-3.43,3.13-.84,3.11,1.49-.01,5.08-.62,6.66-.93.48-.1.99-.23,1.33-.63-.3-.23-.41-.62-.66-.88ZM86.77,75.76c.17-.14.6-1.17.58-1.42-.19-2.18-4.2-1.68-5.69-1.87-7.86-.97-18.78-3.02-26.41-2.98-3.37.02-7.07,1.21-10.47,1.29v3.09c3.74.02,7.65-1.26,11.37-1.13,8.57.3,18.22,2.31,26.91,3.09.81.07,3.18.36,3.71-.07ZM28.27,71.67l-1.39,2.3,2.37,2.07,11.43-1.36c.75-.23.64-3.15.05-3.25-3.51.32-7.03,1.39-10.54,1.21l-1.3-.95h-.61ZM44.78,77.52v4.07l.97.43,17.67-.02c1.18-.23,2.08-3.3,2.68-4.33-7.06-1.84-14.17-1.27-21.32-.15ZM20.67,82.01h20.05c.86-.97.25-2.68.42-3.93-2.69.13-5.34.83-7.99,1.12-3.59.38-6.34.79-8.69-2.51-.42.72-4.3,4.82-3.79,5.32ZM68.33,82.01h13.88l.4-.67-1.49-2.16-10.71-1.36c-.74.01-2.41,3.85-2.08,4.19ZM90.21,90.14v-4.35H6.08v4.35h84.12Z"/>
  <path class="cls-1" d="M93.22,21.94c-1.86,1.85-5.32-2.7-6.87-2.97-1.15-.21-3.49.86-4.97.81-2.75-.09-6.66-2-9.57-2.22-1.46.45-4.51,3.77-5.86,3.62l-5.88-4.65c-5.46.02-9.58,3.7-14.35,5.75-1.64.11-3.95-2.8-5.57-3.36-1.32.51-3.16,2.01-4.5,2.22-1.81.29-3.7-.64-5.28-.53-1.28.09-3.03,1.3-4.37,1.55-3.02.55-7.4-1.99-10.81-1.85-1.67.07-4.25,2.57-6.15,2.26-.68-.11-6.09-3.5-6.27-4.12l-.05-14.52c.13-.7.81-1.28,1.52-1.28l88.05.02c.7.13,1.28.81,1.28,1.52-.36,5.28.44,11.08,0,16.29-.04.43-.05,1.15-.36,1.46ZM14.78,6.02H6.08v10.51l3.5,2.27c1.7-.32,3.36-1.94,5.09-2.04,3.32-.18,8.61,2.28,11.11,1.8,1.19-.23,3.16-1.55,4.29-1.6,2.13-.09,4.58,1.56,6.57-.16-.83-1.16-3.17-1.34-3.03-3.01.1-1.13.93-1.71,2.05-1.64,2.33.15,9.29,6.19,10.09,6.19,3.67-1.8,7.28-4.38,11.36-5.04-.96-2.16.44-4.19,2.67-2.81,1.11.69,3.37,3.87,4.75,5.06.55.48,1.17.88,1.73,1.36.64.11,3.58-3,5.01-3.07,2.43-.11,7.04,2.04,9.81,2.26,2.15.17,4.45-1.16,6.16-.83,1,.19,1.79,1.82,2.95,1.68V6.02h-24.11c.26,1.57,4.05,5.11,1.39,6.31-2.93,1.32-4.26-5.91-6.31-6.3l-27.17-.02c-.41.07-.55,6.4-3.68,4.52-1.56-.94-.07-3.16-.12-4.5h-9.11c-1.34.88-7.28,6.88-7.71,2.64-.16-1.64,1.03-1.42,1.4-2.64Z"/>
  <path class="cls-1" d="M26.36,51.64c-.5-.69-.55-7.88-.31-8.97.44-2,3.18-1.95,3.57.52.18,1.17.2,6.42-.04,7.49-.32,1.45-2.32,2.19-3.22.96Z"/>
  <path class="cls-1" d="M14.39,27.96c.92-.1,1.67.54,1.8,1.46.11.83.12,5.49-.07,6.13-.43,1.45-3.08,1.63-3.32-1.05-.14-1.61-.56-6.3,1.59-6.53Z"/>
  <path class="cls-1" d="M64.62,46.33c-.74.78-2.6.78-2.96-.4-.17-.57-.17-5.14-.05-5.83.31-1.66,2.87-1.71,3.3-.23.23.79.18,5.96-.29,6.46Z"/>
  <path class="cls-1" d="M47.5,51.78c.98-.29,2.12.14,2.32,1.21.14.74.14,4.29,0,5.03-.32,1.72-3.02,1.74-3.35,0-.24-1.27-.38-5.82,1.03-6.24Z"/>
  <path class="cls-1" d="M42.17,36.64c1.15-.35,2.28.03,2.55,1.27.42,1.9.39,6.77-2.75,5.27-1.24-.59-1.32-6.07.2-6.53Z"/>
  <path class="cls-1" d="M37.41,25.69c2.89-.78,2.93,5.34,1.63,6.42-3.27,2.7-4.1-5.75-1.63-6.42Z"/>
  <path class="cls-1" d="M77.79,22.06c1.24-.37,2.1.26,2.31,1.5.12.7.13,3.51-.04,4.13-.41,1.42-3.06,1.4-3.31.06-.22-1.23-.35-5.28,1.04-5.69Z"/>
  <path class="cls-1" d="M85.33,39.18c2.31-.25,2.04,4.17,1.72,5.61-.38,1.74-3.01,1.31-3.29-.23-.26-1.41-.4-5.17,1.57-5.39Z"/>
  <path class="cls-1" d="M56.49,24.59c.67.67.98,5.66-1.43,5.48-2.03-.15-1.87-3.53-1.47-5.01.28-1.01,2.3-1.06,2.89-.47Z"/>
  <path class="cls-1" d="M11.04,70.04c1.47,2.03-.53,6.77-2.72,4.27-2.11-2.4.96-6.7,2.72-4.27Z"/>
  <path class="cls-1" d="M73.3,53.46c2.89-.89,2.89,3.96,1.76,4.85-2.97,2.34-3.81-4.22-1.76-4.85Z"/>
  <path class="cls-1" d="M85.91,11.27c-.59.79-7.01,2.53-8.17,2.31-.32-.06-5.02-2.51-5.34-2.79-1.28-1.1-.82-2.97.84-3.11,1.68-.15,3.8,2.11,5.36,2.27,1.8.18,6.82-3.09,7.57-.28.12.45.01,1.25-.25,1.6Z"/>
  <path class="cls-1" d="M20.03,11.14c.45.48.42,1.52.17,2.11-.5,1.16-6.83,1.37-8.1,1.2-1.44-.2-5.53-3.24-3.7-4.99,1.63-1.55,3.6,1.45,4.86,1.61,1.65.2,5.53-1.24,6.77.07Z"/>
  <path class="cls-1" d="M42.34,10.03c1.41-1.15,3.02.69,4.27.64.81-.03,3.31-2.33,4,.03.59,1.99-1.48,2.98-3.11,3.51-1.94.63-7.89-1.97-5.16-4.19Z"/>
  <path class="cls-1" d="M27.87,11.16c1.25.91.51,3.02-.91,3.28-.37.07-3.96-.28-4.35-.41-1.86-.57-1.67-3.07.22-3.47.59-.12,4.64.31,5.04.6Z"/>
</svg>