<?xml version="1.0" encoding="UTF-8"?>
<svg id="Layer_1" data-name="Layer 1" xmlns="http://www.w3.org/2000/svg" viewBox="0 0 96 96">
  <defs>
    <style>
      .cls-1 {
        fill: #e2a793;
      }
    </style>
  </defs>
  <path class="cls-1" d="M2.59,47.62c.8-2.3,2.72-1.77,4.65-2.1,1.92-.33,3.68-1.12,5.18-2.35.84-.69,1.56-1.95,2.74-2.06,1.88-.17,2.45,1.33,3.69,2.3,3.91,3.08,9.92,3.08,13.83,0,1.12-.88,1.72-2.28,3.35-2.31,1.51-.03,1.92,1.11,2.91,1.89,3.5,2.76,7.71,3.59,11.93,1.85.68-.28,3.08-1.64,3.2-2.27v-26.35c1.73-16.18,24.54-15.89,25.85.34l.08,26.27c1.47,1.39,3.49,2.39,5.49,2.72,1.42.23,3.21-.17,4.18,1.13,1.16,1.55.31,3.9-1.64,4.18-2.54.36-5.79-.73-8.11-1.7v6.76c12.53,10.6,8.15,31.09-7.87,35.25l-2.91.6h-4.28c-1.88-.37-3.68-.74-5.47-1.46-14.21-5.73-16.98-24.6-5.31-34.39v-6.76c-5.92,2.76-12.81,2.2-18.05-1.71-5.97,4.62-14.55,4.59-20.53,0-2.59,1.78-5.56,3.16-8.75,3.4-1.91.15-3.34.1-4.17-1.86v-1.37ZM69.66,45.4c1.13-.08,4.75-1.75,4.96-2.83V15.88c-1.93-9.55-15.21-8.19-15.39,1.54v24.98c.22,1.11,3.95,2.96,5.13,3v-25.07c0-.3.69-1.35.97-1.6.71-.62,1.7-.7,2.6-.43.7.22,1.74,1.48,1.74,2.2v24.9ZM59.22,49.16v8.98c0,.36-3.45,3.34-4.01,4.04-7.25,8.99-1.7,22.56,9.59,24.26,13.56,2.04,22.55-13.98,13.75-24.52-.95-1.13-3.93-3.13-3.93-4.45v-8.3c-1.59.69-3.21,1.31-4.94,1.56l-.03,12.4c-.03.74.78.66,1.26.96,9.46,5.76,2.61,18.79-6.78,15.5-6.43-2.25-7.59-11.24-1.89-14.99.65-.43,2.03-.76,2.12-1.47l-.03-12.4-5.12-1.56ZM66.54,68.37c-4.15.51-3.48,7.04.97,6.44,4.02-.54,3.43-6.98-.97-6.44Z"/>
  <path class="cls-1" d="M28.04,11.05c2.55-.53,4.25,1.72,2.93,3.95-.29.5-.81.85-1.09,1.48-1.6,3.62,1.74,4.87,2.85,7.75,1.22,3.16.63,8.02-2.17,10.21-1.56,1.22-3.92.47-4.29-1.53-.32-1.71,1-2.17,1.55-3.43,1.49-3.39-1.39-4.6-2.6-7.15-1.2-2.52-1.25-5.48-.08-8.02.43-.94,1.85-3.05,2.9-3.26Z"/>
  <path class="cls-1" d="M13.77,34.39c-.23-.21-.6-.81-.67-1.12-.57-2.34,1.06-2.51,1.6-4.24,1.03-3.33-1.86-4.43-2.95-7.07-1.31-3.18-.92-6.83,1.28-9.49,1.16-1.4,3-2.29,4.44-.69,2.09,2.32-.81,3.62-1.16,5.34-.65,3.22,1.41,3.85,2.67,6.15,1.75,3.2,1.39,7.47-.92,10.3-1.08,1.33-2.85,2.16-4.29.81Z"/>
  <path class="cls-1" d="M41.38,11.05c2.1-.44,3.72,1.1,3.22,3.22-.27,1.14-1.59,1.76-1.79,3.34-.38,2.93,1.82,3.71,2.92,5.94,1.61,3.27,1.08,9.13-2.26,11.15-1.75,1.06-4.04-.35-3.94-2.38.07-1.39,1.54-2.17,1.81-3.5.6-2.96-.86-3.34-2.19-5.36-1.53-2.32-1.93-4.95-1.24-7.65.36-1.42,1.91-4.43,3.46-4.75Z"/>
  <path class="cls-1" d="M33.02,57.07c9.96-.24,10.68,14.94.64,15.54-10.33.61-10.99-15.28-.64-15.54ZM32.49,62.38c-3.36.69-1.62,6.49,1.85,4.76,2.69-1.34,1.3-5.41-1.85-4.76Z"/>
  <path class="cls-1" d="M9.84,71.46c6.79-6.71,17.56,2.83,11.49,10.38-6.81,8.48-19.18-2.78-11.49-10.38ZM17.08,78.88c2.39-2.39-1.14-5.97-3.52-3.78-2.62,2.43,1.19,6.1,3.52,3.78Z"/>
</svg>