<?xml version="1.0" encoding="UTF-8"?>
<svg id="Layer_1" data-name="Layer 1" xmlns="http://www.w3.org/2000/svg" viewBox="0 0 96 96">
  <defs>
    <style>
      .cls-1 {
        fill: #e2a793;
      }
    </style>
  </defs>
  <path class="cls-1" d="M23.89,56.91c-9.4-.97-16.75-8.81-16.41-18.34,8.19-2.34,13.73,1.06,18.06,7.8,2.26-7.36,10.05-9.84,16.96-7.8.77,9.55-7.09,17.49-16.4,18.34v9.43c4.28.06,7.6-3.73,8.4-7.69l23.96-.1c1.43,3.94,4.03,7.82,8.68,7.79v-9.43c-9.4-.85-17.14-8.76-16.4-18.34,7.17-2.09,14.41.66,17.23,7.8,1.52-2.65,6.22-8.32,9.43-8.32h8.04c1.34,9.59-6.69,17.93-16.08,18.86v9.43c4.85-.27,6.85-3.79,8.6-7.76h13.03v20.8l-.83.83H3.1l-.83-.83v-20.8h13.03c1.75,3.98,3.75,7.5,8.6,7.76v-9.43ZM23.89,54.14c.22-8.35-5.08-14.99-13.87-13.87.05,7.23,6.6,13.82,13.87,13.87ZM39.98,40.27c-9.02-1.17-13.68,5.65-13.87,13.87,7.18.26,14.25-6.56,13.87-13.87ZM67.15,54.13c-.32-8.68-5.06-15.14-14.42-13.86,1.05,7.29,6.53,14.11,14.42,13.86ZM83.24,40.27c-8.58-1.16-14.38,5.6-13.87,13.87,7.26-.05,13.82-6.64,13.87-13.87ZM13.91,60.79H4.48v17.19h84.3v-17.19h-9.15c-4.28,10.64-18.62,11.08-22.55.09l-20.62-.11c-4.13,10.69-18.74,11.04-22.56.02Z"/>
  <path class="cls-1" d="M79.36,5.88c1.34,9.88-4.56,11.6-13.06,11.12-7.64-.44-10.01-3.42-9.68-11.12h-19.97c.33,7.7-2.04,10.68-9.68,11.12-8.49.49-14.4-1.24-13.06-11.12H3.1l-.83-1.38.83-.84h87.08l.83.84-.83,1.38h-10.82ZM33.88,5.88h-17.75c-1.76,9.65,5.88,9,13.06,8.35,5.28-.48,4.82-3.93,4.69-8.35ZM77.14,5.88h-17.75c-.14,4.42-.59,7.86,4.69,8.35,7.21.66,14.7,1.24,13.06-8.35Z"/>
  <path class="cls-1" d="M28.4,85.82c2.2-.14,3.09,2.11,5.27,3.18,5.6,2.75,8.9.22,13.17-3.22,3.69,3.95,8,5.84,13.14,3.04,1.56-.85,3.25-3.34,4.65-3.12.41.07.57,1.23,1.13,1.7,5.74,4.82,10.53,2.73,15.55-1.68,1.22,0,2.71,2.59,3.96,3.27,1.3.71,6.08.99,5.75,2.56-.77,3.63-9.17-2.51-9.7-2.51-.54,0-3.57,2.53-5.37,2.97-4.86,1.18-7.98-.24-11.91-2.86-4.3,2.92-8.34,4.49-13.5,2.4-1.13-.46-3.33-2.52-4.06-2.41-.64.1-2.53,1.94-3.71,2.4-3,1.18-6.44,1.21-9.42,0-1.18-.48-3.24-2.48-4.07-2.4-2.13.2-4.23,3.57-9.54,3.26-3.4-.2-7.13-3.38-7.75-3.38-.91,0-7.35,5.65-9.43,2.8-1.31-1.79,4.2-2.15,5.48-2.85,1.2-.66,2.57-2.95,3.51-3.19,1.27-.33,3.27,2.37,4.95,3.2,4.48,2.2,9.47,1.12,11.92-3.18Z"/>
  <path class="cls-1" d="M74.09,18.64c1.97-.53,3.76,4.57,2.21,4.98-1.97.53-3.76-4.57-2.21-4.98Z"/>
  <path class="cls-1" d="M56.06,31.39c.72-7.45,6.22-5.48,1.68.31l-1.68-.31Z"/>
  <path class="cls-1" d="M18.1,18.67c3.08-1.02,1.08,5.55-1.13,4.96-1.65-.44.53-4.76,1.13-4.96Z"/>
  <path class="cls-1" d="M15.45,31.25c-2.31,2.88-3.01-4.37.4-4.85,1.5.32.08,4.25-.4,4.85Z"/>
  <path class="cls-1" d="M34.72,26.41c1.46-.35,3.44,5.47,1.1,5.53-.62.02-3.67-4.92-1.1-5.53Z"/>
  <path class="cls-1" d="M77.82,31.25c-.48-.6-1.89-4.53-.4-4.85,3.41.48,2.71,7.73.4,4.85Z"/>
  <path class="cls-1" d="M31.67,23.63l-1.12-4.98c1.5-1.49,5.79,5.66,1.12,4.98Z"/>
  <path class="cls-1" d="M62.72,18.64c.24.23-.48,5.94-2.49,4.98-2.26-.92,1.13-6.33,2.49-4.98Z"/>
  <path class="cls-1" d="M67.16,18.64l1.69.24.43.67c.69,7.4-3.16,5.07-2.13-.92Z"/>
  <path class="cls-1" d="M24.73,18.64c1.96-.41,1.82,5.27.54,5.54-1.96.41-1.82-5.27-.54-5.54Z"/>
  <rect class="cls-1" x="23.9" y="27.51" width="2.21" height="5"/>
  <polygon class="cls-1" points="69.37 32.51 67.16 32.51 67.16 27.51 68.85 27.76 69.29 28.43 69.37 32.51"/>
</svg>