<?xml version="1.0" encoding="UTF-8"?>
<svg id="Layer_1" data-name="Layer 1" xmlns="http://www.w3.org/2000/svg" viewBox="0 0 96 96">
  <defs>
    <style>
      .cls-1 {
        fill: #e2a793;
      }
    </style>
  </defs>
  <path class="cls-1" d="M48.72,16.73v3.08h26.15c.32,0,1.79.68,2.17.9,4.81,2.74,4.74,10.03-.24,12.63-.41.21-2.09.9-2.41.9h-10.53v2.84c7.73-.19,14.31-.48,20.9,4.07,16.54,11.4,10.46,37.26-9.08,40.53-.41.29-.17,2.1-.28,2.79-.28,1.72-2.27,3.4-4.07,3.26l-47.52-.07c-1.41-.24-2.96-1.78-3.19-3.19-.11-.7.13-2.5-.28-2.79-17.65-2.99-24.96-24.8-12.32-37.86,6.63-6.85,15.11-7.15,24.15-6.74v-2.84h-10.53c-.32,0-2-.69-2.41-.9-4.97-2.6-5.06-9.9-.24-12.63.39-.22,1.85-.9,2.17-.9h18.81v-7.69c0-.08.44-1.4.53-1.6.56-1.22,1.49-1.8,2.71-2.26h11.97c.3.08.58.44.69.72.29.7.31,5.52.17,6.43-.05.35-.55,1.32-.81,1.32h-6.51ZM52.98,11.05h-9.11c-.06,0-.83.77-.83.83v7.93l2.74-.22c.43-1.11-.62-5.69,1.17-5.69h6.03v-2.84ZM21.68,22.7c-4.99,1.5-4.11,8.5,1.13,8.7h50.64c5.39-.58,5.66-7.74.47-8.75l-52.24.06ZM61.03,34.24h-26.03v2.84h26.03v-2.84ZM23.11,39.99c-24.6,1.88-24.92,37.76,1.1,39.22,16.41.92,33.91-.49,50.39-.28,23.41-3.97,21.95-37.58-2.33-39.03-16.05.85-33.25-1.14-49.16.08ZM72.62,82.05H23.4c0,.89-.21,2.22.77,2.66l47.52.07c1.14-.37.95-1.78.93-2.74Z"/>
  <path class="cls-1" d="M21.68,43.06l51.77-.08c19.59,2.19,20.12,30,.67,33.11l-51.81.04c-19.31-2.51-19.82-29.82-.64-33.07ZM46.59,45.84h-24.49c-5.59,0-11.16,6.95-11.69,12.22-.66,6.62,4.84,15.24,11.92,15.24h24.26v-27.45ZM49.43,73.29h24.49c.79,0,3.86-1.24,4.69-1.7,9.46-5.27,9.34-19.27-.3-24.22-.82-.42-3.61-1.53-4.38-1.53h-24.49v27.45Z"/>
  <path class="cls-1" d="M46.25,25.54c1.74-.4,5.52-.44,4.45,2.32-.38.64-4.2.63-4.85.35-1.15-.51-.89-2.37.4-2.67Z"/>
  <path class="cls-1" d="M45.44,28.03c-.3-.3-.38-1.26-.25-1.67.41-1.38,6.8-1.6,5.52,1.25-.47,1.04-4.76.93-5.27.42Z"/>
  <path class="cls-1" d="M47.56,25.53c1.71-.5,2.66,2.27,1.09,2.75-2.4.74-2.7-2.28-1.09-2.75Z"/>
  <path class="cls-1" d="M47.61,25.52c2.23-.61,2.7,3.66-.24,2.76-1.28-.4-.86-2.46.24-2.76Z"/>
  <path class="cls-1" d="M47.69,25.52c1.9-.36,2.35,2.3.84,2.75-2.19.65-2.65-2.41-.84-2.75Z"/>
  <path class="cls-1" d="M52.21,58.19c2.88-.35,1.92,3.21,1.36,4.92-.97,2.95-3.79,5.77-6.74,6.74-1.42.47-5.41,1.48-4.96-1.16.24-1.4,3.12-1.25,4.42-1.75,2.1-.8,4.02-2.89,4.65-5.05.3-1.02.13-3.37,1.28-3.7Z"/>
  <path class="cls-1" d="M46.12,58.2c.99-.22,4.14-.32,4.63.72,1.3,2.78-4.76,2.4-5.37,1.58-.59-.79-.28-2.07.75-2.3Z"/>
  <path class="cls-1" d="M53.8,51.23c-.34.34-2.85.51-3.63.75-2.1.66-4.09,2.54-4.88,4.59-.54,1.39-.34,4.41-1.96,4.44-2.73.04-1.12-4.77-.48-6.17,1.52-3.31,5.97-6.39,9.71-6.18,1.46.08,2.12,1.7,1.24,2.57Z"/>
  <path class="cls-1" d="M46.15,58.19c1.37-.32,6.02-.36,4.52,2.15-.53.88-4,.87-4.87.47-1.16-.53-.95-2.31.35-2.61Z"/>
</svg>