<?xml version="1.0" encoding="UTF-8"?>
<svg id="Layer_1" data-name="Layer 1" xmlns="http://www.w3.org/2000/svg" viewBox="0 0 96 96">
  <defs>
    <style>
      .cls-1 {
        fill: #e2a793;
      }
    </style>
  </defs>
  <path class="cls-1" d="M44.79,6.1c35.73-2.26,58.37,37.85,36.95,66.83-17.92,24.25-54.73,22.29-70.04-3.63C-4,42.72,14.07,8.05,44.79,6.1ZM45.83,10.08C15.55,11.84-.8,46.89,17.82,71.13c16.55,21.54,49.7,19.19,63.12-4.36,14.86-26.07-5.33-58.43-35.12-56.7Z"/>
  <path class="cls-1" d="M30.28,31.48c2.12-.08,4.07,1.73,4.19,3.83l-.02,25.72c-.58,4.43-7.69,5.23-8.11-1.19-.51-7.85.38-16.25.03-24.16.1-2.2,1.6-4.12,3.91-4.21Z"/>
  <path class="cls-1" d="M65.33,31.48c2.83-.11,4.03,2.23,4.19,4.69.51,7.85-.38,16.25-.03,24.16-.24,5.34-7.4,5.6-8.1.37l.02-25.72c.32-1.88,1.98-3.44,3.92-3.51Z"/>
  <rect class="cls-1" x="36.37" y="44.04" width="23.14" height="7.94"/>
  <path class="cls-1" d="M24.45,37.82v20.37c-2.35-.27-3.79-2.35-3.45-4.66-2.1.63-2.97-.31-3.11-2.32-.1-1.38-.17-6.85.29-7.85.55-1.19,1.7-1.24,2.83-.88-.34-2.31,1.1-4.39,3.45-4.66Z"/>
  <path class="cls-1" d="M71.42,37.82c2.35.27,3.79,2.35,3.45,4.66,1.13-.36,2.28-.31,2.83.88.46.99.38,6.47.29,7.85-.15,2.01-1.02,2.95-3.11,2.32.34,2.31-1.1,4.39-3.45,4.66v-20.37Z"/>
</svg>