<?xml version="1.0" encoding="UTF-8"?>
<svg id="Layer_1" data-name="Layer 1" xmlns="http://www.w3.org/2000/svg" viewBox="0 0 96 96">
  <defs>
    <style>
      .cls-1 {
        fill: #e2a793;
      }
    </style>
  </defs>
  <path class="cls-1" d="M64.5,59.8c.37.26,2.42.63,3.15.91,1.76.69,3.17,1.96,5,2.55,7.8,2.51,10.42-3.86,17.36-3.6,3.05.11,3,3.77.36,4.14-2.08.29-3.05.14-5.11,1.11-4.33,2.05-5.92,3.59-11.26,2.84-6.16-.87-9-6.24-16.21-3.16-4.77,2.04-6.07,3.98-12.07,3.16-4.04-.55-6.62-3.59-10.21-3.94-7.06-.69-9.74,5.07-17.89,3.94-3.99-.55-6.6-3.43-10.04-3.92-1.07-.15-2.44.25-3.28-.73-1.95-2.27,1.27-4.29,3.48-3.26l26.05-15.27c-1.92-4.69-6.38-8.46-4.35-13.96,1.18-3.19,3.63-4.24,6.44-5.63,8.03-4,16.65-8.1,24.83-11.75,3.31-1.48,5.59-2.67,9.12-.57,3.58,2.13,4.34,7.12,1.83,10.39-1.86,2.43-10.33,5.88-13.47,7.46-3.41,1.72-6.79,3.52-10.18,5.28l16.46,23.99ZM59.54,59.85l-15.05-22.01c-1.36-2.06-.33-4.81,1.79-5.87l21.92-11.09c1.99-1.91.51-5.36-2.15-5.36-.98,0-3.61,1.42-4.69,1.91-8.18,3.72-17.15,7.75-25.08,11.88-1.84.96-3.43,1.96-3.31,4.38.13,2.57,4.02,6.85,4.84,9.51,1.04,3.38-1.5,4.59-3.85,6.04-6.79,4.19-13.85,7.98-20.68,12.1l-.12.39c2.55,1.42,4.82,2.34,7.82,2.07,3.56-.31,5.79-2.81,9.15-3.67,9.13-2.35,11.66,4.14,18.77,3.68,4.08-.26,6.63-3.46,10.65-3.97Z"/>
  <path class="cls-1" d="M5.12,72.15c1.28-.29,3.34.05,4.62.39,3.85,1.02,5.61,3.64,10.08,3.65,4.74,0,6.56-2.96,10.62-3.8,3.02-.62,6.53-.39,9.38.82,2.11.9,3.61,2.41,6.05,2.81,6.57,1.09,8.84-3.46,14.66-3.92,5.97-.47,6.9,1.54,11.61,3.3,7.62,2.85,9.9-2.74,16.12-3.29,1.23-.11,3.06-.26,3.75.96.66,1.16.08,2.32-1.01,2.92-1.39.13-2.77.19-4.12.6-1.79.54-3.39,1.91-5.14,2.6-2.12.83-4.61,1.21-6.88,1.04-6.94-.51-9.83-6.77-17.83-2.93-4.15,2-5.5,3.35-10.64,2.93-5.01-.41-7.66-4.26-12.84-4.16-4.53.1-7.33,3.77-12.06,4.16-5.4.44-6.6-.97-10.9-3.05-1.94-.93-3.78-.95-5.86-1.31-1.51-.85-1.28-3.33.39-3.71Z"/>
  <path class="cls-1" d="M58.24,53.37c-6.73,6.73-18.19,5.09-22.79-3.2-6.97-12.58,6.84-26.47,19.46-19.65,8.38,4.53,10.09,16.08,3.33,22.85ZM46.57,32.94c-12.87,1.56-11.23,22.07,2.94,20.48,12.74-1.42,11.25-22.2-2.94-20.48Z"/>
</svg>