<?xml version="1.0" encoding="UTF-8"?>
<svg id="Layer_1" data-name="Layer 1" xmlns="http://www.w3.org/2000/svg" viewBox="0 0 96 96">
  <defs>
    <style>
      .cls-1 {
        fill: #e2a793;
      }
    </style>
  </defs>
  <path class="cls-1" d="M1.68,54.04c.18-.21.7-.86.94-.86h11.93v-7.64c-1.21-1.89-3.88-3.24-4.52-5.44-1.08-3.72,2.32-7.24,6.1-6.1,1.52.46,2.39,1.64,3.48,2.7,2.11-2.91,6.1-4.27,8.66-1.11,3.21,3.96-.95,7.22-3.6,9.78v7.81h4.21c.7,0,2.79-.65,3.52-.95.82-.33,2.74-1.71,3.19-1.79,1.12-.2,1.83.49,1.62,1.62-.17.89-3.15,2.33-4.03,2.67-.81.31-3.02,1.03-3.78,1.03h-4.72v15.45c4.22-2.46,9.86-.39,11.58,4.12.25.66.32,1.6.52,2.05.14.31,1.35,1.37,1.76,2.02,2.07,3.26,1.7,7.12-.82,10h10.81c.06-1.7,1.21-3.42,2.52-4.43.84-.65,1.76-.92,2.6-1.52.26-3.16-.25-6.64.02-9.76.26-3,3.92-5.77,5.67-8.06v-5.92h-7.3c-.21,0-1.08-.58-1.28-.77-.81-.78-3.93-5.25-4.5-6.31-2.01-3.78,1.88-7.4,5.47-5.47,1.67.9,2.42,3.03,3.66,4.41.3.14,3.71.16,4.22.09,1.03-.13,2.27-2.7,3.16-3.36-2.89-2.22-4.45-5.72-3.7-9.36.12-.57.73-1.89.75-2.17.01-.21-.56-.96-.69-1.31-.59-1.6-.39-3.74.24-5.31,1.11-2.73,1.95-1.35,3.91-.73,4.13,1.3,7.84-.51,11.5,2.58,3.09,2.61,3.45,6.65,2.66,10.39-.53,2.52-1.66,4.51-3.62,6.17l1.68,2.45c2.8,1.31,9.59,1.92,10.68,5.12.45,1.33.4,6.24.27,7.81-.33,3.78-4.8,5.35-7.04,2.22-1.21-1.68-.48-3.88-.71-5.81l-2.04-.8-1.22,6.61,1.73,8.59.34.17c3.23,1.43,7.46,2.15,10.56,3.69.95.47,1.36,1.04,1.46,2.15l-3.09,8.58c2.03-.19,4.46.66,2.23,2.66H4.43c-1.08-.36-.84-2.57.09-2.57h10.04v-14.68c0-1.1,2.57-.91,2.57.17v14.5h4.98v-44.89c1.02-1.83,6.64-5.07,3.99-7.47-2.76-2.49-4.73,2.7-6.48,2.76-.93.03-2.35-2.04-3.19-2.66-1.34-.99-3.5-1-3.89.88-.59,2.84,3.84,4.4,4.6,6.82v24.54c-.29,1.73-2.58,1.18-2.58.35v-13.73l-.26-.26H2.46c-.07,0-.54-.64-.77-.69v-1.03ZM74.61,42.86c1-3.38,1.04-7.7-2.5-9.56-2.97-1.56-7.37.05-10.52-1.75-.31,1.15-.32,3.22.69,4.03.75.59,4.06.55,5.54,1.33,2.72,1.42.99,4.02,2.78,5.29,1.1.78,2.73.73,4.01.66ZM73.09,45.46c-2.77.04-5.29-1.22-5.97-4.08-.15-.62.07-1.76-.56-2.18-.4-.27-4.37-.91-4.61-.76-2.15,5.87,4.45,11.37,9.88,8.25.19-.11,1.52-1.01,1.25-1.23ZM59.36,54.38h-4.72c-1.22,0-3.12-4.81-4.5-5.12-1.25-.28-2.18.78-1.63,1.98l4.25,5.88h6.61v-2.75ZM61.93,53.44v11.24h11.16l1.2-6.01c-4.25-.56-5.93-5.18-2.06-7.65l-1.08-1.25c-2.02.65-4.04.51-6.02-.17l-3.2,3.83ZM83.52,56.48l-9.01-3.09c-1.54-.56-2.48,1.48-1.2,2.23,1.69.99,4.97,1.33,6.87,2.23,2.13,1.01.75,4.38,1.19,6.36.33,1.47,2.28,1.2,2.52-.49.18-1.28.15-4.66.02-5.99-.03-.29-.21-1.06-.39-1.24ZM72.4,67.43h-11.24c-.76,1.22-4.89,5.1-4.89,6.27v9.7h3.78v-6.09c0-.44.62-1.15.97-1.43,2.03-1.61,5.39-2.81,7.66-4.35,1.58-1.07,2.89-2.35,3.72-4.09ZM81.67,78.93c-1.69-.61-4.1-1.02-5.67-1.8-2.12-1.06-1.67-4.64-2.4-6.61l-1.98,2.05-3.66,2.52c.66,1.04,1.33,3.73,2.32,4.33l10.01,3.46,1.38-3.95ZM24.68,89.4h7.81c.13,0,1.18-.39,1.4-.48,3.02-1.25,4.25-4.86,2.7-7.73-.51-.95-1.89-1.79-2.2-2.43-.25-.51-.21-1.42-.38-2.02-1.17-4.01-6.51-5.38-9.32-2.18v14.85ZM62.79,77.73v11.67h17.17c-.46-1.33-.57-2.7-.53-4.1-2.91-1-5.96-1.81-8.83-2.93-1.58-.62-2.27-.76-3.2-2.29-.68-1.11-1.13-2.53-1.69-3.72l-2.92,1.37ZM86.82,80.82l-2.74-.85c-.75,2.86-2.63,4.96-1.82,8.07.21.8.47,1.53,1.45,1.35l3.11-8.57ZM60.04,85.97h-5.06c-.07,0-1.13.36-1.29.43-1.12.5-2.3,1.79-2.57,3h8.93v-3.43Z"/>
  <path class="cls-1" d="M46.83,18.67c10.64,4.37,7.77,20.26-3.6,21.12-.09,2.1-.5,4.23-1.29,6.18-.4.99-1.84,4.27-3.26,2.4-.79-1.04.46-2.42.85-3.43.93-2.4.76-3.89,1.13-6.25.26-1.69,3.12-1.48,4.55-1.98,6.24-2.17,7.67-10.72,2.47-14.67-1.09-.83-3.07-1.12-3.66-2.17-1.01-1.79.82-2.85,1.69-4.12,1.71-2.5,2.24-5.42.59-8.11-.57-.92-2.04-1.8-1.25-3.02,1.12-1.71,2.95.78,3.54,1.76,2.58,4.26,1.12,8.67-1.75,12.3Z"/>
  <path class="cls-1" d="M27.21,10.65c.71-.21,1.47.09,1.69.81.55,1.75-2.39,4.08-3.91,4.52-1.27.37-4.69.63-4.61-1.34.08-1.95,3.08-.69,4.65-1.54,1.11-.6,1.5-2.26,2.17-2.46Z"/>
  <path class="cls-1" d="M13.41,21.31c1.02-1.14,2.83.05,1.86,2.12-1.12,2.4-4.8,3.79-7.28,2.93-1.55-.54-1.24-2.5.47-2.54,1.09-.02,1.58.34,2.79-.12,1.62-.62,1.38-1.51,2.16-2.39Z"/>
  <path class="cls-1" d="M26.45,26.28c.72-.72,2.76.17,4.25-.64,1.44-.78,1.59-3.23,3.42-2.41,1.06.47.48,1.79.09,2.49-1.25,2.28-3.67,3.14-6.19,2.92-1.32-.11-2.8-1.14-1.58-2.36Z"/>
</svg>