<?xml version="1.0" encoding="UTF-8"?>
<svg id="Layer_1" data-name="Layer 1" xmlns="http://www.w3.org/2000/svg" viewBox="0 0 96 96">
  <defs>
    <style>
      .cls-1 {
        fill: #e2a793;
      }
    </style>
  </defs>
  <path class="cls-1" d="M92.06,42.8c.06.02.64.58.69.7l-.09,34.22c-.07.12-.5.39-.59.39h-13.85l-.35.35v8.42h4.27c.99,0,1.81,2.53-.91,2.78-1.8.16-8.54.26-10.06-.11-1.91-.46-.97-2.67-.1-2.67h4.27v-8.42l-.35-.35h-26.08l-.35.35v8.42h4.27c.99,0,1.74,2.54-.91,2.78-1.81.16-8.53.26-10.06-.11-1.91-.46-.97-2.67-.1-2.67h4.27v-8.42c-.19-.3-.73-.35-1.04-.35h-25.38l-.35.35v8.42h4.27c.82,0,1.76,2.54-.91,2.78-1.8.16-8.54.26-10.06-.11-1.91-.46-.97-2.67-.1-2.67h4.27v-8.42l-.35-.35H2.3s-.41-.36-.46-.47v-34.38c.05-.11.42-.47.46-.47h19.38l.35-.35v-10.62c-1.9-2.47-4.69-4.9-6.46-7.38-1.14-1.59-.67-2.53,1.26-2.66,3.56-.25,9.66-.31,13.17,0,.83.07,1.61.26,1.63,1.28.02,1.33-6,7.29-7.06,8.77v10.96h19.62v-10.96l-6.75-8.02c-.61-1.39.27-1.91,1.54-2.03,3.1-.28,10.37-.35,13.4,0,1.25.15,1.86,1.03,1.24,2.17l-6.66,7.88v10.96h16.96l.35-.35v-14.54c0-1.29,2.03-3.74,2.95-4.66.46-2.85-.46-6.95.05-9.64.16-.85,1-.99,1.71-1.05,1.35-.12,4.98-.18,6.23.02.47.08.88.3,1.17.68l.12,9.8c.86,1.21,2.99,3.27,2.99,4.85v14.54l.35.35h12.23ZM69.79,15.34v9.35c-1.09.8-3,2.73-3,4.15v13.62l.35.35h9.46l.35-.35v-13.62c0-1.5-1.87-3.33-3-4.15v-9l-.35-.35h-3.81ZM27.1,24.57h-7.62c-.1.41.17.46.35.69,1.04,1.37,2.32,2.63,3.46,3.92,1.11-1.26,2.45-2.6,3.46-3.92.18-.23.44-.29.34-.69ZM49.49,24.57h-7.85c.77,1.01,1.57,2.05,2.42,3,.26.29,1.41,1.66,1.62,1.61l3.81-4.61ZM90.1,45.34H4.26v4.38h85.84v-4.38ZM90.1,52.49H4.26v23.08h12.12l.35-.35v-6.69l-.35-.35h-4.85c-1.24,0-3.22-2.47-3.47-3.68-.76-3.64,1.64-5.93,5.09-6.24,2.29-.21,9.43-.27,11.43.33,3.79,1.14,4.63,6.48,1.36,8.77-.24.16-1.56.82-1.72.82h-4.96v7.38h26.42l.35-.35v-6.69l-.35-.35h-4.85c-.66,0-2.46-1.63-2.85-2.23-1.65-2.59-.43-6.39,2.54-7.31,2.14-.66,9.19-.6,11.61-.38,3.76.34,6.32,3.54,4.67,7.21-.43.96-2.25,2.71-3.29,2.71h-4.96v7.38h26.42l.35-.35v-6.69l-.35-.35h-4.85c-.08,0-1.3-.69-1.49-.82-3.73-2.64-2.29-8.53,2.4-8.88,2-.15,11.05-.27,12.48.23,3.7,1.3,4.09,6.65.87,8.74-.2.13-1.48.73-1.58.73h-4.96v7.38h12.23v-23.08ZM12.27,61.08c-2.39.76-2.16,4.08.24,4.51,1.64.29,9.1.3,10.78.04,2.55-.39,2.76-4.03.19-4.55-3.08-.62-7.93.32-11.21,0ZM41.57,61.08c-2.4.79-2.15,4.03.24,4.51,1.44.29,9.24.27,10.78.04,2.55-.39,2.76-4.03.19-4.55-3.08-.62-7.93.32-11.21,0ZM70.88,61.08c-2.34.82-2.18,4.02.23,4.51,1.44.29,9.24.27,10.78.04,2.56-.39,2.76-4.08.19-4.55-3.22-.58-7.84.28-11.2,0Z"/>
</svg>