<?xml version="1.0" encoding="UTF-8"?>
<svg id="Layer_1" data-name="Layer 1" xmlns="http://www.w3.org/2000/svg" viewBox="0 0 96 96">
  <defs>
    <style>
      .cls-1 {
        fill: #e2a793;
      }
    </style>
  </defs>
  <path class="cls-1" d="M44.94,91.79c-5.83-.26-12.17-1.34-17.72-3.25-1.29-.44-5.82-2.13-6.63-2.9-1.06-1.02-.2-2.58,1.42-2.15,1.23.32,3.34,1.58,4.74,2.1,15.82,5.87,38.94,4.78,52.81-5.46,5.21-3.85,9.68-9.63,9.7-16.4-1.02,1.29-1.9,2.7-2.99,3.94-16.98,19.22-59.54,19.21-76.51,0-1.09-1.24-1.97-2.65-2.99-3.94.01,6.07,3.42,10.87,7.7,14.8.88.81,3.52,2.04,2.47,3.49-1.01,1.39-2.68-.3-3.57-1.02-5.54-4.41-9.61-11.1-9.17-18.39.07-1.1.66-2.87.64-3.73-.05-1.99-.79-3.79-.63-6.19.07-1.09.66-2.72.66-3.59,0-.85-.58-2.52-.65-3.59-.55-7.97,3.81-14.09,9.55-19.02.54-4.12-1.14-11.18,1.49-14.6,3.22-4.19,10.18-3.42,12.1,1.6.08.2.48,1.49.48,1.57v4.19l4.09-1.22c.37-4.24-1.27-9.5,2.7-12.44,4.14-3.06,10.13-.86,11.14,4.2l.21,1.5v4.88c10.55-.31,21.67,1.65,30.92,6.81,6.92,3.86,14.21,10.84,14.95,19.19v3.59l-.65,3.34.65,2.99v3.76l-.63,3.02.63,3.31v3.42c-.28,1-.34,2.07-.6,3.08-3.31,13.13-20.95,20.88-33.23,22.39l-7.08.71c-1.99-.07-4,.09-5.99,0ZM43.23,16.33v-6.07c0-.07-.45-1.17-.54-1.34-1.55-2.91-6.17-2.81-7.65.17-.13.26-.54,1.15-.54,1.34v6.93l8.73-1.03ZM16.53,24.55l8.46-4.29c.26-.12.25-.33.28-.57.14-1.24.07-3.85-.3-5.02-.99-3.05-5.17-3.94-7.33-1.58-.27.29-1.11,1.67-1.11,1.97v9.5ZM25.26,23.01c-9.94,4.12-20.33,12.22-18.09,24.33,1.67,9.07,11.35,15.57,19.42,18.57,16.2,6.02,39.56,4.85,53.6-5.87,14.12-10.78,10.68-25.95-3.64-34.32-8.97-5.24-20.27-7.17-30.58-6.99v3.42c3.97-.11,7.92.08,11.84.74,1.43.24,4.19.69,5.45,1.23.92.39,1.25,1.58.51,2.22-.83.71-4.27-.5-5.44-.71-4.07-.73-8.22-1-12.36-.91v11.72c0,.6-.64,1.25-1.29,1.29-1.63.11-1.51-1.56-1.45-2.75l-15.39,4.11c.02,1.32.35,3.85-1.77,3.21-.15-.05-.81-.68-.81-.74v-11.55c-7.69,3.84-12.21,11.99-5.56,19.34,11.32,12.51,45.34,12.5,56.65,0,6.25-6.91,2.68-14.29-4.28-18.66-.76-.48-3.63-1.8-3.94-2.22-.85-1.17.22-2.34,1.63-1.97,4.11,1.08,10,6.75,11.54,10.7,5.71,14.61-14.73,22.38-25.69,23.76-12.57,1.57-37.71-1.38-41.4-16.4-1.97-8.03,4.36-14.3,11.04-17.45v-4.11ZM43.23,18.9c-5.23.39-10.5,1.28-15.4,3.17v3.68c4.95-1.8,10.11-3.12,15.4-3.42v-3.42ZM43.23,24.89c-5.28.49-10.54,1.6-15.37,3.79l-.03,2.2,15.39-4.12.02-1.87ZM43.23,29.51l-15.4,4.11v2.74l15.4-4.11v-2.74ZM89.1,53.8c-.24.61-.67,1.23-1.06,1.76-16.11,22.18-63.76,22.2-79.96.1-.41-.57-.87-1.21-1.13-1.86-.3,0-.19.75-.18.95.7,10.5,11.06,17.82,20.11,21.13,14.67,5.36,35.5,4.74,49.15-3.22,6.47-3.77,12.66-9.83,13.23-17.74.02-.23.15-1.06-.17-1.11Z"/>
  <path class="cls-1" d="M55,43.92c.88-.12,1.76-.03,2.61.21,1.58.44,1.93,1.47,3.86,1.29,1.32-.12,2.55-1.4,4.27-1.55,2.35-.2,2.94.95,4.7,1.46.73.21,1.84-.07,2.15.93.71,2.24-1.98,1.91-3.31,1.43-.6-.22-1.09-.68-1.71-.86-2.78-.8-4.09,1.35-6.61,1.31-2.48-.05-3.82-2.18-6.61-1.27-.42.14-.73.49-1.08.63-1.27.52-4.36,1.27-3.85-1.1.25-1.14,1.51-.85,2.33-1.09,1.06-.32,1.86-1.2,3.24-1.38Z"/>
  <path class="cls-1" d="M44.39,49.91c2.91-.43,3.16.73,5.25,1.33,2.35.68,3.03-.98,5.05-1.3,3.17-.5,3.25.8,5.48,1.38.79.21,1.39-.18,1.93.64.55.83.18,1.83-.82,1.99-2.24.38-3.34-1.4-5.47-1.37-1.62.03-2.45,1.07-3.84,1.3-3.31.57-4.23-1.42-6.77-1.3-1.36.06-5.67,2.98-6.18.35-.31-1.63,1.3-1.4,2.17-1.62,1.01-.26,1.96-1.23,3.2-1.42Z"/>
</svg>