<?xml version="1.0" encoding="UTF-8"?>
<svg id="Layer_1" data-name="Layer 1" xmlns="http://www.w3.org/2000/svg" viewBox="0 0 96 96">
  <defs>
    <style>
      .cls-1 {
        fill: #e2a793;
      }
    </style>
  </defs>
  <path class="cls-1" d="M37.39,28.02v14.47h21.22v-13.75l.8-.65c.44-.14.9-.06,1.35-.1,1.2-.1,2.9-.24,3.64.75v43.18h-5.79v-14.47h-4.82v23.64h-1.93s0-2.89,0-2.89h-6.99l-.73,2.9h-1.92v-23.64h-4.82v14.47l-5.58-.45-.04-42.76,1.03-.7h4.59ZM40.28,45.39h-2.89v9.17h2.89v-9.17ZM45.11,45.39c-1.17.03-2.59-.37-3.38.72v7.72c0,.99,3.38.99,3.38,0v-8.44ZM49.45,45.39h-2.89v8.44c.66.98,1.86.74,2.89.72v-9.17ZM54.27,45.39h-2.89v9.17h2.89v-9.17ZM58.61,45.39h-2.89v8.44c.66.98,1.86.74,2.89.72v-9.17ZM51.86,57.45h-7.72v1.45h7.72v-1.45ZM51.86,60.83h-7.72v3.86h7.72v-3.86ZM51.86,66.62h-7.72v3.86h7.72v-3.86ZM51.86,72.41h-7.72v3.86h7.72v-3.86Z"/>
  <path class="cls-1" d="M28.71,21.27c3.36-4.43,9-6.09,13.47-8.96,2.17-1.39,4-3.05,6.06-4.56,5.04,6.05,13.91,7.49,19.06,13.52H28.71Z"/>
  <path class="cls-1" d="M1.21,71.93c-1.59-9.39,7.82-3.63,12.51-7.03l15.95-16.61v8.44c-5.05,3.9-9.1,11.51-14.93,14.01-.6.26-2.78,1.19-3.15,1.19H1.21Z"/>
  <path class="cls-1" d="M94.79,71.93h-10.37c-5.56,0-14.21-11.87-18.09-15.68v-7.96l15.95,16.61c4.68,3.4,14.1-2.36,12.51,7.03Z"/>
  <rect class="cls-1" x="28.22" y="22.72" width="39.55" height="3.86"/>
</svg>