<?xml version="1.0" encoding="UTF-8"?>
<svg id="Layer_1" data-name="Layer 1" xmlns="http://www.w3.org/2000/svg" viewBox="0 0 96 96">
  <defs>
    <style>
      .cls-1 {
        fill: #e2a793;
      }
    </style>
  </defs>
  <path class="cls-1" d="M39.7,94.4l-.53-.61c6.02-8.27,9.63-18.4,11.19-28.51.34-2.19.43-4.44.86-6.6h.8c-.97,12.67-4.59,25.42-12.14,35.71h-.18Z"/>
  <path class="cls-1" d="M58.91,52.9l-7.02,3.22c-1.02.17-1.89,0-2.68-.68-.23-.19-.17-.56-.45-.55l-4.68,21.87c-1.56,2.58-5.09,1.62-5.31-1.3l4.71-22.68-.71-3.33c3.83-.19,7.67-.91,11.15-2.54.62-.09.33,1.7.89,1.63,2.97-.89,8.14-5.65,9.71-.64l-.05,15.55c-.68,2.09-3.28,2.7-4.76,1.04-.33-.37-.81-1.25-.81-1.72v-9.88Z"/>
  <path class="cls-1" d="M53.51,37.89l.06,6.68c-3.33,1.9-7.33,2.55-11.12,2.69l-.57-4.69c-2.36,2.56-6.59,4.58-8.24.18-.57-1.51-.67-5.52-.44-7.14.22-1.57,1.95-2.35,3.16-1.2.93.88.27,3.12.29,4.24.01.61.17,2.2.34,2.75.06.2-.12.32.27.26,2.23-1.27,3.31-3.73,5.18-5.33,2.77-.81,6.41-.57,9.09-1.43,3.4-1.09,8.95-6.25,10.8-9.32.82-1.36,1.99-5.71,4.3-3.5,1.06,1.01.37,2.24-.12,3.33-2.45,5.42-7.76,9.86-12.99,12.47Z"/>
  <path class="cls-1" d="M46.91,24.49c5.9-.86,8.07,7.26,3.01,9.53-7.14,3.22-10.31-8.47-3.01-9.53Z"/>
  <path class="cls-1" d="M35.17,67.76v1.09H.92c0-.39-.09-.84.27-1.09h33.98Z"/>
  <path class="cls-1" d="M93.35,32.42h-23.92l.08-.92,23.22-.18c.73-.04.66.52.63,1.1Z"/>
  <rect class="cls-1" x="12.7" y="25.17" width="23.74" height="1.09"/>
  <path class="cls-1" d="M59.82,28.07c1.6-8.6,2.37-17.44,1.29-26.17l.61-.3.45.46.37,5.43c.04,4.84-.11,9.68-.76,14.48-.27,1.96-.34,4.88-1.97,6.1Z"/>
  <path class="cls-1" d="M74.86,76.64v1.09h-20.48c0-.39-.09-.84.27-1.09h20.21Z"/>
  <path class="cls-1" d="M25.63,15.87c-.76-.76-.86-2.66.05-3.36,2.3-1.76,6.5,1.31,4.97,3.34-.69.92-4.2.84-5.02.02Z"/>
  <path class="cls-1" d="M17.92,74.15c1.97-.22,5.08.82,4.85,3.21-.87.63-2.01.88-3.08.71-.67-.11-1.27-.72-1.92-.98-.92-.37-3.23-.39-2.09-1.92.48-.64,1.48-.94,2.24-1.02Z"/>
  <path class="cls-1" d="M61.39,86.54c-1.13,1.13-2.95,1.8-4.47,1.07-.72-.73.43-2.55,1.09-3.09.7-.57,1.32-.55,1.98-.92.84-.46,2.2-2.12,2.78-.75.51,1.2-.55,2.87-1.38,3.7Z"/>
  <path class="cls-1" d="M41.49,78.66c.72,2.58-1.87,2.52-3.7,2.34-3.05-.3-2.61-4.73.38-4.37.71.08,1.1,1.2,1.83,1.62.46.27.97.36,1.49.41Z"/>
  <rect class="cls-1" x="68.88" y="66.31" width="20.48" height=".91"/>
  <path class="cls-1" d="M73.71,9.88c-.69.66-1.43,1.06-2.36.58-1.27-.65-.42-1.63-.31-2.43.13-.93-.36-2.15.91-2.54,2.9-.89,3.84,2.41,1.76,4.39Z"/>
  <path class="cls-1" d="M58.5,64.53c.97-.19,1.03.51,1.73.91,1.16.67,2.02.51,3.21.05.97.95,1.42,2.01-.13,2.6-2.05.77-2.75-.3-4.41-.95-.85-.33-2.77-.28-1.79-1.8.16-.24,1.1-.74,1.38-.8Z"/>
  <path class="cls-1" d="M63.27,22.27c-.64-1.5-.72-3.26,1.26-3.55,1.23-.18,1.95.58,2.96,1.05.87.4,2.73.52,1.94,1.88-.09.16-1.46,1.32-1.56,1.34-.34.08-.78-1.12-1.25-1.44-1.26-.84-2.4-.19-3.35.73Z"/>
  <path class="cls-1" d="M73.54,55.29c2.3-.51,4.41,3.67,2.35,4.55-.85.36-3.26-1.08-3.62-1.91-.39-.89.28-2.42,1.26-2.64Z"/>
  <path class="cls-1" d="M37.17,35.5c-.49-3.35-5.02-2.24-4.35,1.09l-.73-.3c.14-2.69,1.43-6.14,4.73-4.5,1.75.87,2.43,2.83.36,3.72Z"/>
  <path class="cls-1" d="M50.64,8.74c1.79-1.77,5.92-.38,3.93,1.67-.4.42-1.75,1.22-2.32,1.31-1.76.29-2.96-1.65-1.62-2.98Z"/>
  <path class="cls-1" d="M70.01,42.89c-.82-2.07.41-2.12,1.65-2.89.67-.41,1.21-1.56,2.19-.5,1.87,1.99-1.73,4.97-3.84,3.39Z"/>
  <path class="cls-1" d="M17.37,38.61c.71-.1,1.48.81,1.51,1.51.02.57-.3.83-.37,1.27-.18,1.12.27,2.69-1.65,2.17-2.34-.63-1.66-4.64.5-4.96Z"/>
  <path class="cls-1" d="M42.17,15.44c1.72-.11,3.48,2.61,2.25,4.02-.87,1-3.51-.7-3.77-1.68-.24-.92.53-2.28,1.52-2.34Z"/>
  <path class="cls-1" d="M28.42,58.92c2.65-.54,4.67,3.31,2.23,3.87-1.25.29-1.32-.45-2.12-.98-.62-.41-1.47-.29-1.53-1.21-.05-.84.63-1.52,1.42-1.68Z"/>
  <path class="cls-1" d="M83.69,52.75c.77-.16,1.63.61,1.7,1.32.06.64-.36,1.39-.51,2.04-.18.75.3,1.55-.89,1.61-2.74.16-2.61-4.49-.3-4.98Z"/>
  <path class="cls-1" d="M58.91,35.14c-.35,1.16-3.54,9.95-4.08,9.96-.18-.17-.41-.37-.5-.59-.14-.33,1.16-2.79,1.4-3.39.54-1.33,1.25-3.97,1.87-5.02.13-.23,1.15-1.12,1.31-.95Z"/>
</svg>