<?xml version="1.0" encoding="UTF-8"?>
<svg id="Layer_1" data-name="Layer 1" xmlns="http://www.w3.org/2000/svg" viewBox="0 0 96 96">
  <defs>
    <style>
      .cls-1 {
        fill: #e2a793;
      }
    </style>
  </defs>
  <path class="cls-1" d="M49.36,2.66c5.31.6,11.34,5.32,14.89,9.12,6.01,6.42,9.94,14.35,13.49,22.3,7.06,15.78,7.26,38.88-3.5,53.07-1.92,2.53-8.45,9.75-10.84,4.14-1.52-3.57,0-9.15.85-12.8-2.05-.54-4.12-1.06-6.12-1.77-3.78-1.35-10.68-4.17-9.16-9.34.57-1.94,3.76-3.05,5.49-3.73,4.28-1.68,8.86-2.73,12.9-5,.28-.45-1.15-3.56-1.49-4.19-2.64-4.95-7.57-8.29-12.8-10.06-3.84-1.3-7.85-1.78-11.86-2.22.3,3.39-1.85,9.41-5.76,9.74-4.6.39-7.24-5.92-8.26-9.54-7.91-.21-19.61,1.18-22.07-8.67C2.16,21.86,14.48,14.03,24.11,10.98c6.42-2.04,12.89-1.97,19.56-1.61.66-2.55,1.18-5.42,3.74-6.71.63.05,1.34-.07,1.95,0ZM67.62,19.66c.12-.12-1.16-1.87-1.34-2.11-3.44-4.59-9.24-10.41-14.82-12.11-.68-.21-2.44-.7-3.05-.66-1.53.1-2.23,3.75-2.58,4.95l2.13.28c.48-.77.85-2.71,1.85-2.78,2.08-.14.78,2.39.27,3.38l2.58.67c.48-.07.41-1.99,1.59-2.1,1.77-.17,1.36,1.64.64,2.61l.05.24,2.32.9c.42,0,.58-1.38,1.85-.81,1.07.48.18,1.73.26,1.86.23.37,3.37,1.73,3.88,2.33l4.37,3.33ZM25.62,12.75c-.2.23,1.24,2.75,1.45,3.24.41.93,1.24,3.72,1.85,4.17.57.41,1.86.69,2.55.65,2.02-.12,3.13-2.23,5.39-2.41,5.41-.41,6.19,7.85,13.03,6.3,3.24-.73,4.7-2.52,8.59-2.21,2.61.21,3.81,1.83,6.69,1.37.67-.11,1.66-.58,2.26-.93.08-.34-2.65-2.72-3.11-3.09-10.52-8.51-25.84-10.23-38.72-7.09ZM26.86,40.21c-.25-.74-.2-1.76.08-2.48,2.08-5.27,1.05-12.81-.79-18.16-.47-1.37-1.7-4.57-2.5-5.65-.11-.15-.18-.3-.41-.28-7.24,2.53-17.16,8.75-16.38,17.6.06.7.34,2.59,1,2.9.4.19,2.28.41,2.78.4,1.11-.02,3.88-1.09,4.52-.8.92.41.67,1.58-.25,2.04-1.56.77-4.26,1.06-5.94.7,1.21,1.67,3.36,2.47,5.31,2.92,4.05.94,8.44.76,12.58.79ZM74.71,53.86c1.38-1.22,2.75-2.77,3.69-4.37.21-.36,1.02-1.85,1.06-2.13.12-.91-1.01-4.91-1.34-6.03-1.8-6.17-4.85-11.96-8.99-16.86-2.21,1.47-4.8,2.17-7.4,1.36-.8-.25-1.49-.76-2.4-.97-5.33-1.2-8.56,4.07-14.21,1.63-2.38-1.03-3.49-2.91-5.23-4.51-3.48-3.22-4.02-.04-7,.8-1.27.36-2.3.34-3.55-.09.92,4.53,1.13,9.05.53,13.64,3.51.11,8.7.46,10.75,3.73,2.79.12,5.59.44,8.32,1.05.76-.5,1-1.46,1.76-2.11,1.3-1.12,2.84-1.32,4.43-.72,1.72.64,2.06,2.09,4.28,1.28,3.26-1.19,5.05-4.08,9.19-2.34,5.47,2.3,7.36,11.42,6.11,16.66ZM28.98,38.44c-.15,2.25.52,4.58,1.44,6.62.75,1.67,2.81,5.11,4.98,4.68,2.76-.54,4.65-7.07,3.05-9.17-1.2-1.57-7.51-2.31-9.48-2.13ZM69.33,40.28c-4.3-4.11-7.32,2.08-11.52,1.69-2.37-.22-4.54-3.9-6.49-.34,6.04,1.54,11.9,4.74,15.42,10.01,1.26,1.89,2.02,3.87,2.92,5.94l2.09-1.46c1.95-4.63,1.34-12.24-2.42-15.83ZM79.85,51.02c-3.28,5.44-9.33,8.87-15.07,11.24-3.8,1.57-8.5,2.62-12.04,4.44-1.6.82-2.54,1.79-1.32,3.62,2.35,3.51,10.53,5.2,14.43,6.3.53.17.82.63.79,1.17-.08,1.44-1.01,3.95-1.27,5.61-.21,1.33-1,7.29.6,7.81.85.28,3.82-2.23,4.5-2.9,8.73-8.69,11.28-24.88,9.72-36.67-.02-.18-.08-.66-.34-.63Z"/>
  <path class="cls-1" d="M63.76,67.63c-1.61-1.53,2.02-2.42,2.85-2.81,2.32-1.11,4.37-2.28,6.4-3.88.61-.48,2.13-2.13,2.62-2.35.67-.29,1.58.34,1.55,1.01-.06,1.07-4.36,4.21-5.4,4.89-1.73,1.13-3.94,2.31-5.9,2.96-.59.2-1.59.69-2.12.18Z"/>
  <path class="cls-1" d="M69.26,72.94c-.08-.08-.35-.67-.36-.78-.05-.62,3.28-3.39,3.95-4.13.96-1.07,2.01-2.95,2.92-3.81,1.05-.99,2.31-.16,1.75,1.22-.59,1.47-4.34,5.46-5.65,6.58-.62.53-1.82,1.68-2.62.93Z"/>
  <path class="cls-1" d="M76.79,70.36c1.77-.36,1.38,1.25,1.02,2.27-.57,1.6-2.35,5.25-3.38,6.54-.98,1.25-2.31.9-2.13-.7.98-1.6,1.92-3.2,2.73-4.89.39-.81.92-3.05,1.75-3.22Z"/>
  <path class="cls-1" d="M16.72,23.24c2.88-.43,3.52,4.06.64,4.38-3.02.33-3.34-3.98-.64-4.38Z"/>
  <path class="cls-1" d="M32.66,40.07c.64-.18,3.33.4,3.56,1.16.73,2.46-3.81,1.09-4.12.4-.25-.56-.05-1.38.57-1.56Z"/>
</svg>