<?xml version="1.0" encoding="UTF-8"?>
<svg id="Layer_1" xmlns="http://www.w3.org/2000/svg" version="1.1" viewBox="0 0 500 500">
  <!-- Generator: Adobe Illustrator 30.1.0, SVG Export Plug-In . SVG Version: 2.1.1 Build 136)  -->
  <defs>
    <style>
      .st0 {
        fill: #daaa97;
      }
    </style>
  </defs>
  <path class="st0" d="M182.69,325.42c.72-4.67,1.74-7.66,3.23-12.23l-17.71-10.1c16.91-19.4,25.19-4.04,30.9-10.08l11.02-11.68,26.73-28.02-60.93-37.36c-.6-.37-1.68-1.69-1.97-2.32s.69-2.43,1.35-2.95l9.76-7.66c2.92-2.29,6.89-3.43,10.62-1.93l63.91,25.76c2.41.97,5.21-.52,6.95-2.15l29.64-27.65c7.13-6.65,21.03-19.5,30.53-13.72.55.33,1.07.72,1.56,1.17,3.42,3.1,4.38,8.06,2.75,12.38-2.37,6.28-5.91,11.52-10.71,16.53l-35.61,37.15,25.49,67.64c1.09,2.88,1.2,6.11-.71,8.55l-9.02,11.51c-.55.7-2.55,1.77-3.25,1.42s-2.05-1.55-2.49-2.31l-35.6-61.48-42.24,38.88,2.04,15.67-10.82,13.8-9.55-18.67-10.39,3.11c-1.56.47-5.82-.99-5.47-3.27Z"/>
</svg>