<?xml version="1.0" encoding="UTF-8"?>
<svg id="Layer_1" xmlns="http://www.w3.org/2000/svg" version="1.1" viewBox="0 0 500 500">
  <!-- Generator: Adobe Illustrator 30.1.0, SVG Export Plug-In . SVG Version: 2.1.1 Build 136)  -->
  <defs>
    <style>
      .st0 {
        fill: #daaa97;
      }
    </style>
  </defs>
  <path class="st0" d="M260.29,364.67h-21.06c-2.5,0-5.52-.49-8.35-.7-15.03-1.13-29.65-3.31-44.08-7.72-12.13-3.71-27.9-10.2-34.57-21.39-7.23-12.13-.7-23.94,9.84-31.17,14.48-9.64,32.3-13.77,49.62-16.91l-22.01-34.22c-19.09-29.68-17.69-67.86,6.53-93.74,29.37-31.39,78.56-31.34,107.82.28,22.59,24.41,26.59,61.4,8.63,89.55l-24.35,38.16c17.14,3.05,35.2,7.28,49.57,16.85,10.64,7.24,17.21,19.49,9.76,31.47-6.78,10.91-22.49,17.42-34.45,21.08-14.72,4.51-29.67,6.61-44.98,7.82-2.81.22-5.47.04-7.92.64ZM302.47,239.17c15.47-24.43,8.24-56.86-12.73-75.36-22.72-20.04-56.47-19.93-79.06-.4-24.33,21.02-26.84,55.52-9.64,82.24l49.07,76.22,52.36-82.7ZM335.93,328.43c4.68-6.58-3.74-12.48-8.58-15.61-14.07-7.96-31.16-11.48-47.03-13.49l-24.46,38.4c-1.35,2.11-3.44,3.31-5.66,3.36s-4.54-.96-5.9-3.09l-24.64-38.67c-15.87,2.01-32.96,5.53-47.03,13.49-4.86,3.15-13.24,8.99-8.58,15.61,5.2,7.38,18.07,12.35,26.65,14.95,34.57,10.46,83.99,10.45,118.58,0,8.62-2.6,21.4-7.57,26.65-14.96Z"/>
  <path class="st0" d="M246.4,176.28c18.73-2.03,35,11.66,36.97,29.78,2.01,18.41-11.44,35-29.81,36.98-18.23,1.97-34.78-11.22-36.93-29.46s10.9-35.27,29.76-37.3ZM247.74,189.7c-11.5,1.3-19.07,11.65-17.67,22.55,1.4,10.87,11.31,18.59,22.17,17.36,11-1.24,18.98-11.19,17.72-22.22-1.23-10.77-10.85-18.97-22.21-17.69Z"/>
</svg>