<?xml version="1.0" encoding="UTF-8"?>
<svg id="Layer_1" xmlns="http://www.w3.org/2000/svg" version="1.1" viewBox="0 0 500 500">
  <!-- Generator: Adobe Illustrator 30.1.0, SVG Export Plug-In . SVG Version: 2.1.1 Build 136)  -->
  <defs>
    <style>
      .st0 {
        fill: #daaa97;
      }
    </style>
  </defs>
  <path class="st0" d="M384.65,379.5H115.84c-2.7,0-4.72-1.73-4.71-4.2l.05-15.49c.02-6.61,5.46-11.56,12.03-12.09l.03-169.03c0-5.91,6.1-10.56,11.65-9.26l48.21,11.24.19-34.38c.03-5.13,4.34-8.82,7.88-11.98,25.6-18.44,92.78-18.53,118.16.44,3.48,3.12,7.34,6.92,7.36,11.97l.16,33.88,46.52-10.86c3.32-.78,6.28-.71,9.14,1.41,2.08,1.54,4.14,4.15,4.14,7.63v168.92c6.23.61,11.65,4.93,12.02,11.14.33,5.55.15,10.93.16,16.52,0,2.22-1.65,4.13-4.19,4.13ZM287.45,186.24c7.71,1.92,14.11,4.78,20.66,8.76l.19-14.94c.05-3.48-2.03-5.9-4.63-8.31-6-3.84-12.5-6.48-19.72-8.21-24.34-5.85-49.6-5.03-73.66,1.79-5.41,1.53-10.22,3.74-14.63,6.79-2.88,2.22-4.06,4.94-4.05,8.51l.04,14.46c6.54-4.01,13.12-6.93,20.65-8.81,24.58-6.13,50.25-6.23,75.14-.05ZM183.09,347.57l-.02-158.07-49.08-11.5c-.53-.12-1.74.05-1.82.34l-.36,1.41v167.94s51.28-.13,51.28-.13ZM368.09,347.64v-168.24c-.11-.78-1.08-1.65-1.88-1.46l-49.38,11.53v158.17s51.26.01,51.26.01ZM285.77,247.07c8.01,1.93,15.13,4.62,22.33,9.2.11-5.92.19-11.54-.07-17.36-.12-2.72-2.9-4.59-4.66-6.3-4.88-2.81-9.58-4.94-15.18-6.44-23.48-6.3-48.16-6.99-71.85-1.45-7.43,1.74-13.94,4.4-20.12,8.45-1.78,1.81-4.44,3.69-4.45,6.41l-.07,16.67c4.73-2.72,8.93-4.99,13.94-6.7,24.2-8.22,55.34-8.47,80.13-2.49ZM284.41,283.46c2.6,0,4.35,2.03,4.41,4.29.05,2.05-1.56,4.11-3.84,4.25l-4.54.28v55.4s27.76-.08,27.76-.08v-77.73c-2.16-8.03-18.2-13-25.36-14.72-21.34-5.11-49.61-4.92-70.73,1.36-6.05,1.8-19.56,6.79-20.46,14.09l.03,77.05h27.78s0-55.45,0-55.45l-3.94-.12c-2.55-.08-4.46-1.84-4.41-4.4.03-1.74,1.57-4.2,4-4.2l69.3-.02ZM245.65,347.64v-55.49s-17.57.03-17.57.03v55.46s17.57,0,17.57,0ZM271.79,347.61l-.03-55.53-17.44.08v55.51s17.47-.06,17.47-.06Z"/>
  <path class="st0" d="M333.08,336.34c-2.87,0-4.87-1.67-4.87-4.53v-130.08c.32-2.52,1.75-3.92,4.03-4.26l19.13-4.4c2.49-.57,5.36,1.24,5.36,4.13v134.6c.01,2.63-1.91,4.53-4.41,4.53h-19.25Z"/>
  <path class="st0" d="M167.76,333.75l-20.06.04c-2.5,0-4.5-1.87-4.5-4.49v-134.12c0-1.79.58-3.17,1.74-4,1.05-.76,2.71-.94,4.15-.61l19.04,4.45c2.27.53,3.6,2.07,3.59,4.64l-.04,130.16c0,1.92-2.02,3.91-3.93,3.91Z"/>
</svg>