<?xml version="1.0" encoding="UTF-8"?>
<svg id="Layer_1" data-name="Layer 1" xmlns="http://www.w3.org/2000/svg" viewBox="0 0 96 96">
  <defs>
    <style>
      .cls-1 {
        fill: #e2a793;
      }
    </style>
  </defs>
  <path class="cls-1" d="M80.12,70.2c-3.49,1.92-7.46,1.29-10.61-1.33l4.08,7.35,12.74.05c4.33.02,7.59,3.86,7.49,8.03s-3.45,7.76-7.8,7.76l-16.6.02-1.46-.08c-2.76-.32-4.87-1.97-6.21-4.35l-5.89-10.51-43.36-.08c-5.8-.01-10.26-4.95-10.34-10.46s4.36-10.75,10.15-10.8l5.67-.04,3.68-23.57c.61-3.93,3.28-6.95,6.99-8.38-2.99-1.98-4.57-5.16-4.26-8.61.09-1.01.27-1.93.44-2.93.47-5.19,5.1-8.98,10.3-8.3,1.29.17,2.43.33,3.73.6,4.04.83,7.12,4.38,7.21,8.59.05,2.25-.43,4.53-1.1,6.66-.51,1.64-1.67,2.85-2.9,3.91-.96.82-2.02,1.21-3.36,1.67l20.72,19.28c3.44,3.22,3.56,8.42.1,11.79,2.59.98,4.36,2.71,5.82,5.04-.61-3.57.51-6.83,3.17-9.11,1.86-1.19,3.73-2.41,5.87-3.1,3.58-1.15,7.46.11,9.74,3,.97,1.23,2.51,4.07,3.01,5.55,1.39,4.07-.29,8.63-4.05,10.7l-3,1.65ZM39.12,17.04l.5-3.13c.23-1.45-.66-2.79-2.12-3.03l-3.14-.5c-1.55-.25-2.82.82-3.07,2.32l-.43,2.61c-.22,1.34.33,2.92,1.82,3.27,1.14.27,2.31.41,3.5.59,1.37.21,2.71-.71,2.94-2.13ZM40.75,40.16l12.37,11.52c.65.6,1.5.52,2.05.01.49-.45.74-1.48.11-2.06l-20.43-18.98c-1.17-1.09-2.97-1.15-4.37-.57-1.2.5-2.21,1.64-2.45,3.15l-3.51,22.55h8.52s2.13-13.85,2.13-13.85c.23-1.28,1.04-2.22,2.12-2.59,1.24-.42,2.44-.13,3.44.81ZM47.93,55.72l-7.28-6.79-1.08,6.86,8.35-.07ZM77.14,64.48l2.75-1.51c1.18-.65,1.71-2.18,1.05-3.39l-1.61-2.97c-.74-1.37-2.45-1.62-3.74-.86-.93.54-1.92.99-2.76,1.56-1.3.87-1.45,2.4-.72,3.63.44.75.83,1.46,1.2,2.21.71,1.45,2.29,2.17,3.83,1.32ZM57.68,70.66c1.14.05,2.26.58,2.85,1.64l7.02,12.48c.2.35.65.81,1.07.81l14.49.02h2.58c.91,0,1.66-.45,1.7-1.44.02-.7-.57-1.48-1.46-1.49l-14.38-.04c-1.06,0-2.13-.67-2.64-1.58l-9.04-16.09c-.91-1.61-2.2-2.74-4.17-2.74H12.88c-2.33,0-4.11,1.81-4.25,3.98s1.51,4.33,3.79,4.38l3.5.08c1.14.03,2.25.05,3.39,0,2.85-.13,4.46.13,7.33,0,1.16-.05,2.3-.05,3.46,0,2.76.13,4.29-.13,6.98,0,1.31.06,2.56.06,3.87,0,2.74-.13,4.34.14,7.11,0,1.2-.06,2.38-.06,3.59,0,2.55.12,3.64-.11,6.03-.01Z"/>
  <path class="cls-1" d="M50.52,86.73H8.54c-1.83,0-3.14-1.42-3.22-3.07s1.2-3.35,3.05-3.35h42.38c1.75,0,2.93,1.7,2.91,3.22-.03,1.62-1.26,3.19-3.13,3.19Z"/>
</svg>