<?xml version="1.0" encoding="UTF-8"?>
<svg id="Layer_1" data-name="Layer 1" xmlns="http://www.w3.org/2000/svg" viewBox="0 0 96 96">
  <defs>
    <style>
      .cls-1 {
        fill: #e2a793;
      }
    </style>
  </defs>
  <path class="cls-1" d="M92.41,39.26c-.64,2.15-1.57,3.91-3.47,5.18-.56.37-1.14.53-1.64.92l-.02,28.91c-.33,2.9-4.2,3.18-5.1.47l-.13-9.97-18.92-18.92c-9.72-.1-19.51-.24-29.19.07l-18.82,18.84-.13,9.97c-.89,2.7-4.76,2.43-5.1-.47l-.02-28.91c-1.44-.78-2.67-1.51-3.64-2.86-2.58-3.6-1.99-10.07,2.12-12.31-2.71-4.8-.35-12.12,5.58-12.82,6.32-.74,14.02.48,20.48.03,5.44,1.01,7.47,6.44,6.12,11.43h44.25c2.58,0,5.49,1.84,6.68,4.11l.94,2.57v3.77ZM14.64,22.53c-3.01.51-2.85,5.87-.2,6.28h19.32c2.65-.41,2.75-5.79-.2-6.28H14.64ZM11.9,34.17c-2.81.51-2.79,6.09.3,6.29,24.48-.11,49,.22,73.45-.16,2.43-.82,2.21-6-.69-6.17l-73.06.04ZM26.67,45.77h-11.64v11.64l11.64-11.64ZM82.14,45.77h-11.64l11.64,11.64v-11.64Z"/>
</svg>