<?xml version="1.0" encoding="UTF-8"?>
<svg id="Layer_1" data-name="Layer 1" xmlns="http://www.w3.org/2000/svg" viewBox="0 0 96 96">
  <defs>
    <style>
      .cls-1 {
        fill: #e2a793;
      }
    </style>
  </defs>
  <path class="cls-1" d="M16.88,80.8c-4.33-4.23-3.76-11.89-5.21-17.41-3.58-1.7-9.22-3.14-7.6-8.41,1.03-3.35,5.82-8.17,7.35-11.61C9.7,24.17,22.03,5.84,41.27,2.27c33.23-6.16,58.26,26.13,41.43,56.11-2.95,5.25-8.77,12.34-9.22,18.3-.41,5.5,1.91,10.16,2.43,15.32.12,1.2.07,2.02-1.2,2.43l-35.33.05c-.52-.12-1.08-.68-1.27-1.18-.77-2.02-.76-5-1.46-7.1-.42-1.25-1.27-1.94-2.61-2.08-6.29-.67-11.91,1.79-17.16-3.33ZM72.26,91.07c-.56-4.25-2.33-8.86-2.25-13.16.16-8.36,6.9-15.5,10.64-22.59,5.53-10.46,5.49-22.84-.34-33.17C67.59-.4,32.93-1.17,19.58,21.16c-4.37,7.31-5.1,14.82-4.9,23.23-1.68,3.63-5.69,7.63-7.21,11.14-.27.61-.36,1.05-.14,1.71.48,1.5,6.39,2.73,7.22,4.2.22.39.27.83.37,1.26,1.08,4.41,1.11,12.57,4.23,15.75,5.3,5.39,15.26-.43,19.48,4.57,1.88,2.24,1.45,5.52,2.54,8.06h31.09Z"/>
  <path class="cls-1" d="M50.28,33.71c5.89-6.06-1.51-15.31-8.63-10.98-1.67,1.02-2.89,3.15-1.19,4.74,2.57,2.41,4.42-1.8,6.11,0,1.29,1.37-.21,2.77-1.48,3.4-6.38,3.14-12.39-5.21-6.05-10.33,10.16-8.22,23.75,7.2,12.43,16.5-13.1,10.76-31.31-6.69-20.77-20.36,9.99-12.96,31.2-6.88,33.5,9.28.69,4.83-1.31,13.49-5.69,16.28-1.37.87-2.75-.23-2.43-1.82.09-.43,2.44-3.12,2.94-4,5.6-9.91-1.03-22.64-12.42-23.43-9.23-.64-18.55,7.28-14.73,16.97,2.85,7.22,12.99,9.34,18.43,3.75Z"/>
  <path class="cls-1" d="M40.74,42.18c1.36-.31,2.37.97,3.76,1.25,1.29.26,2.68.18,3.9-.32,1.02-.42,2.39-1.91,3.5-.36,1.59,2.22-2.83,3.91-4.48,4.07-2.13.21-6.25-.25-7.53-2.25-.57-.9-.22-2.15.85-2.39Z"/>
</svg>