<?xml version="1.0" encoding="UTF-8"?>
<svg id="Layer_1" data-name="Layer 1" xmlns="http://www.w3.org/2000/svg" viewBox="0 0 96 96">
  <defs>
    <style>
      .cls-1 {
        fill: #e2a793;
      }
    </style>
  </defs>
  <path class="cls-1" d="M25.31,89.44c-6.08-1.07-8.47-8.91-3.61-12.95.65-.54,2.75-1.69,3.53-1.69h3.11c-.36-.99-.83-1.92-.96-2.99-.29-2.43.53-5.33.7-7.78.51-1.24,2.27-1.09,2.45.25.23,1.66-.66,4.45-.69,6.23-.05,2.81,1.94,5.4,4.8,5.64,4.08.35,8.66-.28,12.8,0,3.43-.79,3.07-5.26-.5-5.56-3.67-.31-9.76,1.67-10.17-3.59.46-2.95.48-5.97.82-8.93.12-1.04.1-2.7,1.44-2.77,1.45-.08,1.29,1.66,1.25,2.6-.11,2.8-1.02,6.39-.85,9.1.02.31.03.62.21.88.26.19.57.19.88.22,3.87.33,11.12.33,14.99,0,1.33-.11,1.13-.75,1.09-1.95-.08-2.67-.74-5.57-.85-8.24-.03-.63-.16-1.61.24-2.11.75-.95,2.19-.34,2.27.78-.02,3.34,1.08,7.32,1,10.57-.02,1.01-.69,2.27-1.51,2.87-.13.1-1.02.6-1.08.6h-5.13c1.14,1.78,1.02,3.68.17,5.55h10.18c2.09,0,4.42-3.29,4.29-5.31-1.26-5.28-.28-14.86-3.56-19.14-3.42-4.46-11.24-3.09-10.74-10.21-2.57.7-5.17.7-7.74,0,.44,5.8-4.47,5.85-8.13,7.94-1.96,1.12-3.6,3.2-4.2,5.39-.31,1.13-.36,3.91-.78,4.6-.76,1.22-2.44.56-2.37-1.18.2-4.52,2.1-8.77,6.11-11.05,1.55-.88,5.27-1.87,6.17-3.09.85-1.15.44-2.66.47-4-9.97-7.6-2.74-23.49,9.62-20.22,9.27,2.45,11.06,14.61,3.57,20.22.03,1.29-.35,2.79.4,3.91.84,1.26,4.6,2.26,6.13,3.12,3.22,1.79,5.19,4.84,5.86,8.44.75,4.05,1.47,10.16,1.7,14.28.11,1.84-.24,3.31-1.01,4.96h3.11c.78,0,2.88,1.15,3.53,1.69,4.78,3.97,2.44,12.18-3.61,12.95h-5.89c-.87-.46-1.13-1.94-.13-2.4.89-.42,4.32.02,5.69-.2,4.61-.72,5.43-7.34,1.04-9.14-1.16-.47-4.57-.56-5.84-.37-.97.15-2.45,1.5-3.71,1.34-8.97-.59-18.92.77-27.77,0-1.67-.14-2.81-1.24-4.02-1.36-2.18-.21-5.49-.25-7.1,1.41-2.88,2.97-.85,7.92,3.22,8.19h33.32c1.47.15,1.61,1.82.42,2.52H25.31ZM47.31,22.02c-11.49.99-10.13,18.45,1.63,17.45,11.11-.95,9.87-18.44-1.63-17.45Z"/>
  <path class="cls-1" d="M47.06,15.7c-.19-.19-.36-.76-.39-1.04-.23-2.09-.25-7.86,0-9.93.23-1.93,2.42-1.91,2.69-.15.27,1.78.23,8.23.01,10.09-.13,1.12-1.41,1.94-2.31,1.04Z"/>
  <path class="cls-1" d="M24.42,16.78c.51-.09.9.24,1.33.45,2.87,1.39,5.67,3.46,8.53,4.93,1.1.99.07,2.82-1.33,2.17-2.64-1.84-6.49-3.25-8.98-5.15-1.02-.78-.69-2.2.45-2.4Z"/>
  <text/>
  <path class="cls-1" d="M71.2,16.78c1.22-.21,2.12,1.53.97,2.33l-9.08,5.22c-1.28.71-2.43-1.18-1.43-2.1l9.54-5.45Z"/>
  <text/>
  <path class="cls-1" d="M36.03,10.05c.59-.12.92.07,1.3.49.67.74,2.53,4.15,3.04,5.2.35.71.84,1.24.32,2.01-.42.63-1.47.72-2,.17l-3.64-6.47c-.05-.6.37-1.27.98-1.4Z"/>
  <path class="cls-1" d="M59.42,10.05c1.09-.22,1.83.82,1.48,1.83l-3.55,6.04c-.94.88-2.44.09-2.19-1.16,1.1-1.8,2.03-4,3.22-5.71.28-.4.49-.88,1.04-.99Z"/>
  <path class="cls-1" d="M32.16,32.52c-.19.19-.76.36-1.04.39-1.01.11-4.08.14-5.04-.01-1.57-.25-1.72-2.33.03-2.64.91-.16,4.05-.16,4.99-.02,1.17.17,1.96,1.39,1.06,2.29Z"/>
  <path class="cls-1" d="M63.89,32.52c-.9-.91-.11-2.13,1.06-2.29.94-.13,4.08-.14,4.99.02,1.75.31,1.6,2.4.03,2.64-.96.15-4.03.13-5.04.01-.28-.03-.86-.2-1.04-.39Z"/>
</svg>