<?xml version="1.0" encoding="UTF-8"?>
<svg id="Layer_1" data-name="Layer 1" xmlns="http://www.w3.org/2000/svg" viewBox="0 0 96 96">
  <defs>
    <style>
      .cls-1 {
        fill: #e2a793;
      }
    </style>
  </defs>
  <path class="cls-1" d="M84.04,91.05H9.24c-2.29-.71-3.7-2.12-4.41-4.41V11.84c.73-2.37,2.43-4.13,4.98-4.42h73.66c6.28.92,4.88,7.18,4.97,11.84-.28,1.2-2.21,1.23-2.44,0-.54-2.83,1.58-8.89-2.86-9.39H10.14c-1.58.2-2.76,1.43-2.86,3.02v72.69c.1,1.64,1.38,2.92,3.02,3.02,24.49-.12,49.04.2,73.5-.16,1.25-.39,2.12-1.54,2.2-2.86V24.66c.12-1.39,1.79-1.69,2.37-.41l.08,61.83c-.28,2.54-2.04,4.25-4.42,4.98Z"/>
  <path class="cls-1" d="M12.51,61.73c-.02.08-.63.66-.77.7-.94.28-1.67-.44-1.68-1.36l.08-47.45c.19-.75.75-.92,1.46-.98h70.08c1.1.1,1.45.46,1.55,1.55l-.09,70.64c-.19.75-.75.92-1.46.98l-70.52-.05c-.73-.17-1.02-.61-1.1-1.35-.6-5.42.46-11.94,0-17.48.21-1.8,2.45-1.3,2.45-.49v16.66l.24.24h7.92v-28.25h-3.18c-.57,0-1.79-1.04-1.97-1.63-.17-.58-.16-3.82,0-4.42.19-.73,1.38-1.79,2.13-1.79h3.02l.03-14.25c.07-.32.24-.47.46-.68.61-.55,4.43-2.66,4.54-2.98.28-2.85-.29-6.16.03-8.96.11-.98.92-2.13,1.92-2.33.65-.13,3.36-.14,4.04-.03,1.03.16,1.81,1.53,1.89,2.52.57,6.4-.44,13.62,0,20.1,0,1.18-1.02,2.39-2.21,2.53-.72.09-3.19.09-3.85-.08-.7-.18-1.79-1.42-1.79-2.13v-8.57l-2.61,1.71v13.15h23.11c.35,0,1.35.55,1.62.83,1.1,1.15,1.12,5.3-.15,6.35-.17.14-1.18.65-1.31.65h-5.8v28.01l.24.24h8.41c-.59-2.14.2-4.45,2.42-5.09,0-1.29-.04-2.35.71-3.46.49-.74,2.1-2.07,2.99-2.07h6.78v-9.8h-10.37c-.57,0-1.61-1.27-1.7-1.89-.11-.68-.11-3.23,0-3.9.16-.98,1.23-1.78,2.2-1.89,1.13-.13,6.01-.18,6.99.04,1.42.31.87,2.41.04,2.41h-6.78v2.78h21.88v-2.78h-10.21s-.56-.4-.58-.44c-.34-.57-.12-2.01.58-2.01h7.59v-2.78c-1.2-.05-2.31-.86-2.6-2.05l.03-21.35c.43-1.15,1.24-1.81,2.49-1.92,2.06-.18,4.93-.26,5.16,2.37.58,6.61-.45,14.05,0,20.75-.22,1.3-1.31,2.13-2.6,2.22l-.02,2.67c.99.09,2.24.68,2.54,1.72.17.57.16,3.33.08,4.01-.08.69-1.06,2.04-1.72,2.04h-10.37v9.8h6.78c1.45,0,3.4,2.16,3.64,3.55.08.51-.08,1.52.12,1.84.08.14,1.24.72,1.55,1.06,1.06,1.14,1.21,2.7.82,4.16h2.86l.24-.24V15.35l-.24-.24H12.75l-.24.24v46.38ZM31.13,20.5h-2.94v20.01l.24.24h2.45l.24-.24v-20.01ZM74.4,29.64h-2.78v20.25h2.78v-20.25ZM45.99,49.89h-28.09v2.78h28.09v-2.78ZM38.15,55.12h-15.02v28.25h15.02v-28.25ZM62.15,75.2h-6.29c-.06,0-.78.34-.89.41-.85.61-.89,1.62-.83,2.58,2.15.93,3.11,2.86,2.46,5.17h3.1c-.45-2.11.24-4.35,2.45-5.06v-3.1ZM71.05,75.2c-1.81-.3-4.39.22-6.29,0v3.1c2.19.64,2.96,2.99,2.45,5.06h3.1c-.59-2.25.32-4.26,2.46-5.17.21-1.26-.33-2.76-1.72-2.99ZM52.31,80.63c-1.22.36-.98,2.84.73,2.65,2.05-.22,1.5-3.32-.73-2.65ZM62.92,80.63c-1.09.32-1.06,2.34.13,2.58,2.53.49,2.3-3.3-.13-2.58ZM73.54,80.63c-1.26.29-1.25,2.34.24,2.63,2.05.39,2.29-3.21-.24-2.63Z"/>
</svg>