<?xml version="1.0" encoding="UTF-8"?>
<svg id="Layer_1" data-name="Layer 1" xmlns="http://www.w3.org/2000/svg" viewBox="0 0 96 96">
  <defs>
    <style>
      .cls-1 {
        fill: #e2a793;
      }
    </style>
  </defs>
  <path class="cls-1" d="M36.47,47.79l5.41-.55c13.22-.56,28.97.79,40.91,6.93,13.64,7.02,15.7,18.07,1.47,26.09-18.33,10.33-51.7,10.36-70.46,1.1-11.2-5.53-17.31-15.42-5.07-24.38,5.32-3.89,12.01-6.13,18.39-7.64,2.01-.48,4.12-.7,6.06-1.31l-.02-40.5c-.04-.9,1.02-1.71,1.88-1.51,9.36,2.88,19.48,4.78,28.7,7.98,1.64.57,2.78.67,2.07,2.86l-29.35,10.02v20.9ZM58.46,15.89l-22-6.05.18,13.57,21.81-7.51ZM33.17,51.46c-6.96,1.12-14.01,2.8-20.17,6.32-10.78,6.16-9.79,14.33.61,20.11,16.91,9.39,54.11,9.54,70.5-1.06,13.78-8.91,3.64-17.75-7.09-21.85-12.64-4.83-26.74-4.95-40.1-4.08l-.46.28v5.77h2.84c5.9,0,12.46,6.07,9.95,12.33-3.15,7.84-15.64,8.35-20.77,1.97-4.07-5.07-.71-11.13,4.68-13.2v-6.6ZM36.47,60.53v5.32c0,.64-2.27,1.47-2.94.33-.45-.76-.23-3.4-.36-4.37-.03-.19.05-.39-.27-.27-1.18.46-2.66,2.7-2.83,3.95-1.31,9.91,19.29,8.7,16.21-.84-1.09-3.37-6-4.79-9.17-4.41-.27.03-.47.02-.63.28Z"/>
  <path class="cls-1" d="M68.5,65.25c5.37-.73,9.52,5.58,6.17,10.21-3.19,4.41-9.45,3.38-11.42-1.57-1.48-3.71,1.37-8.11,5.24-8.63ZM66.96,69.3c-1.57,1.62-.87,5.31,1.67,5.62,2.77.34,4.38-1.32,3.9-4.08-.4-2.35-4.02-3.15-5.58-1.54Z"/>
</svg>