<?xml version="1.0" encoding="UTF-8"?>
<svg id="Layer_1" data-name="Layer 1" xmlns="http://www.w3.org/2000/svg" viewBox="0 0 96 96">
  <defs>
    <style>
      .cls-1 {
        fill: #e2a793;
      }
    </style>
  </defs>
  <path class="cls-1" d="M93.42,3.89v17.47c0,.37-1.9,1.08-2.22,1.59-1.87,3.03.79,29.13-.37,34.65l2.51,1.94.08,7.23h-32.4c-.16.91.19,1.57.49,2.37,2.8,7.41,10.11,16.11,12.56,23.65.17.53.41,1.02.3,1.6-2.47,1.62-3.5-1.88-4.57-3.69-4.18-7.16-7.59-15.36-11.66-22.64-.75-1.37-1.81-1.2-3.12-1.33-1.95-.2-15.4-.16-16.24.35l-13.41,26.61-2.14,1.03-.69-1.93,12.43-26.02H2.58l.08-7.23,2.51-1.94-.04-33.71c.3-1.18-2.55-2.1-2.55-2.53V3.89h90.83ZM46.41,6.43H5.12v13.02c4.87,2.98,12.69,1.04,16.51-3.18l-2.44-1.05-.09-2.44c7.32,2.72,12.07,4.34,19.83,1.73,1.03-.35,7.09-3.33,7.34-3.77.54-.93-.07-3.12.13-4.32ZM90.88,6.43h-41.29c.2,1.2-.4,3.39.13,4.32.25.43,6.33,3.43,7.34,3.77,7.68,2.54,12.61,1,19.83-1.73l-.09,2.44-2.44,1.05c3.99,4.11,11.54,6.13,16.51,3.18V6.43ZM82.62,58.52V23.9c-2.18-1.35-4.66-2.07-7-3.17-1.38-.65-3.17-2.44-4.28-2.73-1.95-.51-5.5.64-8.12.52-5.4-.24-10.71-2.76-15.22-5.53-4.51,2.77-9.82,5.29-15.22,5.53-2.61.12-6.17-1.03-8.12-.52-1.11.29-2.9,2.08-4.28,2.73-2.33,1.1-4.81,1.82-7,3.17v34.62h17.79v-13.02c0-1.75,2.56-1.83,3.02-2.37.78-.92,1.51-4.55,3.33-6.52,5.2-5.61,15.26-5.79,20.63-.31,2.14,2.18,2.74,5.75,3.65,6.83.46.55,3.02.62,3.02,2.37v13.02h17.79ZM10.84,23.58h-3.18v34.94h3.18V23.58ZM88.34,23.58h-3.18v34.94h3.18V23.58ZM56.35,38.41c-5.92-6.35-16.82-3.51-19.29,4.55l2.75,4.79h16.38l2.75-4.79c.04-.49-2.04-3.97-2.58-4.55ZM36.88,58.52v-11.75c0-1.2-3.18-1.2-3.18,0v11.75h3.18ZM62.29,58.52v-11.75c0-1.2-3.18-1.2-3.18,0v11.75h3.18ZM56.58,50.9h-17.15v2.54h17.15v-2.54ZM56.58,56.61h-17.15v1.91h17.15v-1.91ZM90.88,61.06H5.12v3.18h85.75v-3.18Z"/>
  <path class="cls-1" d="M29.9,72.49H2.58l.28-1.94,25.44-.6c1.58.28,1.76,1.01,1.59,2.54Z"/>
  <path class="cls-1" d="M93.42,72.49h-27.31l.28-1.94,25.44-.6c1.58.28,1.76,1.01,1.59,2.54Z"/>
  <path class="cls-1" d="M2.58,78.21c-.26-.74.28-2.54.95-2.54h22.87l.95.96-.95,1.58H2.58Z"/>
  <path class="cls-1" d="M93.42,78.21h-23.82l-.95-.96.95-1.58h22.87c.67,0,1.21,1.8.95,2.54Z"/>
  <path class="cls-1" d="M24.18,83.93H2.58l.28-1.94c.52-.61,1.2-.55,1.91-.63,3.15-.36,14.94-.48,17.82.03,1.58.28,1.76,1.01,1.59,2.54Z"/>
  <path class="cls-1" d="M93.42,83.93h-21.6l.28-1.94c.52-.61,1.2-.55,1.91-.63,3.15-.36,14.94-.48,17.82.03,1.58.28,1.76,1.01,1.59,2.54Z"/>
  <path class="cls-1" d="M20.37,87.1l.62,1.59-.94.95H2.58c-.26-.74.28-2.54.95-2.54h16.83Z"/>
  <path class="cls-1" d="M93.42,89.64h-17.47l-.94-.95.62-1.59h16.83c.67,0,1.21,1.8.95,2.54Z"/>
  <polygon class="cls-1" points="75 53.44 68.01 53.43 68.01 50.9 72.46 50.9 72.46 26.12 23.54 26.12 23.54 50.9 27.99 50.9 27.99 53.43 21 53.44 21 24.54 21.96 23.58 74.04 23.58 75 24.54 75 53.44"/>
</svg>