<?xml version="1.0" encoding="UTF-8"?>
<svg id="Layer_1" data-name="Layer 1" xmlns="http://www.w3.org/2000/svg" viewBox="0 0 96 96">
  <defs>
    <style>
      .cls-1 {
        fill: #e2a793;
      }
    </style>
  </defs>
  <path class="cls-1" d="M24.93,39.14c.21-2.2,1.41-5.25,2.63-7.09,1.43-2.18,3.27-3.64,5.23-5.3.1-5.01.9-10.25,2.67-14.94,2.03-5.39,6.64-12.59,13.41-9.97,1.64.64,6.26,4,4.19,5.91-1.67,1.54-2.71-.61-3.74-1.5-5.13-4.44-9.02,2.69-10.57,6.82-3.8,10.13-2.08,21.52-2.47,32.13.97,8.78,12.07,12.14,17.6,5.06,3.8-4.87,1.3-16.08,2.02-22.26.23-1.93,1.8-1.93,3.23-1.19,3.8,1.97,8.11,8.18,8.11,12.53v51.71h11.43c.16,0,1.04.6,1.17.86.83,1.77-.71,2.9-2.37,2.79H20.18c-1.57,0-2.95-1.28-2.01-2.83.13-.22.82-.82,1-.82h5.77v-51.91ZM32.62,45.01c-.35-4.32.26-9.09,0-13.46-1.72,1.44-3.21,3.89-3.75,6.07-.17.68-.5,2.32-.5,2.94v50.49h35.21v-52.11c0-.28-.51-1.99-.65-2.38-.65-1.79-1.95-3.77-3.39-5-.48,7.96,2.06,17.31-4.96,23.07-8.56,7.02-21.08,1.17-21.95-9.61Z"/>
  <path class="cls-1" d="M44.83,44.64c-.25-.23-.44-.7-.48-1.04-.18-1.51-.21-6.84.02-8.29.28-1.81,3.13-1.82,3.42,0,.18,1.17.21,7.38,0,8.48-.23,1.19-2.02,1.71-2.97.85Z"/>
  <path class="cls-1" d="M13.66,30.07c-.99-.9-.54-2.64.78-3.04,1.74-.53,6.01-.34,4.87,2.45-.6,1.48-4.78,1.39-5.65.59Z"/>
  <path class="cls-1" d="M55.56,13.06c-.64-.64-.65-3.95-.39-4.8.45-1.45,3.07-1.4,3.34.33.1.67.11,3.36-.08,3.94-.36,1.15-2.06,1.34-2.87.53Z"/>
  <path class="cls-1" d="M10.63,36.94c-.64-.64-.65-3.95-.39-4.8.45-1.45,3.07-1.4,3.34.33.1.67.11,3.36-.08,3.94-.36,1.15-2.06,1.34-2.87.53Z"/>
  <path class="cls-1" d="M77.01,36.94c-.81-.81-.62-2.51.53-2.87.59-.18,3.28-.18,3.94-.08,1.72.27,1.78,2.88.33,3.34-.85.27-4.16.26-4.8-.39Z"/>
  <path class="cls-1" d="M85.37,38.5c.64.64.65,3.95.39,4.8-.45,1.45-3.07,1.4-3.34-.33-.1-.67-.11-3.36.08-3.94.36-1.15,2.06-1.34,2.87-.53Z"/>
  <path class="cls-1" d="M56.45,18.23c.68-.14,1.56.29,1.89.86.26.46.31,3.85.15,4.42-.43,1.48-3.15,1.56-3.4-.56-.16-1.35-.34-4.37,1.37-4.73Z"/>
  <path class="cls-1" d="M83.97,26.94c.7-.07,1.58.5,1.78,1.16.18.6.19,3.46,0,4.07-.46,1.5-2.68,1.53-3.24.19-.17-.41-.2-3.83-.06-4.3.14-.47,1.04-1.07,1.52-1.11Z"/>
  <path class="cls-1" d="M63.93,14.61c.76.76.61,2.53-.54,2.89-.59.18-3.28.18-3.94.08-1.72-.27-1.78-2.88-.33-3.34.8-.25,4.21-.23,4.81.37Z"/>
  <path class="cls-1" d="M13.13,20.49c.64.58.63,3.98.38,4.8-.46,1.52-2.95,1.43-3.31-.15-.12-.53-.14-3.49,0-3.96.32-1.09,2.05-1.49,2.93-.69Z"/>
  <path class="cls-1" d="M50.57,14.19c.65-.15,3.5-.13,4.05.11,1.29.55,1.16,3.01-.26,3.28-.58.11-3.83.07-4.3-.14-1.3-.6-1.02-2.91.5-3.25Z"/>
  <path class="cls-1" d="M53.81,66.22c1.13,1.03.25,3.12-1.27,3.15-4.03-.3-8.79.47-12.73.02-2.57-.29-2.62-3.29-.39-3.63,4.16.32,9.07-.47,13.15-.02.37.04.98.23,1.25.47Z"/>
  <path class="cls-1" d="M39.04,74.7l13.91-.03c1.81.28,1.91,3.19-.19,3.43-4.18.48-9.27-.36-13.55-.02-1.78-.28-1.78-3.03-.17-3.39Z"/>
</svg>