<?xml version="1.0" encoding="UTF-8"?>
<svg id="Layer_1" data-name="Layer 1" xmlns="http://www.w3.org/2000/svg" viewBox="0 0 96 96">
  <defs>
    <style>
      .cls-1 {
        fill: #e2a793;
      }
    </style>
  </defs>
  <path class="cls-1" d="M90.53,20.24v69.48c-.42.8-.82,1.46-1.73,1.76l-82.83.12c-1.16.04-2.14-.67-2.52-1.74v-42.52c.1-.61,1.29-1.73,1.84-1.73h46.07v-25.29c0-.55,1.12-1.74,1.73-1.84,11.91-.16,23.93-.25,35.83.05.85.31,1.2.96,1.61,1.71ZM85.42,23.47h-28.95v22.14h28.95v-22.14ZM51.36,50.72H8.44v5.11h42.92v-5.11ZM85.42,50.72h-28.95v35.76h28.95v-35.76ZM37.73,60.94H8.44v25.54h29.29v-25.54ZM51.36,60.94h-8.51v25.54h8.51v-25.54Z"/>
  <path class="cls-1" d="M32.11,4.4c.94.46,1.68,1.03,1.86,2.14l.1,11.14,10.99,9.45c.55.58.78,1.08.85,1.87.16,1.68.18,5.51,0,7.16-.15,1.3-1.14,2.25-2.46,2.31l-38.38-.12c-.81-.29-1.53-1.02-1.69-1.88-.18-1.01-.18-7.32.08-8.19.11-.38.46-.85.73-1.14l10.99-9.45.1-11.14c.18-1.11.92-1.68,1.86-2.14h14.99ZM28.88,9.51h-8.51v6.81h8.51v-6.81ZM40.8,33.35v-2.98l-10.22-8.85-11.8-.05-10.34,8.91v2.98h32.36Z"/>
  <path class="cls-1" d="M63.57,55.87c1.56-.28,2.93.69,3.11,2.26.12,1.08.15,5.09-.07,6.06-.6,2.59-4.7,2.49-5.04-.44-.12-1.08-.15-5.09.07-6.06.2-.85,1.07-1.67,1.92-1.82Z"/>
  <path class="cls-1" d="M29.51,68.64c1.56-.28,2.93.69,3.11,2.26.12,1.08.15,5.09-.07,6.06-.6,2.59-4.7,2.49-5.04-.44-.12-1.08-.15-5.09.07-6.06.2-.85,1.07-1.67,1.92-1.82Z"/>
  <path class="cls-1" d="M63.57,30.32c1.56-.28,2.93.69,3.11,2.26.12,1.08.15,5.09-.07,6.06-.6,2.59-4.7,2.49-5.04-.44-.12-1.08-.15-5.09.07-6.06.2-.85,1.07-1.67,1.92-1.82Z"/>
</svg>