<?xml version="1.0" encoding="UTF-8"?>
<svg id="Layer_1" data-name="Layer 1" xmlns="http://www.w3.org/2000/svg" viewBox="0 0 96 96">
  <defs>
    <style>
      .cls-1 {
        fill: #e2a793;
      }
    </style>
  </defs>
  <path class="cls-1" d="M49.43,23.83v10.47c0,.15,2.38.79,2.38,1.67v12.61h9.51l-.03-3.78c-3.81-.18-5.51-3.33-5.21-6.92.44-5.16,3.04-2.01,6.61-2.67-.05-4.12,3.5-3.39,6.42-4.66l.76,1.37c-2.07.91-5.26.59-5.7,3.1,1.09.61,1.98-.78,3.13.18,1.95,1.64,1.01,5.87-.5,7.68-2.06,2.46-5.01,1.14-4.06,5.69h7.37c.13,0,1.78,1.66,1.89,1.91.73,1.59-.07,5.23-1.89,5.23h-18.79v19.74c-1.72,1.17-5.95,1.15-7.61,0v-19.74h-18.79c-.37,0-1.92-2.08-2.06-2.73-.99-4.77,4.75-4.71,8.01-4.41.81-4.4-1.39-3.18-3.59-5.22-2.51-2.33-2.59-5.58-.7-8.38l9.68-.15c3.13,3.37,1.12,10.04-3.95,9.96l-.02,3.79h9.99v-12.13c0-1.47,2.38-1.97,2.38-2.14v-10.47h4.76ZM48,25.25h-1.9v9.75c0,.51-1.49.6-1.77.84-1.25,1.08-.37,9.82-.54,11.94.44,1.36,4.89.77,6.15.57.63-1.69.84-11.7-.04-12.39-.34-.27-1.9-.47-1.9-.96v-9.75ZM36.11,36.67h-9.04c-1.73,9.4,10.69,9.13,9.04,0ZM62.75,36.67h-5.23c-1.44,9.23,11.12,9.16,8.98.05l-2.3-.03c-.33.31.13,4.56-1.93,4.25l.47-4.28ZM25.4,54.27h44.24c1.51,0,1.51-4.28,0-4.28H25.88c-1.9,0-1.99,3.81-.48,4.28ZM49.9,55.7h-4.76v19.03h4.76v-19.03Z"/>
  <path class="cls-1" d="M86.06,57.13c-1.31-4.6-1.93-10.16-1.38-14.93.32-2.76,2.96-10.3,6.59-7.17,2.37,2.05-.88,4.3-1.29,6.75-.34,2.01-.28,5.89-.14,7.99.2,2.77,2.53,9.18,2.41,10.43-.19,1.93-2.71,2.47-4.29,2.16-.83.8,3.63,10.44,3.69,12.21.07,2.08-2.38,3.2-4.17,2.3-1.42-.71-4.16-12.28-5.29-14.45l-4.74.22c-1.7,3.25-2.64,10.81-4.49,13.49-1.44,2.09-4.93.87-4.85-1.56.06-1.76,4.52-11.43,3.69-12.21-1.99.3-3.43-.44-3.71-2.54.04-.85,1.9-2.69,2.52-2.69h15.46ZM69.88,60.93h20.22c.29,0,.67-.68.64-1.09-.06-.98-1.31-3.6-1.6-5.09-.87-4.39-1.67-9.46-.5-13.83.46-1.73,2.99-4.11,1.22-4.99-2.07-1.02-3.67,5.86-3.8,7.16-.54,5.4.63,10.75,1.9,15.93h-18.08v1.9ZM75.59,62.36l-1.95.28-3.75,13.03c.77.07,1.1.12,1.66-.47.55-.58,4.53-12.37,4.04-12.84ZM89.86,75.68l-3.55-12.85-2.15-.46c-.48.47,3.49,12.26,4.04,12.84.56.59.9.54,1.66.47Z"/>
  <path class="cls-1" d="M9.94,57.13h15.46c.62,0,2.48,1.84,2.52,2.69-.28,2.1-1.72,2.85-3.71,2.54-.83.78,3.63,10.45,3.69,12.21.08,2.43-3.41,3.65-4.85,1.56-1.85-2.68-2.79-10.25-4.49-13.49l-4.74-.22c-1.13,2.16-3.88,13.73-5.29,14.45-1.79.9-4.24-.22-4.17-2.3.05-1.62,4.45-11.53,3.69-12.21-1.58.32-4.09-.23-4.29-2.16-.13-1.25,2.21-7.66,2.41-10.43.15-2.11.2-5.97-.14-7.99-.43-2.57-3.84-4.54-1.3-6.75,3.62-3.15,6.27,4.41,6.59,7.17.56,4.77-.07,10.33-1.38,14.93ZM8.04,59.03c1.27-5.18,2.44-10.54,1.9-15.93-.14-1.35-1.77-8.21-3.8-7.16-1.99,1.51-.13,1.79.41,2.95,1.75,3.81,1.53,9.03.89,13.12-.36,2.29-2.09,6.33-2.18,7.84-.02.41.36,1.09.64,1.09h20.22v-1.9H8.04ZM11.84,62.36c-.13-.13-1.53-.04-1.92.22-.47.31-3.3,9.45-3.57,10.7-.17.8-.31,1.58-.21,2.4.77.07,1.1.12,1.66-.47.55-.58,4.53-12.37,4.04-12.84ZM22.24,62.43l-1.83-.07,3.86,13.26,1.85.06c.81-.78-3.46-11.42-3.87-13.25Z"/>
  <path class="cls-1" d="M45.93,41.03c3.91-1.19,3.89,2.95,0,1.76-1.05-.32-1.05-1.44,0-1.76Z"/>
</svg>