<?xml version="1.0" encoding="UTF-8"?>
<svg id="Layer_1" data-name="Layer 1" xmlns="http://www.w3.org/2000/svg" viewBox="0 0 96 96">
  <defs>
    <style>
      .cls-1 {
        fill: #e2a793;
      }
    </style>
  </defs>
  <path class="cls-1" d="M73.23,12.53l15.64,39.18,3.63,1.88-1.24,1.23-87.6.35-2.74-1.58,3.66-1.9L20.21,12.53h53.03ZM70.86,14.9H22.58v36.84l.93.93h47.35V14.9ZM20.1,51.74v-23.84c-.93-.15-.78,1.16-.93,1.85-1.64,7.3-2.55,14.78-4.49,22.01.25,1.38,5.01,1.32,5.42-.03ZM73.33,27.9v23.84c.59,1.34,5.17,1.42,5.42.03-1.95-7.24-2.86-14.71-4.49-22.01-.16-.69,0-2-.93-1.85ZM15.78,29.76l-8.43,21.62c-.36,2.23,4.7,1.1,5.21-.38.62-6.32,3.08-12.94,3.76-19.15.07-.68.55-2.23-.54-2.08ZM77.05,29.76l3.86,21.2c.62,1.94,2.71,1.95,4.4,1.62l.77-1.2-9.04-21.62Z"/>
  <path class="cls-1" d="M73.16,57.74c6.36-1.4,8.1,7.41,9.28,12.13,2.2,8.83,2.41,16.33-8.81,17.46-3.53.36-13.17.39-16.71,0-5.52-.59-8.45-4.61-7.59-10.06,1.31-8.27,8.74-4.66,14.05-8.24,3.99-2.69,6.13-10.49,9.77-11.29ZM53.05,83.48c6.2,1.44,25.59,4.12,28.05-3.53,1.01-3.15-2.17-14.17-3.74-17.37-3.55-7.23-6.88,2.64-8.98,5.26-1.8,2.25-4.51,4.26-7.29,5.09-3.35,1-6.75-.06-8.79,2.96l2.47,1.24-.39,1.61-2.14.96.81,3.78Z"/>
  <path class="cls-1" d="M17.46,57.74c6.65-1.47,7.73,8.3,12.96,11.54,4.85,3.01,10.94.11,13.04,6.15,2.07,5.94-.43,11.18-6.95,11.91-4.4.49-18.52.46-22.15-1.38-5.87-2.97-4.94-9.35-3.74-14.61.82-3.61,3.03-12.77,6.84-13.61ZM41.15,76.81c-.69-4.02-5.1-2.89-8.32-3.75-1.45-.39-3.41-1.31-4.64-2.17-6.2-4.34-8.62-20.04-13.94-3.34-1.96,6.17-4.85,15.18,3.97,17.04,3.47.73,14.6.7,18.31.29,3.28-.36,5-1.71,4.67-5.18l-2.49-1.07-.04-1.81h2.48Z"/>
  <path class="cls-1" d="M71.18,70l1.54.94c.42,1.69-4.03,5.5-5.25,5.25-3.04-.61,3.07-5.39,3.71-6.19Z"/>
  <path class="cls-1" d="M64.67,78.04c-.27.41-7.01,1.27-7.42.62-1.64-2.58,4.73-2.35,6.45-3.01.89.19,1.32,1.87.97,2.4Z"/>
  <path class="cls-1" d="M74.3,63.23c.97-.32,1.55.15,2.11.89-3.22,9.03-4.94.03-2.11-.89Z"/>
  <path class="cls-1" d="M21.66,70c.83-.16,7.27,5.6,4.31,6.19-1.18.24-7.35-4.42-4.31-6.19Z"/>
  <path class="cls-1" d="M36.2,76.83v1.84s-7.42-.62-7.42-.62c-.47-4.32,4.88-1.1,7.42-1.22Z"/>
  <path class="cls-1" d="M17.94,63.2c2.4-.75,3.6,4.58,1.84,4.94-1.42.29-3.51-4.54-1.84-4.94Z"/>
</svg>