<?xml version="1.0" encoding="UTF-8"?>
<svg id="Layer_1" data-name="Layer 1" xmlns="http://www.w3.org/2000/svg" viewBox="0 0 96 96">
  <defs>
    <style>
      .cls-1 {
        fill: #e2a793;
      }
    </style>
  </defs>
  <path class="cls-1" d="M67.12,88.99h6.05s.36-.33.31-.41c-5.52-3.57-3.68-12.79,2.74-14.18,8.83-1.92,13.81,8.77,6.9,14.28l2.06.65c.43.76.09,1.46-.74,1.7l-77.16-.15c-.91-.42-.34-1.9.05-1.9h13.23v-23.89c0-.12-.67-.69-.93-.72-.58-.08-1.76.36-2.45.41C6.41,65.58.03,53.01,6.99,44.8-2.24,31.66,12.64,14.98,26.71,23.28c2.38,1.4,5.65,4.76,6.24,7.52.33,1.56-1.29,1.89-2,.75-1.37-2.16-1.46-3.45-3.72-5.31-10.86-8.95-26.17,3.51-19.13,16.26.33.6,1.42,1.77,1.42,2.3,0,.45-1.44,2.04-1.83,2.71-2.59,4.47-1.71,9.73,2.32,12.98,3.19,2.57,6.77,2.45,10.55,1.43l.02-23.88c.1-.76,1.05-.92,1.64-.62.55.28.61,1.5.61,2.05v17.74c3.87.29,6.34-2.76,4.96-6.5-.22-.6-1.33-1.88-.24-2.43,1.63-.81,2.6,2.21,2.78,3.38.67,4.39-3.12,8.17-7.5,7.6l.03,4.89c4.04,2.4,9.48,1.79,12.69-1.71.72-.79,1.46-2.99,2.74-2.14,1.6,1.06-1.64,4.07-2.54,4.8-2.62,2.14-5.97,2.88-9.31,2.54-.99-.1-2.85-1-3.32-1-.7,0-.3.47-.3.51v15.59s-.38.6.28.5c.1-.02,1.42-.88,1.83-1.05,2.36-.97,4.45-.85,6.51-1.49.48-.15,2.24-1.81,3.09-2.25.99-.51,5.23-2.35,5.23-.23,0,1.18-1.18,1.02-1.93,1.27-1.39.47-2.43.81-3.63,1.7-.36.26-1.4,1.43-1.59,1.5-2.14.87-5.03.32-7.73,1.89-1.74,1.01-2.19,1.98-2.18,3.98,0,.24.01.27.22.42h15.59c.47-.75.4-1.58.88-2.4.38-.64,1.04-.92,1.26-1.61l2.46-24.4c1.54-1.29,2.09.43,1.87,1.87l-2.06,22.04,2.45.2,7.19-25.47c.53-.6,1.37-.86,1.85-.07.61,1.01-.78,3.23-.72,4.44l6.45,21.31,2.46-.41-3.49-30.15c-1.53.47-3.1.87-4.67,1.17-1.1.21-5.68,1.03-6.41.79-1.02-.33-.79-1.78.2-2.08,1.23,0,10.82-1.63,10.88-2.26-1.38-5.3-3.29-10.44-5.12-15.59.2-5.07,1.92-11.16,1.42-16.18-.37-3.67-4.04-7.56-6.56-10.06l-1.64,1.44c1.87,1.96,4.41,4.65,4.9,7.4.2,1.14.25,2.91.24,4.09-.02,1.69-.27,5.8-.67,7.33-.13.5-.42.8-.92.94-.36.06-.74-.1-.97-.39-.55-.7.24-4.69.29-5.83.22-4.75.36-6.67-2.76-10.36-1.58-1.87-5.2-3.87-5.43-6.28-.21-2.24,2.31-4.14,4.56-3.32,2.11.77,7.75,7.5,9.05,9.61,2.27,3.71,2.23,5.66,1.96,9.93-.19,3.03-1.53,8.87-1.21,11.47.25,2.01,2.15,6.03,2.86,8.22,1.07,3.3,1.61,5.39,2.05,8.82,1.34,10.51,2.46,21.05,3.69,31.58.57.82,1.45,1.22,1.88,2.22.26.61.39,1.33.37,1.99ZM45.28,7.03c-1.84.62-1.22,2.55.38,2.97l1.56-1.51-1.95-1.46ZM57.69,88.99l.61-2.38-5.64-19.36-5.4,18.42c-.08.86,1.24,2.17.99,3.32h9.43ZM77.32,76.33c-7.42,1.17-6.03,12.61,1.57,11.82,7.93-.82,6.38-13.07-1.57-11.82ZM46,88.99c.15-2.09-1.61-2.53-3.37-2.24-.88.14-2.13,1.43-1.45,2.24h4.82ZM59.95,88.99h4.82l.23-.42c-.42-2.72-5.39-2.55-5.05.42Z"/>
  <path class="cls-1" d="M40.82,40.24c1.75,3.25,4.39,6.69,4.11,10.56-2.19,1.58-2.1-1.78-2.67-3.29-.55-1.45-1.55-2.75-2-4.25-.75.7-1.44,2.7-1.14,3.7.38,1.27,3.05,4.89,4.01,6.04.68.82,1.91,1.31,2.21,2.71.56,2.66-2.24,4.63-4.47,3.24-2.57-3.4-6.99-6.08-8.5-10.16-1.55-4.19.9-10.76,4.1-13.73.64-.6,3.09-2.52,3.38-.71.2,1.23-1.5,1.82-2.36,2.76-2.2,2.41-4.21,7.44-3.24,10.63.36,1.18,1.41,2.58,2.21,3.53.35.41,2.79,2.88,3.04,2.84.11-.02.72-.47.86-.59.11-.1.22-.19.31-.3-1.49-2.11-3.87-4.68-3.69-7.39.08-1.22,1.34-4.55,2.08-5.5.59-.75,1.05-.49,1.76-.08ZM42.04,54.98c-.27.03-1,.54-.94.86.51.43.72,1.42,1.47,1.33,1.64-.24-.02-2.24-.53-2.2Z"/>
  <path class="cls-1" d="M36.84,31.09c-1.21-1.07-2.34-4.4-2.34-5.98,0-.74.41-1.52.4-2.23-.01-1.21-.54-2.21-.36-3.69.33-2.79,3.24-4.32,5.8-3.17,1.38.62,2.09,2.04,3.01,2.52.42.22,1.05.25,1.56.49,2.55,1.21,4.12,5.43,3.74,8.12-.09.65-1.68,4.19-2.07,4.9-.45.8-1.14,1.41-2.05,1.64-2.63.68-5.36-1.57-7.68-2.6ZM40.46,18.85c-.55-1.29-2.99-1.47-3.54-.15-.2.49-.07,1.03-.35,1.49l.4.2c.97-.89,2.26-1.19,3.49-1.54ZM46.41,25.01c-.98-4.11-2.79-5.22-6.82-3.64-3.16,1.24-3.42,3.85-2.1,6.72,1.17-.65.72-3.68,1.38-3.96,1.7-.73,5.79.19,7.54.89ZM45.77,27.09c-.23-.36-4.38-1.34-5.08-1.03.08.96-1.4,2.75-1.17,3.47.39,1.26,1.58,1.13,2.43,1.49.71.29.69.94,1.8.68,1.28-.3.82-.88,1.07-1.61.15-.44.78-.83.93-1.53.06-.29.14-1.28.02-1.46Z"/>
  <path class="cls-1" d="M76.3,12.14c10.49-1.44,10.69,15.22-.2,13.63-7.33-1.07-7.32-12.6.2-13.63ZM74.17,15.44c-4.42,3.92,1.37,11.13,6.18,7.31,5.1-4.05-1.28-11.65-6.18-7.31Z"/>
  <path class="cls-1" d="M67.28,61.67c-.35.36-1.25.3-1.59-.05-.34-.35-.88-6.35-1.09-7.52-1.08-6.18-3.34-12.24-5.84-17.96-.33-1.26,1.25-2.1,1.97-.93.82,1.32,1.87,4.37,2.45,5.96,1.71,4.61,3.24,9.87,3.92,14.74.14,1.02.76,5.19.19,5.77Z"/>
  <path class="cls-1" d="M71.7,32.33c-.56-.67.76-3.84,1.31-4.01.52-.16,1.17.1,1.39.59.38.84-1.15,5.29-2.7,3.42Z"/>
  <path class="cls-1" d="M64.11,15.1c-.84-.6-.46-1.97.65-2,.38,0,2.43.72,2.76.95.92.64.68,1.99-.32,2.09-.16.02-2.93-.93-3.09-1.04Z"/>
  <path class="cls-1" d="M86.67,13.79c.44-.59,4.24-2.37,4.23-.37,0,.91-2.67,2.14-3.37,2.13-.86-.02-1.39-1.05-.86-1.76Z"/>
  <path class="cls-1" d="M64.09,25.17c-1.17-2.03,5.44-3.98,4.16-1.19-.32.7-3.59,2.17-4.16,1.19Z"/>
  <path class="cls-1" d="M72.82,5.78c.48.46,1.55,3.05,1.06,3.72-1.37,1.9-3.63-3.07-2.51-3.79.37-.24,1.13-.25,1.45.07Z"/>
  <path class="cls-1" d="M83.27,5.57c.63.63-.65,3.94-1.5,4.06-2.59.35-.4-4.21.43-4.32.28-.04.87.06,1.07.26Z"/>
  <path class="cls-1" d="M90.86,23c.23.23.32.92.22,1.24-.25,1.46-4-.32-4.18-.67-.44-.86.02-1.71,1.02-1.66.26.01,2.82.98,2.93,1.09Z"/>
  <path class="cls-1" d="M81.63,28.11c1.48-.39,2.94,3.66,1.9,4.17-1.27.63-1.69-.67-2.09-1.6-.33-.77-1.11-2.22.19-2.57Z"/>
  <path class="cls-1" d="M90.45,88.41c1.36-.36,2.12,1.77.73,2.18-1.87.56-1.9-1.87-.73-2.18Z"/>
</svg>