<?xml version="1.0" encoding="UTF-8"?>
<svg id="Layer_1" data-name="Layer 1" xmlns="http://www.w3.org/2000/svg" viewBox="0 0 96 96">
  <defs>
    <style>
      .cls-1 {
        fill: #e2a793;
      }
    </style>
  </defs>
  <path class="cls-1" d="M57.4,62.87h28.68c3.29,0,5.61,3.97,4.98,7.05-.39,1.89-2.82,4.34-4.78,4.34h-3.83l5.97,15.69c.18.78-.34,1.88-1.15,2.07-1.07.24-5.99.2-7.2.06-.46-.05-.82-.16-1.14-.52l-6.85-17.27h-25.63l-6.85,17.27c-.32.36-.68.46-1.14.52-.95.11-6.52.15-7.21-.05-.5-.14-1.36-1.27-1.14-1.87l5.97-15.9c-8.21.54-14.6-2-20.08-7.98-3.08-3.36-7.01-7.97-9.73-11.6-4.79-6.37,1.99-12.85,7.97-8.17,4.9,4.68,10.33,15.79,17.6,16.37l16.03-.04,9.35-28.96c-1.79.66-2.06-.94-2.9-1.96-1.67-2.01-4.29-2.72-6.79-2.04-.87.24-1.31.92-2.33.6-.93-.29-1.45-1.96-2.26-2.71-1.41-1.29-3.42-1.76-5.29-1.55-1.29.14-2.05,1.21-3.36.67-1.99-.82-.43-3.69.18-5.09C43.82.15,73.75-2.52,86.94,17.07c4.68,6.95,6.87,18.15,3.66,26.08-.55,1.35-2.02,1.77-3.06.65-1.39-1.51-1.44-2.93-4.09-3.58-2.45-.59-2.99.28-4.88.64-1.98.38-2.06-1.47-3.15-2.55-1.27-1.26-3.32-1.9-5.08-1.75-1.54.13-3.13,1.73-4.35.21l-8.59,26.09ZM58.43,7.57c-8.79,1.24-16.93,6.91-20.5,15.12,2.57-.14,5.24.74,7.14,2.48,3.06-6.88,7.1-13.22,13.36-17.6ZM65.47,8.4c-8.45,2.07-13.75,10.28-16.98,17.81,2.72-.2,5.46.61,7.45,2.49,1.8-5.48,4.14-10.77,6.8-15.88l2.73-4.42ZM66.71,32.01c1.26-4.75,2.64-9.54,3.29-14.42.27-2.02.6-4.6.45-6.61-.03-.37-.24-2.17-.53-2.16-5.3,5.65-7.85,13.51-10.66,20.61-.07.47.04.23.26.25.74.04,1.57-.04,2.3.07,1.79.29,3.41,1.26,4.89,2.26ZM77.48,35.32c1.35-6.6,1.86-14.16-1-20.44-.58-1.27-1.38-2.75-2.52-3.59-.16,7.5-2.12,14.74-3.93,21.95,1.58-.43,3.77.15,5.25.85.36.17,2.01,1.41,2.2,1.22ZM80.59,36.57c2.62-.14,5.38.47,7.35,2.28.27,0,.49-1.78.52-2.17.62-8.34-2.14-16.38-8.28-22.05,2.44,7.06,2.39,14.78.41,21.95ZM53.85,62.85l9.26-28.75-.11-.32-2.07-.5-9.33,29.6,2.26-.02ZM9.49,48.42c-1.29.3-1.99,2.28-1.15,3.34,6.94,7.22,11.79,18.18,23.05,18.99l55-.1c2.1-1.09,1.72-3.97-.73-4.26h-53.45c-9.77-.57-14.03-10.97-20.18-17.09-.8-.8-1.32-1.16-2.55-.88ZM42.9,74.26h-3l-5.49,14.29h2.9l5.59-14.29ZM84.11,88.55l-5.38-14.2-2.91-.09,5.38,14.29h2.9Z"/>
  <path class="cls-1" d="M14.48,3.91c16.66-1.81,18.5,23.08,2.63,24.37C.95,29.6-.95,5.58,14.48,3.91ZM14.27,7.42c-2.7.37-5.5,2.83-6.47,5.33-2.81,7.28,4.21,14.3,11.49,11.49,9.2-3.55,6.25-18.35-5.02-16.82Z"/>
</svg>