<?xml version="1.0" encoding="UTF-8"?>
<svg id="Layer_1" data-name="Layer 1" xmlns="http://www.w3.org/2000/svg" viewBox="0 0 96 96">
  <defs>
    <style>
      .cls-1 {
        fill: #e2a793;
      }
    </style>
  </defs>
  <path class="cls-1" d="M57.62,42.89c-1.4.43-2.91-1.54-3.76-1.46-1.57.15-2.31,2.07-6.2,1.43-1.62-.27-2.91-2-3.1-2s-1.48,1.73-3.1,2c-3.87.64-4.56-1.24-6.2-1.41-1.03-.11-1.86,1.19-3.02,1.42-9.08,1.78-8.66-7.62-7.04-13.7,3.53-13.24,19.51-21.38,32.43-21.63.25-.23-.74-5.03,1.27-4.61,1.7,1.1,1.32,2.82,1.29,4.61,14.15.34,31.72,10.46,32.81,25.85.39,5.53-.95,10.99-7.85,9.39-1.22-.28-2.5-1.92-2.67-1.92-.16,0-1.45,1.64-2.67,1.92-1.6.37-4.01.28-5.46-.47-.53-.27-1.42-1.45-1.6-1.45-.31,0-1.82,2.47-5.64,2.04-2.08-.23-3.37-2.04-3.58-2.04-.2,0-2.17,2.41-3.33,2.03v25.62h13.58c.26,0,2.2.77,2.57,1.01,1.14.72,8.01,10.51,8.56,11.94,1.63,4.25-2.14,7.36-6.4,6.38-2.42-.56-5.44-7.19-7.3-9.08h-7.43c.79,2.67,7.79,11.46,7.13,13.51l-.81.76-9.18-.4-8.42-13.62-15.81-.17-8.54,14.26h-8.71l-.72-.84c-.62-2.02,6.14-10.98,7.13-13.5-3.26.26-5.56-.34-7.28-3.23-3.89-6.56-6.25-16.4-10.03-23.29-1.02-4.01,3.43-7.03,7.05-5.5,2.43,1.02,3.9,7.5,4.95,7.86l29.42.3c2.87,1.3,3.93,4.6,2.03,7.21-.3.42-2.01,1.78-2.32,1.78h-9.48v4.61h17.42v-25.62ZM26.88,33.66h19.47c-1.76-8.43,1.3-17.14,7.68-22.8-3.24-.5-7.06.95-10.08,2.22-8.5,3.57-16.24,10.98-17.07,20.59ZM68.38,33.66c2.48-6.65-2.25-19.88-8.73-22.79-1.97-.89-5.36,2.99-6.63,4.62-3.94,5.05-5.61,11.89-4.11,18.18h19.47ZM90.42,33.66c-.83-9.74-8.47-16.95-17.08-20.58-3.05-1.29-6.77-2.77-10.08-2.22,6.13,5.34,9.44,13.95,7.81,22.06l.64.75h18.7ZM34.05,36.23h-7.17c-.68,5.65,7.5,5.83,7.17,0ZM43.28,36.23h-7.17c-.16,5.85,7.77,5.66,7.17,0ZM52.5,36.23h-6.67c-.7,5.68,7.62,5.92,6.67,0ZM62.23,36.23h-7.17c-.49,5.71,7.64,5.76,7.17,0ZM71.46,36.23h-6.66c-1.03,5.85,7.71,5.82,6.66,0ZM81.19,36.23h-7.17c-.49,5.71,7.64,5.76,7.17,0ZM90.42,36.23h-6.67c-.95,5.93,7.36,5.67,6.67,0ZM12.39,49.13c-.56.17-1.16.74-1.32,1.3-.26.9.16,1.66.41,2.48,2.11,6.89,7.08,14.36,9.37,21.37l1.55,1.53,49.3.4c2.69.51,5.18,7.89,6.93,8.95,1.78,1.08,4.52-.01,4.02-2.44-.12-.58-5.84-9.04-6.59-9.85-.69-.75-1.37-1.44-2.41-1.69l-48.83-.36-9.3-20.42c-.62-1.28-1.79-1.68-3.14-1.27ZM21.76,57.23c-.32.82,1.35,4.1,1.79,4.1h25.62c.38,0,1.58-1.62,1.31-2.28.03-.53-1.05-1.82-1.31-1.82h-27.41ZM37.64,63.9h-13.32l2.31,4.61h11.02v-4.61ZM34.05,78.76c-1.63.18-4.09-.51-5.42.47-.53.38-6.84,10.87-6.36,11.31l5.04-.08,6.74-11.7ZM67.36,90.54l-6.36-11.31c-1.33-.97-3.79-.29-5.42-.47l6.77,11.67,5.02.11Z"/>
  <path class="cls-1" d="M17.51,16.1c-3.81,3.8-9.29-2.72-5.25-6.02,3.66-2.99,8.66,2.62,5.25,6.02Z"/>
  <path class="cls-1" d="M20.02,15.24c.99-.26,4.23,1.25,3.79,2.79-.72,2.49-7.09-1.9-3.79-2.79Z"/>
  <path class="cls-1" d="M16.07,18.87l-.03,3.7c-2.9,3.31-3.37-3.9-1.21-4.14l1.24.44Z"/>
  <path class="cls-1" d="M14.33,2.92c2.44.57,2.41,3.86.5,5.12-1.81.38-1.68-4.87-.5-5.12Z"/>
  <path class="cls-1" d="M23.74,9.52c-.18.33-4.04,2.56-4.54.82-.75-2.59,6.29-3.91,4.54-.82Z"/>
  <path class="cls-1" d="M6.66,7.54c.93-.24,4.03,1.86,3.82,2.81-.99,1.89-4.62-.25-4.63-1.52l.81-1.29Z"/>
  <path class="cls-1" d="M8.8,15.31c.92-.23,1.14,0,1.68.68.62,2.28-5.13,4.02-4.61,1.54.07-.34,2.46-2.1,2.93-2.22Z"/>
</svg>