<?xml version="1.0" encoding="UTF-8"?>
<svg id="Layer_1" data-name="Layer 1" xmlns="http://www.w3.org/2000/svg" viewBox="0 0 96 96">
  <defs>
    <style>
      .cls-1 {
        fill: #e2a793;
      }
    </style>
  </defs>
  <path class="cls-1" d="M49.45,64.01h22.01c1.84,0,3.55,2.54,3.58,4.29.03,1.83-1.65,4.48-3.58,4.48h-19.09v10.23c0,.08.77-.08,1.32.78.6.94,2.58,5.97,2.89,7.15.26.99.31,1.71-.73,2.21l-15.86-.06c-.78-.44-.87-1.06-.7-1.88.19-.91,2.49-6.66,2.99-7.43.55-.86,1.32-.7,1.32-.78v-10.23h-19.09c-1.84,0-3.55-2.54-3.58-4.29-.03-1.83,1.65-4.48,3.58-4.48h22.01v-27.31l-26.44-9.18-16.2-.05c-1.04-.16-1.46-1.22-1.06-2.14.25-.56,3.98-2.71,4.81-3.23,9.82-6.1,22.27-13.52,33-17.6,6.28-2.39,8.43-2.38,14.71,0,11.05,4.2,23.82,11.85,33.92,18.15.86.53,3,1.67,3.58,2.27.94.98.45,2.4-.91,2.56-5.19.6-11.46-.49-16.77.04l-25.71,9.18v27.31ZM9.45,24.55h77.09l-4.81-2.95c-9.33-4.95-19.05-11.55-29.07-14.95-3.92-1.33-5.25-1.36-9.19-.05-7.11,2.37-13.95,6.72-20.62,10.07l-13.4,7.89ZM36.39,27.48h-7.03l11.6,4.02-4.57-4.02ZM46.53,27.48h-5.48l5.48,4.75v-4.75ZM54.94,27.48h-5.48v4.75l5.48-4.75ZM66.08,27.48h-6.49l-4.57,4.02,11.05-4.02ZM71.69,67.35c-.25-.25-.94-.42-1.31-.43H25.61c-2.13,0-2.36,2.69-.18,2.94l45.59-.09c1.05-.21,1.41-1.68.67-2.42ZM49.45,72.78h-2.92v10.23h2.92v-10.23ZM42.88,90.32h10.23l-1.66-4.36c-2.29-.04-4.6-.04-6.9,0l-1.66,4.36Z"/>
  <path class="cls-1" d="M3.74,53.82c.78-.17,1.49.12,1.79.88l7.02,20.93,17.82.08c4.57.74,6.08,6.25,2.5,9.22.28.38.57.76.79,1.19.62,1.18,2.26,4.02,2.56,5.11.44,1.63-1.23,2.68-2.39,1.65-.91-.8-2.05-4.5-3.01-5.76-.66-.87-1.39-1.1-2.46-1.19-6.01-.52-12.83.33-18.92.09-.97.27-1.48.63-1.97,1.5-.65,1.17-1.68,5.3-2.76,5.64-1.39.44-2.22-.59-1.94-1.94.21-1,1.65-4.35,2.2-5.29.98-1.69,2.59-2.75,4.57-2.92,6.53-.56,13.84.44,20.45,0,2.56-.64,2.52-3.79,0-4.36-5.94-.44-12.59.52-18.44,0-.45-.04-.74-.05-1.09-.37l-7.72-22.61c-.21-.77.22-1.66,1.01-1.84Z"/>
  <path class="cls-1" d="M91.42,53.82c1.21-.26,2.1.63,1.84,1.84l-7.72,22.61c-.35.32-.65.33-1.09.37-5.86.53-12.51-.43-18.45,0-2.53.66-2.56,3.68,0,4.36,6.61.45,13.93-.56,20.45,0,1.87.16,3.54,1.21,4.5,2.8.55.92,2.05,4.42,2.26,5.41.28,1.35-.55,2.38-1.94,1.94-1.09-.35-2.11-4.47-2.76-5.64-.49-.87-1-1.24-1.97-1.5-6.09.24-12.91-.6-18.92-.09-1.07.09-1.8.33-2.46,1.19-.96,1.26-2.1,4.96-3.01,5.76-1.16,1.02-2.83-.02-2.39-1.65.3-1.09,1.94-3.93,2.56-5.11.22-.42.51-.8.79-1.19-3.59-2.97-2.07-8.48,2.5-9.22l17.82-.08,7.29-21.39c.17-.19.44-.36.69-.42Z"/>
  <path class="cls-1" d="M47.04,7.07c1-.11,2.25-.13,2.41,1.15.24,1.94-1.68,1.63-2.92,1.99-2.7.78-5.23,2.04-7.83,3.1-1.82-.14-2.36-1.78-.7-2.86,1.55-1.01,7.23-3.18,9.04-3.38Z"/>
  <path class="cls-1" d="M33.7,12.54c1.76-.35,2.59,1.68,1.21,2.67-1.12.81-3.74,2.3-4.33.17-.36-1.28,2.12-2.64,3.13-2.85Z"/>
</svg>