<?xml version="1.0" encoding="UTF-8"?>
<svg id="Layer_1" data-name="Layer 1" xmlns="http://www.w3.org/2000/svg" viewBox="0 0 96 96">
  <defs>
    <style>
      .cls-1 {
        fill: #e2a793;
      }
    </style>
  </defs>
  <path class="cls-1" d="M87.21,90.34c-.22-.24-.36-1.05-.39-1.4l-.08-59.33-22.44-21.83-30.21,6.67-2.34,3.98.25.25,28.11-5.41c.41-.04.92-.12,1.32-.04.22.04,2.51,2.17,2.92,2.55,5.07,4.76,9.84,9.89,14.88,14.68.34.07.21-.07.29-.21.64-1.09.84-3.64,2.43-3.53,1.74.12.78,2.2.87,2.39.33.75,2.32,1.61,2.15,2.8l-.1,58.13c-1.08,1.35-2.53.49-2.48-1.1l-.08-56.77-.51-.51c-.77,1.11-.41,2.14-1.96,2.48-5.12,1.15-10.85,1.3-16.01,2.47-1.53.07-2.03-1.92-.59-2.48l13.86-2.22c-4.8-4.51-9.29-9.43-14.11-13.92-.32-.3-2.39-2.19-2.56-2.2l-27.98,5.28c-.08.33.12.33.29.48.26.24,2.25,1.84,2.4,1.89.54.15,1.13-.47,1.69-.48,1.1-.03,1.88,1.25,1.1,2.13-.25.28-.65.4-.99.55-2.72,1.21-6.65,2.53-9.53,3.46-.74.24-1.55.67-2.32.43-.94-.29-.95-1.73-.16-2.22l7.35-2.66c.09-.33-.14-.33-.29-.48-.93-.94-2.89-1.96-3.65-2.84-.21-.25-.35-.52-.35-.86,1.28-2.76,2.69-5.56,4.37-8.11,4.99-1.33,10.09-2.37,15.14-3.5,5.26-1.17,11.15-2.79,16.39-3.61.41-.06.77-.23,1.19-.12.39.11,3.16,2.77,3.72,3.3,6.95,6.59,13.6,13.52,20.52,20.15l.1,61.04c-.08,1.03-1.52,1.43-2.19.72Z"/>
  <path class="cls-1" d="M38.12,47.48c-.24-.3-.28-.86-.22-1.22.23-1.32,2.27-1.76-1.11-1.98-4.05-.27-9.17.57-11.89,3.85-.12.15-.82,1-.69,1.1,1.1-.09,2.04.38,2.96.89,2.44,1.34,6.22,4.07,5.92,7.2-.06.57-.59,1.41-.42,1.81l3.18,3c2.95-.76,5.29,1.81,4.32,4.66-.32.93-2.39,3.01-3.3,3.36-1.38.53-2.97.33-4.02-.76-.9-.93-1.74-3.62.05-3.9,1.64-.26,1.27,1.79,1.82,2.2.96.93,3.26-1.6,3.15-2.28-.24-1.51-1.35-.28-1.94-.28-1.34,0-3.69-3.39-4.99-4.08-1.45.65-2.35,1.26-3.99.74-1.26-.4-5.38-3.37-6.16-4.44-.61-.83-.94-1.96-1.03-2.98l-4.44.51c-.12.17,1.96,2.46.16,3.66-.3.2-1.33.37-1.19.69.57.93,2.5,2.23,2.57,3.25.07.93-.63,1.59-1.56,1.38l-2.73-2.49c.04.58.35,1.12.08,1.7-.24.53-3.69,3.26-3.33,3.75,3.65,2.67,7.22,5.57,11.1,7.96.87.86.18,2.47-1.06,2.26-.63-.11-2.51-1.74-2.77-1.68-1.37,2.06-2.88,3.89-4.81,5.46-.72.58-3.08,2.44-3.89,2.36-1.05-.1-1.53-1.3-.81-2.1,2.88-1.9,5.64-4.08,7.31-7.17-.04-.49-7.12-4.96-7.55-6.24-1.36-2.02,2.97-4.8,3.12-5.56.11-.56-.86-1.34-.29-2.35.39-.69,1.2-.57,1.85-.8-.38-1.5,0-2.54,1.72-2.38-.45-1.11-1.65-2.43-.59-3.57,1.03-1.11,5.48-.62,6.98-1.4.82-.42,1.52-2.45,2.02-3.28,4.06-6.64,11.69-7.29,18.76-6.11l8.5-13.97c.98-1.24,2.83-.44,2.2,1.35l-10.95,17.75c-.42.65-1.61.71-2.08.13ZM23.32,51.84c-.5.09-1.41.76-1.43,1.24,0,.14.79,2.48.96,2.73.44.63,4.13,3.32,4.84,3.54,1.09.35,2.73-1.14,2.85-2.2.18-1.54-1.76-2.83-2.85-3.62-1.38-1-2.57-2.03-4.38-1.7Z"/>
  <path class="cls-1" d="M43.77,46.29c-.99-1.09.1-2.67,1.72-1.97,4.42,1.93,8.48,9.3,9.15,13.91,1.65,11.34-4.15,21-15.11,24.31-4.53,1.37-10.17.59-12.61,5.34-.57,1.12-.78,3.5-2.54,2.94-1.69-.54.04-3.7.62-4.69,3.39-5.77,9.91-4.46,15.46-6.59,12.61-4.83,16.16-21.91,6.33-31.07-.78-.72-2.54-1.64-3.03-2.18Z"/>
  <path class="cls-1" d="M77.36,66.26c-.45.53-3.83,1.31-4.78,1.8-1.67.85-2.61,3.67-3.59,5.3-1.41,2.35-2.9,4.67-4.67,6.78-.27.33-1.07.91-1.2,1.2-.28.61.38,3.57.43,4.51.05.8.11,3.96-.17,4.45-.43.77-1.66.81-2.14.07-.53-.82-.19-3.7-.27-4.85-.11-1.64-.66-3.28-.65-4.92,2.79-2.59,4.73-5.64,6.67-8.88,1.05-1.75,1.83-4.17,3.51-5.38.78-.57,1.44-.65,2.21-1.04.18-.09.32.09.24-.35-4.83-2.23-9.76-3.72-14.91-5.01-.79-.2-2.58-.21-2.84-1.09-.86-2.86,3.73-1.31,5.1-.99,4.19.97,8.81,2.59,12.72,4.38.76.35,3.78,1.72,4.21,2.12.49.46.56,1.4.13,1.91Z"/>
  <path class="cls-1" d="M57.01,18.54c.38-.12,1.01-.1,1.35.13l11.29,11.27c.44,1.3-.98,2.29-2.06,1.38l-11.13-11.09c-.23-.5,0-1.51.56-1.68Z"/>
  <path class="cls-1" d="M58.9,31.85c.63-.11,1.39.43,1.43,1.08l-2.79,10.55c-1.01,1.25-2.56.51-2.32-1.11.43-2.99,2.17-6.54,2.69-9.61.13-.38.6-.83.99-.9Z"/>
  <path class="cls-1" d="M67.28,37.66c1.52-.31,1.58,1.24,1.73,2.3.38,2.7.43,5.48.85,8.18-.02,1.32-1.76,1.78-2.37.69-.19-.34-.25-.98-.31-1.4-.43-2.81-.38-5.71-.89-8.51.01-.56.44-1.14.99-1.25Z"/>
  <path class="cls-1" d="M48.9,19.59c1.13-.96,2.31.48,3.03,1.22.75.76,3.63,3.57,4,4.2.72,1.25-.61,2.43-1.77,1.76-.65-.37-3.3-3.18-3.95-3.91-.71-.79-2.46-2.31-1.32-3.28Z"/>
  <path class="cls-1" d="M38.19,25.88c.41-.12.78-.03,1.14.16.4.21,4.52,3.57,4.8,3.91.84,1.04-.13,2.51-1.39,2.08l-5.11-4.13c-.59-.57-.17-1.81.56-2.03Z"/>
  <path class="cls-1" d="M41.11,20.42c.45-.09.69,0,1.06.23.61.39,3.9,3.37,4.28,3.92.91,1.29-.31,2.62-1.6,1.94l-4.38-3.99c-.68-.67-.28-1.92.64-2.1Z"/>
  <path class="cls-1" d="M70.01,54.32c-1.44,1.52-3.16-1.4-2-2.6,1.65-1.72,2.98,1.56,2,2.6Z"/>
  <path class="cls-1" d="M19.48,31.09c-1.26-1.56,1.71-3.18,2.69-1.92,1.22,1.58-1.77,3.05-2.69,1.92Z"/>
</svg>