<?xml version="1.0" encoding="UTF-8"?>
<svg id="Layer_1" data-name="Layer 1" xmlns="http://www.w3.org/2000/svg" viewBox="0 0 96 96">
  <defs>
    <style>
      .cls-1 {
        fill: #e2a793;
      }
    </style>
  </defs>
  <path class="cls-1" d="M46.55,22.59c11.88-.99,21.13,10.12,18.16,21.67-.27,1.06-.97,2.25-1.2,3.19-.17.72.89.57,1.41.53,3.36-.28,4.18-3.29,8.95-2.8,2.96.3,4.42,3.12,7.71,2.79,2.36-.24,3.91-2.47,6.36-2.77,1.09-.13,2.96-.06,2.22,1.52-.36.76-1.22.47-1.84.61-3.34.76-4.04,3.27-8.45,2.74-2.74-.32-4.15-2.69-6.86-2.8-4.08-.16-5.23,4.13-10.76,2.51-2.45-.71-3.33-2.63-6.28-2.51-3.33.13-4.42,3.27-8.94,2.81-3.05-.31-4.36-2.94-7.56-2.81-3.33.13-4.39,3.27-8.94,2.81-3.05-.31-4.36-2.94-7.56-2.81-3.28.13-4.38,3.19-8.77,2.82-2.64-.22-3.33-1.63-5.3-2.43-1.13-.46-3.44-.06-3.21-1.69.17-1.23,2.35-.8,3.2-.57,2.29.62,3.52,2.64,6.2,2.59,3.39-.05,4.43-3.24,9.13-2.83,2.77.24,4.27,2.6,6.84,2.81.52.04,1.59.2,1.41-.53-.23-.94-.93-2.13-1.2-3.19-2.67-10.4,4.6-20.79,15.28-21.67ZM47.25,24.69c-9.94.49-16.74,10.39-13.66,19.87.16.5.67,1.82.98,2.19.22.26.15.14.38.04.41-.18.86-.63,1.4-.89,2.19-1.02,4.6-1.06,6.79,0,1.01.49,1.8,1.3,2.87,1.69,4.37,1.57,5.53-2.05,9.09-2.42,2.29-.23,4.36.3,6.14,1.75,5.78-10.19-2.39-22.81-13.99-22.23Z"/>
  <path class="cls-1" d="M22.86,53.12c3.87-.18,5.61,2.98,8.71,2.94,2.54-.03,4.12-2.24,6.55-2.77,4.84-1.06,6.38,2.81,9.95,2.77,2.54-.03,4.12-2.24,6.55-2.77,4.84-1.06,6.38,2.81,9.95,2.77,3.49-.04,4.97-3.83,9.79-2.77,2.02.44,3.33,2.02,5.05,2.5,1.08.3,3.25-.11,3.16,1.39-.11,1.77-3.64.75-4.68.31-1.55-.66-2.53-1.95-4.36-2.14-4.7-.47-6.14,4.69-12.14,2.14-1.55-.66-2.53-1.95-4.36-2.14-4.7-.47-6.14,4.69-12.14,2.14-1.55-.66-2.53-1.95-4.36-2.14-4.7-.47-6.14,4.69-12.14,2.14-1.55-.66-2.53-1.95-4.36-2.14-3.29-.33-3.78,1.35-6.31,2.28-.99.36-4.01,1.18-4.28-.31-.3-1.65,2.03-1.23,3.13-1.54,2.25-.63,3.33-2.54,6.29-2.67Z"/>
  <path class="cls-1" d="M22.51,61.2c2.94-.27,3.75.74,6,1.97,5.04,2.77,6.63-1.99,11.15-2.04,2.56-.03,3.39.96,5.35,2.04,5.04,2.77,6.63-1.99,11.15-2.04,4.72-.05,6.21,4.89,11.44,1.98,2.07-1.15,2.87-2.09,5.58-1.96,1.27.06,5.36,1.19,4.56,2.98-.61,1.37-2.62-.36-3.59-.62-4.55-1.22-6.22,4.22-12.11,2.28-1.48-.49-2.5-1.61-3.87-2.1-4.42-1.57-6,2.62-10.27,2.56-3.41-.05-5.35-3.01-8.23-2.98-3,.04-4.67,3.12-8.45,2.97-4.08-.16-5.74-4.25-10.18-2.47-.7.28-2.59,1.83-2.89.08-.27-1.57,3.12-2.54,4.35-2.66Z"/>
  <path class="cls-1" d="M23.73,69.25c.47-.09,1.66.24,2.15.41,1.83.65,2.89,2.19,5,2.37,4.4.39,5.8-4.38,11.5-2.37,1.83.64,2.89,2.19,5,2.37,4.39.38,5.81-4.38,11.5-2.37,1.72.61,2.91,2.15,4.83,2.37,3.24.36,3.82-1.4,6.29-2.32.95-.35,3.14-1.06,3.12.65-.01,1.14-1.84,1.12-2.71,1.51-1.62.73-2.41,1.84-4.46,2.21-4.85.9-6.25-2.83-9.78-2.78-3,.04-4.66,3.05-8.38,2.95-3.39-.09-5.18-2.99-8.12-2.95-2.95.04-4.65,2.99-8.25,2.96-2.81-.02-3.7-1.45-5.81-2.4-.73-.33-2.31-.42-2.61-1.08-.28-.61.07-1.41.74-1.55Z"/>
  <path class="cls-1" d="M38.47,77.34c4.25-.58,4.6,1.39,7.65,2.44,4.24,1.46,5.51-2.12,9.16-2.49,4.05-.41,4.43,1.49,7.34,2.49.98.34,2.84.13,2.75,1.45-.12,1.78-3.26.73-4.28.25-.99-.47-1.77-1.3-2.87-1.69-4.31-1.55-5.59,2.04-9.26,2.42-4.54.46-6.04-2.98-9.48-2.81-2.19.1-3.27,1.58-5.08,2.29-.96.37-3.49,1.17-3.75-.31-.26-1.48,1.71-1.25,2.72-1.59,1.84-.63,2.84-2.13,5.1-2.44Z"/>
  <path class="cls-1" d="M38.3,85.41c4.19-.57,4.4.97,7.47,2.27,4.43,1.87,5.69-1.95,9.33-2.31.61-.06,1.67-.06,2.28,0,1.1.11,4.73,1.29,3.17,2.81-.82.8-2.15-.5-3.21-.67-4.7-.74-6.14,4.4-11.98,2.32-2.63-.94-3.23-2.87-6.72-2.32-1.1.17-2.48,1.56-3.3.58-1.22-1.46,1.91-2.54,2.95-2.68Z"/>
  <path class="cls-1" d="M18.56,24.06c-.71-.86.06-2.17,1.18-1.81l9.46,5.47c1.39.93.39,2.57-1.04,1.92l-9.61-5.58Z"/>
  <path class="cls-1" d="M77.43,24.06l-10.1,5.75c-1.32-.06-1.65-1.35-.54-2.09l9.46-5.46c1.2-.28,1.81.8,1.18,1.81Z"/>
  <path class="cls-1" d="M47.59,5.72c.73-.22,1.4.17,1.46.92-.35,3.46.43,7.72,0,11.08-.17,1.35-1.99,1.28-2.12,0,.35-3.45-.44-7.73,0-11.08.05-.38.26-.8.66-.92Z"/>
  <path class="cls-1" d="M70.23,38.72c1.09-.2,5.13-.18,6.26-.03,1.75.24,1.64,2.03.18,2.26-1.05.16-5.43.17-6.47,0-.53-.08-1.17-.56-1.17-1.13.02-.64.64-1,1.2-1.1Z"/>
  <path class="cls-1" d="M19.34,38.72c1.09-.2,5.13-.18,6.26-.03,1.71.24,1.74,2.01.18,2.26-1.05.17-5.42.16-6.47,0-1.41-.22-1.56-1.95.03-2.23Z"/>
  <path class="cls-1" d="M61.98,13.97c.95-.28,1.63.46,1.38,1.37-.73.95-3.08,6.03-3.91,6.28-.92.28-1.73-.45-1.37-1.37.72-.94,3.07-6.03,3.91-6.28Z"/>
  <path class="cls-1" d="M33.2,13.97c.63-.19.88,0,1.28.41.55.56,2.87,4.65,3.26,5.52.67,1.51-.57,2.35-1.59,1.42-.96-1.8-2.53-3.78-3.33-5.62-.25-.58-.4-1.49.39-1.73Z"/>
</svg>