<?xml version="1.0" encoding="UTF-8"?>
<svg id="Layer_1" data-name="Layer 1" xmlns="http://www.w3.org/2000/svg" viewBox="0 0 96 96">
  <defs>
    <style>
      .cls-1 {
        fill: #e2a793;
      }
    </style>
  </defs>
  <path class="cls-1" d="M1.84,50.89c.71-2.76,2.99-4.8,5.93-4.71,1.04-4.43,5.5-7.65,10.03-7.38.7.04,2.04.55,2.5.5.2-.02,2.25-1.44,2.95-1.71,4.58-1.75,9.42.05,12.06,4.09.73-.31,1.39-.77,2.11-1.1.64-.3,1.55-.2,1.39-1.13l-2.36-14.26c-.3-.62.91-2.07,1.37-2.07h4.24l-1.26-11.63c-2.13-9.48,14.12-10.74,14.57-1.8l-1.41,13.43h4.24c.45,0,1.67,1.45,1.37,2.07l-2.16,13.78c.42-.03,1.16.4,1.49.33.13-.03,1.33-.99,1.68-1.18,4.63-2.57,10.46-.92,13.14,3.58,5.29-3.39,11.18-2.21,14.58,3.07.24.36.46,1.18.65,1.33.26.22,1.6.43,2.17.71,3.51,1.79,4.08,6.67,1.26,9.39-1.79,1.73-3.98,1.58-6.31,1.54-2.15,9.56-4.15,19.18-6.59,28.66-.92,2.28-2.65,4.01-4.83,5.09l-2.65.87H24.02c-3.32-.73-6.17-2.76-7.48-5.95l-6.59-28.66c-3.76.44-7.11-.79-8.11-4.7v-2.16ZM50.17,23.12l1.28-13.44c.08-.63-.59-1.53-1.14-1.75-.53-.22-3.72-.24-4.33-.1-1.11.25-1.43,1.41-1.39,2.39.17,3.7.87,7.81,1.26,11.54.05.45-.02.91,0,1.35h4.33ZM55.22,26.91h-14.43l2.01,12.95c2.01.41,3.66,1.31,5.27,2.54,1.46-1.55,3.1-2.7,5.17-3.32l1.98-12.18ZM32.85,46.2c-.73-4.59-5.77-7.1-9.64-4.14-.64.49-1.16,1.42-2.03,1.58-.93.18-2.08-.76-3.2-.87-2.35-.22-5.27,1.08-6.04,3.42h20.92ZM71.26,46.2c-.58-4.63-5.86-7.06-9.64-4.14-.67.52-1.12,1.45-2.04,1.58-.84.12-2.1-.77-3.2-.86-2.56-.23-4.95,1.13-6.04,3.42h20.92ZM46.02,46.2c-2.16-3.37-7.3-3.33-9.56,0h9.56ZM84.61,46.2c-2-2.77-5.97-3.37-8.66-1.18-.31.25-.86.75-.9,1.18h9.56ZM7.75,50.04c-.74.07-1.78.5-1.94,1.31-.58,2.95,2.62,2.65,4.6,2.62,24.96-.44,50.22-.5,75.18,0,1.22.02,3.92.24,4.47-1.14.62-1.54-.34-2.77-1.94-2.8-.31,0-.68.16-1.07.15-25.79-.24-51.59.13-77.38,0-.7,0-1.14-.22-1.92-.14ZM82.08,57.74H13.92l6.08,26.83c.98,2.71,3.15,3.82,5.9,4.01,14.43-.7,29.69.9,44.02,0,2.7-.17,4.77-1.05,5.94-3.62l6.22-27.23Z"/>
  <path class="cls-1" d="M69.4,75.35c-1.02,1.02-2.55,1.58-3.99,1.69H30.42c-6.82-.62-7.49-9.92-.89-11.53h36.94c4.48.96,6.2,6.56,2.93,9.84ZM30.28,69.33c-1.78.44-1.96,2.71-.45,3.61h36.33c1.65-1.01,1.26-3.44-.76-3.65l-35.13.05Z"/>
</svg>