<?xml version="1.0" encoding="UTF-8"?>
<svg id="Layer_1" data-name="Layer 1" xmlns="http://www.w3.org/2000/svg" viewBox="0 0 96 96">
  <defs>
    <style>
      .cls-1 {
        fill: #e2a793;
      }
    </style>
  </defs>
  <path class="cls-1" d="M.63,87.3c.29-1.06,2.13-3.14,3.24-3.14h13.6v-6.66h-2.87c-1.85,0-3.99-2.68-3.8-4.53v-39.96c.03-1.23,1.21-2.21,2.32-1.39.15.11.64.72.64.84v33.21h16.74c.2,0,1.59.41,1.88.52,3.44,1.29,6.67,7.88,9.26,8.31l36.04.05c4.28-.28,8.36-3.65,9.39-7.82,2.17-8.77-5.45-12.34-12.51-14.19-2.93,3.26-4.32,10.24-10.09,7.83-2.01-.84-4.5-2.43-6.43-3.56-3.65-2.12-9.3-5.3-12.44-7.91-1.57-1.3-.55-3.12,1.23-2.52,4.48,2.86,8.88,5.87,13.5,8.51,1.53.88,3.81,2.34,5.38,2.95.95.37,1.49.27,2.26-.41l3.88-6.2-2.84-1.27c-.52.09-1.34,2.01-1.9,2.36-1.07.67-2.42-.1-2.29-1.35.07-.71,1.65-2.04,1.4-2.51l-3.53-2.2c-.96.86-1.75,3.47-3.41,2.46-1.77-1.08.18-2.78.91-3.87l-3.46-2.28c-.56-.14-1.28,1.44-1.72,1.91-.6.63-1,1.11-1.91.63-2.19-1.16,1.13-3.76.91-4.23l-3.53-2.37c-.95.81-1.66,3.4-3.3,2.53-1.94-1.03.16-3.05.99-4.14l-4.8-3.35-.29.1c-.78,1.45-4.44,4.57-4.47,6.06-.05,2.31,5.28,3.05,4.28,5.42-.83,1.96-4.21-.83-5.17-1.67-4.87-4.26.59-8.08,3.23-11.56-1.95-1.47-2.93-3.34-2.96-5.83-1.35-.14-4.83.63-4.94-1.42-.03-.63.74-1.54,1.33-1.54h3.61c-.2-1.22.38-4.74-.26-5.56-.16-.2-.54-.45-.79-.5H14.82l-1.05.98c-.32,2.79.43,6.53-.05,9.2-.34,1.89-2.67,1.85-2.92-.33-.22-1.97-.18-6.32,0-8.32.22-2.43,1.5-4.02,3.98-4.35,7.1.52,15.21-.7,22.19,0,1.42.14,2.83.97,3.46,2.28.1.2.52,1.4.52,1.51v5.09c8.04-.58,17.12,1.53,24.61-1.94,4.16-1.93,9.14-6.33,8.28-11.43-.48-2.82-4.08-3.27-5.97-1.43-.91.89-.63,2.47-2.39,2.21-1.16-.17-.94-1.03-1.4-1.75-.19-.29-1.55-1.62-1.86-1.84-3.29-2.3-7.45.56-5.94,4.46.56,1.43,2.96,3.94,3.08,5.03.13,1.16-1.46,2.01-2.43,1.07-.55-.53-2.12-2.9-2.55-3.65-4.82-8.49,5.79-14.45,11.45-7.39,2.94-3.27,8.75-2.63,10.41,1.62,2.16,5.56-2.38,11.32-6.82,14.18-8.62,5.57-18.75,3.37-28.47,3.81-.14,1.49.22,2.28,1.31,3.22,2.71,2.33,6.97,4.93,10.03,6.99,6.36,4.29,13.83,9.37,20.79,12.51,4.43,2,9.09,2.7,12.92,5.95,4.04,3.43,5.2,8.55,3.56,13.54-.81,2.45-2.45,4.58-4.39,6.25,6.74,2.21,5.59,11.84-1.57,12.4h-50.14c-.96,0-1.61-1.15-1.25-1.99.07-.16.62-.79.69-.79h39.5v-6.66h-30.25c-4.92,0-7.69-8-11.18-8.8-.42-.1-1.14-.31-1.33.17-.93,2.26-1.49,6.76-3.69,7.96-.29.16-1.51.66-1.75.66h-3.79v6.66h8.05c.89,0,1.49,2.47-.38,2.76l-23.63.05c-1.42.46-1.39,2.21-.03,2.73l80.26-.02c5.67-.92,9.13-6.47,7.41-11.99-.42-1.36-2.65-3.65-1.11-4.65,1.87-1.21,3.4,2.47,3.81,3.8,2.49,7.99-3.34,15.64-11.56,15.83H4.97c-2.27-.2-3.51-1.26-4.34-3.34v-2.03ZM26.71,68.61h-12.95v5.09s.36.6.45.66l10.15.13c.99-.29,1.98-4.82,2.35-5.88ZM75.18,84.15h8.42c.42,0,1.47-.47,1.85-.74,2.4-1.76,1.55-5.92-1.47-6.29-2.86-.35-5.94.44-8.79.37v6.66Z"/>
</svg>