<?xml version="1.0" encoding="UTF-8"?>
<svg id="Layer_1" data-name="Layer 1" xmlns="http://www.w3.org/2000/svg" viewBox="0 0 96 96">
  <defs>
    <style>
      .cls-1 {
        fill: #e2a793;
      }
    </style>
  </defs>
  <path class="cls-1" d="M12.52,16.98v22.8c2.87-3.07,6.36-5.14,10.65-5.5h46.44c2.3.31,4.51.97,6.5,2.16,10.73,6.43,6.48,19.61,7.32,29.99,7.45,4.42,9.27,14.41,3.49,21.05-6.74,7.73-19.52,5.44-23.12-4.11-3.99-10.59,5.41-20.99,16.26-18.26v-5.49h-40.84c-4.33,0-7.91-7.93-12.05-8.42-1.28-.15-3.75.48-4.35-.92-1.51-3.49,5.04-2.6,6.8-1.95,3.37,1.25,7.73,7.91,10.24,7.91h40.21v-3.38h-6.02c-2.12,0-4.1-2.93-4.13-4.96-.03-2.11,1.9-5.17,4.13-5.17h3.69c.09-.37-.15-.42-.32-.63-1.94-2.54-5.27-4.17-8.45-4.43H23.6c-5.08.02-11.08,5.53-11.08,10.66v16.78c6.46-1.79,13.52,1.82,15.93,8.02.4,1.02.47,2.17.78,3.02.06.17.11.29.3.33l28.68.02c2.14.21,2.13,3.18,0,3.39l-28.68.02c-.3.1-.79,2.57-1.03,3.19-3,8.01-13.07,11.16-20.19,6.36-8.27-5.56-7.82-18.01.78-22.92l.06-49.43c-5.89-2.34-3.62-10.88,2.79-9.79,4.85.83,5.43,8.32.58,9.66ZM12.04,11.13c-1.53-1.53-3.95.88-2.41,2.41,1.53,1.53,3.95-.88,2.41-2.41ZM74.68,49.49c1.53.27,3.77-.2,5.38,0l-.54-3.39c-1.39.23-4.58-.43-5.64.42-1.04.84-.47,2.74.8,2.97ZM14.79,68.12c-13.03,1.44-11.11,21.18,1.84,20.2,13.49-1.01,11.62-21.69-1.84-20.2ZM75.58,68.12c-13.04,1.44-11.12,21.18,1.84,20.2,13.48-1.01,11.6-21.68-1.84-20.2Z"/>
  <path class="cls-1" d="M44.35,3.96c4.32-.41,8.66.63,12.27,3.02,1.27.84,5.09,3.52,2.49,4.98-1.6.9-3.22-1.36-4.6-2.24-5.09-3.27-11.5-3.24-16.56.08-1.2.79-3.61,3.66-4.93,1.78-.94-1.36.07-2.27,1.03-3.14,2.58-2.37,6.82-4.14,10.3-4.47Z"/>
  <path class="cls-1" d="M49.8,18.74c5,4.76-2.48,12.24-7.24,7.24-4.49-4.72,2.52-11.73,7.24-7.24ZM47.5,21.26c-1.53-1.53-3.95.88-2.41,2.41,1.53,1.53,3.95-.88,2.41-2.41Z"/>
  <path class="cls-1" d="M44.77,10.71c2.68-.3,5.11.21,7.44,1.52,1.33.75,3.57,2.07,2.79,3.86-1.01,2.33-3.18-.14-4.21-.75-2.82-1.7-6.17-1.7-9,0-.6.36-1.52,1.39-2.03,1.56-1.97.64-3.15-1.46-1.6-3.08,1.42-1.48,4.58-2.87,6.61-3.1Z"/>
  <path class="cls-1" d="M17.1,47.84c2.47-.54,2.9,2.87.96,3.29-2.47.54-2.9-2.87-.96-3.29Z"/>
  <path class="cls-1" d="M14.79,71.49c9.41-1.28,10.57,12.48,2.03,13.43-9.17,1.02-10.36-12.3-2.03-13.43ZM15.42,74.86c-4.97.73-2.79,8.63,2.03,6.26,3.32-1.63,1.62-6.8-2.03-6.26Z"/>
</svg>