<?xml version="1.0" encoding="UTF-8"?>
<svg id="Layer_1" data-name="Layer 1" xmlns="http://www.w3.org/2000/svg" viewBox="0 0 96 96">
  <defs>
    <style>
      .cls-1 {
        fill: #e2a793;
      }
    </style>
  </defs>
  <path class="cls-1" d="M95.56,77.64v1.49c-1.87,3.71-6.7,5.33-10.67,5.01-5.36-.43-7.65-5.21-11.51-5.21-2.87,0-3.66,1.66-5.68,3.06-4.03,2.79-9.45,2.92-13.6.26-1.52-.97-2.4-2.42-4.25-2.99-4.71-1.46-6.31,2.72-10.26,4.14-5.78,2.07-8.75.21-13.11-3.05-5.63-4.22-7.87,1.67-12.56,3.19-3.67,1.19-7.67.68-10.84-1.51-1.92-1.33-3.76-3.5-1.8-5.75,2.63-3.03,5.05,1,7.57,1.47,4.16.77,5.72-2.83,9.16-4.22,3.76-1.52,8.02-1.14,11.4,1.11,1.87,1.24,2.81,2.97,5.34,3.2,3.73.34,4.97-2.57,7.88-3.99,3.23-1.58,7.11-1.64,10.4-.17,3.17,1.41,4.5,4.59,8.43,4.15,2.39-.27,3.38-1.99,5.18-3.18,3.33-2.21,7.53-2.62,11.27-1.16,3.86,1.5,5.47,5.74,10.26,3.94,2.01-.76,2.73-2.8,5.25-2.01,1.17.37,1.63,1.21,2.12,2.24Z"/>
  <path class="cls-1" d="M95.56,64.09v1.67c-2.69,4.65-9.05,6.04-13.92,4.17-2.74-1.05-4.85-4.14-7.51-4.37-4.2-.36-5.52,3.1-9.15,4.42-5.54,2.02-8.72.28-12.96-2.92-5.64-4.26-7.47.86-11.79,2.68-4.06,1.72-8.47,1.24-12.05-1.31-1.19-.85-1.95-2-3.42-2.53-4.88-1.73-6.44,2.53-10.34,4.02-4.05,1.55-8.97.86-12.25-2.04-1.76-1.55-2.63-4-.32-5.52,2.75-1.82,3.83.78,5.76,1.57,4.89,1.99,6.49-2.23,10.21-3.78,3.67-1.53,8.19-1.21,11.51,1,1.45.96,2.51,2.48,4.25,2.99,4.52,1.33,6.07-2.48,9.68-3.99,3.69-1.54,7.84-1.21,11.25.88,1.6.98,2.63,2.55,4.5,3.11,4.44,1.31,5.72-2.16,8.99-3.75,3.01-1.46,6.85-1.56,9.96-.35,3.83,1.49,5.48,5.8,10.35,3.95,1.93-.74,2.21-2.58,4.88-2.09,1.25.23,1.78,1.21,2.36,2.18Z"/>
  <path class="cls-1" d="M55.27,44.41l-.37,13.18c-1.03-.21-1.95-.76-2.97-1.02-4.66-1.21-9.32-.17-13.17,2.62-.3.22-2.33,2.25-2.61,1.93l.33-17.04-13.28-7.98c-.77-.45-1.18-1.23-1.49-2.03.23-4.78-.23-10.1.14-14.82.4-5.08,6.37-4.49,6.47-.18.08,3.46-.22,7.11-.34,10.57-.02.44-.08,1.65.1,1.96l8.77,5.34c4.82.08,9.64-.03,14.43.24,1.64.09,2.57-.14,4.24.4,2.98.97,5.76,2.74,8.78,3.66l.56-.35,6.78-8.44c2.8-2.08,6.44.92,4.79,4.04-2.83,3.17-5.28,7.15-8.14,10.24-1.24,1.33-1.94,1.92-3.9,1.5l-9.09-3.82Z"/>
  <path class="cls-1" d="M45.02,19.96c7.91-1.09,11.69,9.26,5.04,13.4-5.95,3.7-13.11-2.26-10.66-8.8.85-2.25,3.2-4.26,5.62-4.6Z"/>
  <path class="cls-1" d="M12.9,36.85c1.52-.26,4.11,1.27,5.42,2.1,3.98,2.53,7.9,6.89,9.7,11.28.41,1.01,2.14,4.91-.11,4.76-1.02-.07-2.05-2.59-2.66-3.47-2.12-3.09-5.44-5.79-8.89-7.27-1.41-.6-4.24-1.09-5.18-2.06-1.72-1.79-.71-4.93,1.72-5.34Z"/>
  <path class="cls-1" d="M86.43,41.49c3.09-.22,4.72,3.83,2.17,5.71-1.25.92-3.39.72-4.95.99-2.68.45-5.75,1.63-8.01,3.13-1.52,1.01-2.68,2.41-4.15,3.48-.55.34-1.48-.26-1.55-.83-.14-1,2.65-4.44,3.44-5.28,2.62-2.79,9.24-6.92,13.06-7.19Z"/>
  <path class="cls-1" d="M74.72,11.78c2.43-.41,4.1,1.33,3.75,3.75-.32,2.19-2.85,2.53-4.5,3.49-3.37,1.95-6.07,5.2-7.96,8.56-.5.89-.84,3.13-2.37,2.45-1.07-.48-.37-2.75-.14-3.66.84-3.36,2.96-7.19,5.24-9.8,1.12-1.29,4.39-4.51,5.99-4.78Z"/>
</svg>