<?xml version="1.0" encoding="UTF-8"?>
<svg id="Layer_1" data-name="Layer 1" xmlns="http://www.w3.org/2000/svg" viewBox="0 0 96 96">
  <defs>
    <style>
      .cls-1 {
        fill: #e2a793;
      }
    </style>
  </defs>
  <path class="cls-1" d="M6.69,75.64c-4.92-.82-7.07-7.4-4.01-11.32,2.61-3.34,6.65-2.8,10.47-2.8-.22-2.98,1.21-5.87,3.97-7.11,2.07-.93,6.42-1.13,7.72-2.75,5.16-8.48,6.81-19.84,19.13-19.61,3.74.07,9.9-.32,13.2.67,8.52,2.56,10.11,12.94,14.65,19.44,5.1,1.9,11.84,2,11.22,9.36,3.38.03,6.68-.47,9.38,1.94,3.57,3.18,2.94,8.9-1.18,11.25-.31.17-1.82.93-1.99.93h-20.82c1.1,4.8,3.52,9.19.2,13.72-4.25,5.8-13.22,4.41-15.66-2.28l-2.07-7.54v5.97c0,.73-.92,2.82-1.33,3.54-4.49,7.83-16.69,4.15-16.69-4.27v-9.13H6.69ZM53.56,34.98l-8.76.36,4.02,6.21,4.75-6.57ZM40.66,52.27c3.15-.49,6.13.71,8.16,3.16l3.78-2.56-11.2-17.29c-.44-.61-1.57.01-2.19.26-6.58,2.58-8.44,12.95-12.42,18.26-2.6,2.7-9.05,1.47-10.41,5.18-.97,2.65,1.13,5.4,3.95,5.18l12.49-3.47c.37-3.45,1.95-6.04,4.88-7.9.5-1.45-1.62-6.02.46-6.61,2.6-.74,2.18,4.24,2.5,5.8ZM64.57,60.74l11.99,3.72c3.07-.35,4.69-3.84,2.67-6.32-2.06-2.53-7.55-1.34-9.97-4.4-3.75-4.73-5.63-14.68-11.24-17.49-.38-.19-.78-.35-1.19-.47l-6.16,8.55,5.26,8.19,2.73.49c.08-1.2,0-5.77.89-6.35,1.09-.7,2.4,0,2.44,1.31.06,1.99-.63,4.55-.66,6.61.61,1.05,1.51,1.67,2.08,2.8.54,1.07.73,2.25,1.14,3.36ZM46.17,88.71c.44-.44,1.24-1.74,1.43-2.34.76-2.44.63-14.85.36-17.9-.24-2.74-1.73-5.09-1.43-8.01.15-1.47,1.01-1.8-.14-3.32-2.83-3.7-9.45-1.99-10.34,2.58v26.02c1.04,4.58,6.74,6.37,10.12,2.98ZM54.72,55.5c-3.99.48-5.7,4.11-4.98,7.78,1.51,7.7,4.47,15.73,6.29,23.42,2.83,5.6,10.91,3.79,11.42-2.41-2.18-7.75-3.57-16.49-6.11-24.08-.99-2.96-3.32-5.1-6.62-4.7ZM32.87,63.96l-12.29,3.42c-1.23.1-2.42-.11-3.54-.62-.97-.44-2.23-1.95-2.81-2.06-.95-.18-6.52-.13-7.43.11-2.72.71-3.48,4.85-1.45,6.83.29.28,1.79,1.1,2.07,1.1h25.45v-8.77ZM65.5,64.2l1.99,8.11.35.38h20.4c4.77-.64,4.35-7.39.49-7.99-1.04-.16-5.83-.2-6.8-.01-.7.13-1.25,1.14-1.85,1.56-4.28,3.01-10.15-1.17-14.59-2.05Z"/>
  <path class="cls-1" d="M39.04,25.89c-12.72-12.61,6.63-31.66,19.04-19.16,12.48,12.57-6.51,31.58-19.04,19.16ZM47.42,5.83c-13.6,1.47-11.9,22.58,2.83,20.85,12.72-1.5,10.93-22.34-2.83-20.85Z"/>
  <path class="cls-1" d="M22.33,6.29c2.03-.36,3.25,3.36,3.25,4.95,0,3.34-2.98,4.48-2.96,6.82.01,2.41,3.31,3.57,2.92,7.52-.16,1.59-2.09,5.74-4,3.81-1.55-1.56,2.28-3.15.59-6.19-1.33-2.38-2.91-2.71-2.34-6.31.46-2.88,3.46-3.77,2.63-6.64-.3-1.06-2.64-3.52-.07-3.97Z"/>
  <path class="cls-1" d="M84.17,29.79c-.83.71-2.12.76-2.5-.4-.62-1.88,2.46-2.72.84-5.7-1.29-2.37-2.79-2.48-2.38-6.09.35-3.08,3.62-3.99,2.59-7.03-.34-1.02-2.28-2.87-.42-3.71,2.13-.96,3.63,3.03,3.66,4.62.07,3.44-2.82,4.53-2.95,6.83-.13,2.23,2.74,3.72,2.93,6.57.1,1.46-.66,3.96-1.78,4.91Z"/>
  <path class="cls-1" d="M14.04,7.27c1.96-.6,3.37,2.66,3.49,4.21.31,4-2.81,5.05-2.91,7.33-.09,2.02,1.91,2.98,2.53,4.74.72,2.04.38,5.68-1.6,6.91-1.04.65-2.45-.04-2.44-1.2,0-1.14,1.96-1.77,1.38-4.28-.45-1.94-2.77-2.74-2.84-5.95-.07-3.5,3.62-4.95,2.83-7.92-.23-.86-1.29-1.53-1.34-2.32-.03-.52.38-1.36.9-1.52Z"/>
  <path class="cls-1" d="M74.43,7.75c1.93-.59,3.39,2.63,3.49,4.21.27,4.04-2.85,4.99-2.91,7.34-.06,2.26,2.65,3.42,2.89,6.31.16,1.9-1.1,6.49-3.64,5.35-1.93-.87.33-2.73.61-3.76.76-2.75-2.76-4.31-2.83-7.68-.07-3.39,2.55-4.29,2.88-6.39.37-2.3-1.32-2.67-1.4-3.85-.03-.52.38-1.36.9-1.52Z"/>
</svg>