<?xml version="1.0" encoding="UTF-8"?>
<svg id="Layer_1" data-name="Layer 1" xmlns="http://www.w3.org/2000/svg" viewBox="0 0 96 96">
  <defs>
    <style>
      .cls-1 {
        fill: #e2a793;
      }
    </style>
  </defs>
  <path class="cls-1" d="M17.8,41.53c-2.35,1.93-2.5,3.74-5.38,1.14-7.21-6.49-1.34-14.83,3.42-20.4,5.29-6.2,15.05-17.32,22.57-20.09,19.98-7.36,30.3,12.88,42.56,24.14,3.37,4.6,5.79,9.59,1.56,14.6-.64.75-2.65,2.51-3.57,2.65-1.21.19-2.9-3.04-3.92-3.68-1.64.63-.72,3.23-.69,4.63.35,16.7-.17,33.51-.15,50.19l-.36.67-54.99-.96c-.32-.28-.38-.63-.42-1.02-.31-2.7.07-6.29.01-9.12-.21-11.36-.43-22.79-.64-34.15-.05-2.86.06-5.74,0-8.6ZM70.61,40.91c.23.17,3.47-3.77,4.29-3.9,1.17-.18,3.13,3.32,4.09,4.07,5.98-3.88,3.39-9.87-.41-14.25C67.21,16.94,58.37-1.7,40.26,3.84c-7.82,2.39-19.1,15.17-24.32,21.65-3.93,4.87-7.35,10.94-1.53,16.03.59.1,3.87-3.73,4.64-4.22,1.82-1.16,1.99.91,2.72,2.02.48.74,1.16,1.53,1.75,2.2.61.13,2.69-2.98,3.28-3.31,1.45-.83,1.88.79,2.7,1.67.66.71,1.4,1.36,2.07,2.06.96-.81,2.75-4.74,3.93-4.74,1.1,0,2.85,3.59,3.76,4.31.32.06,2.06-1.32,2.45-1.64.6-.48,2.1-2.08,2.7-2.09,1.06,0,2.31,3.1,3.31,3.71,1.06-.71,2.16-1.28,3.14-2.11.42-.35.32-.93,1.21-.98,1.69-.1,2.73,2.12,3.9,2.89.84-.09,3.72-2.6,4.7-2.97,1.44-.53,2.64,1.96,3.62,2.78,2.63-2.49,4.71-5.65,6.32-.2ZM37.47,65.76l-.41-23.1-1.56-2.37c-1.05.81-2.34,4.43-3.71,4.34-.87-.06-3.65-3.15-4.36-3.93-.7.8-1.48,1.57-2.17,2.38-.47.55-.71,1.57-1.56,1.57-1.15,0-2.88-3.4-3.83-4.16l.5,24.86,17.1.4ZM53.21,65.76v-24.13c0-.06-.66-.76-.9-.71l-3.99,2.86c-1.59,1.51-3.85-3.4-4.11-3.28l-5.04,3.76c.33,2.62.11,5.3.16,7.94.07,3.78-.21,9.31.21,12.84.04.3.03.53.32.71h13.36ZM55.28,43.81v21.95l16.98.21c-.41-7.7-.13-15.47-.21-23.2-2.03,2.26-3.04-.72-4.04-2.28-.83.6-2.87,3.44-3.86,3.21l-3.18-2.97-4.67,2.96-1.03.11ZM36.43,67.83l-15.12-.21,7.76,10.77,7.35-10.56ZM52.17,67.83h-11.39l5.69,9.74,5.69-9.74ZM71.02,68.25l-14.7-.21,6.94,11.18,7.76-10.98ZM20.49,89.99l6.97-9.63-7.18-10.25.21,19.88ZM37.47,89.68v-19.16l-7.2,9.83,6.78,10.04c.22.08.4-.64.41-.72ZM39.75,89.57l5.37-9.84c-1.56-3.18-3.39-6.22-5.26-9.22l-.11,19.05ZM53.21,89.99v-19.26c-2.02,2.89-3.93,6.01-5.38,9.2l5.38,10.06ZM72.06,91.44v-20.71l-7.25,10.47,7.25,10.24ZM55.28,90.61l6.62-9.42-6.62-10.25v19.67ZM52.38,93.09l-5.9-10.97-6.11,10.77,12.01.21ZM36.23,92.89l-7.35-10.56-7.15,10.04.31.31,14.19.2ZM63.56,83.36c-.37-.26-.94.96-1.2,1.18l-5.84,8.55,14.08.21-7.04-9.94Z"/>
  <path class="cls-1" d="M55.8,13.25c.6,0,3.17,2.33,3.83,2.91,1.81,1.57,3.48,3.29,5.18,4.96.53.69.1,1.86-.77,1.94-.7.06-3.66-3.31-4.42-4-.83-.75-4.7-3.78-4.89-4.45-.05-.16-.1-.31-.05-.47.11-.54.56-.89,1.11-.89Z"/>
  <path class="cls-1" d="M30.58,24.38c.72-.22,1.55.34,1.51,1.08-.04.71-2.58,2.91-3.22,3.64-.82.94-4.24,5.67-4.98,5.8-.79.14-1.42-.27-1.34-1.13.05-.49,4.39-5.79,5.07-6.54.39-.42,2.67-2.78,2.95-2.86Z"/>
  <path class="cls-1" d="M68.68,25.63c.24-.07.53-.09.78-.04.39.07,3.28,2.96,3.95,3.52.86.71,4.05,2.84,4.46,3.41.77,1.05-.08,2.18-1.53,1.53-1.27-.56-5.19-3.94-6.35-5.04-.57-.54-3.16-2.82-1.3-3.38Z"/>
  <path class="cls-1" d="M33.28,33.61c-.89.86-2.36-.15-1.71-1.4l4.65-8.55c.85-.77,2.09-.28,2,.89l-4.94,9.06Z"/>
  <path class="cls-1" d="M19.5,28.43c-.89-.89.58-2.26,1.19-2.96.87-1,3.71-4.01,4.66-4.66.91-.62,1.85-.2,1.78.93-.05.83-2.4,2.55-3.13,3.31-.97,1.01-1.96,2.25-2.91,3.31-.37.38-1.23.43-1.6.07Z"/>
  <path class="cls-1" d="M59.76,29.59c-.7-.66-3.68-2.87-3.61-3.66.02-.23.37-.76.58-.86.74-.36,1.21.14,1.76.53.88.62,4.95,4.46,5.3,5.26.44,1.01.05,2.06-1.11,1.75-.55-.15-2.36-2.48-2.91-3Z"/>
</svg>