<?xml version="1.0" encoding="UTF-8"?>
<svg id="Layer_1" data-name="Layer 1" xmlns="http://www.w3.org/2000/svg" viewBox="0 0 96 96">
  <defs>
    <style>
      .cls-1 {
        fill: #e2a793;
      }
    </style>
  </defs>
  <path class="cls-1" d="M78.21,59.1c1.1,2.84,2.11,5.88,3.44,8.61.72,1.49,1.46,2.91,3.33,1.89,1.14-.63,1.46-2.05,2.89-2.31,1.11-.2,3.62-.03,3.1,1.7-.37,1.23-1.66.82-2.35,1.12-.31.14-1.01,1.09-1.39,1.39-2.03,1.63-5.13,1.66-7.2.08-.46-.35-.84-.97-1.31-1.29-2.22-1.48-3.15,1.03-4.83,1.91-2.43,1.26-5.17.92-7.35-.65-.81-.59-1.47-1.71-2.63-1.71-1.3,0-1.92,1.07-2.8,1.71-2.27,1.64-5.5,1.95-7.85.28-.56-.4-1.03-1.16-1.58-1.54-2.15-1.44-3.11.94-4.78,1.78-1.77.89-4.46.82-5.97-.58-.42-.39-.67-1.04-1.22-1.38-1.32-.84-1.6.6-2.33,1.3-1.79,1.74-5.54,1.82-7.67.72-1.11-.57-1.98-2.1-3.1-2.27-2.11-.32-2.46,1.33-4.06,2.16-2.22,1.15-6.37,1.17-8.55-.12-.8-.47-1.63-1.6-2.37-1.79-1.31-.34-4.71.57-4.12-2.03.19-.82,1.22-.93,1.95-.99,1.73-.15,3.62-.07,5.02,1.04.5.4.99,1.46,1.49,1.13l4.11-9.38c-.12-.82-3.09-.26-3.68-.25-1.73.03-6.69.25-8.03-.31-1.59-.67-1.39-4.22-1.26-5.68.12-1.3.53-2.35,1.99-2.52,2.62-.32,5.75.31,8.43-.07,1.37-1.05,1.64-3.32.51-4.69l-12.56-14.32c-1.13-1.39-1.16-3.56.16-4.84,3.84-2.25,7.83-6.26,11.72-8.23,1.88-.95,2.62-.22,3.89,1.11l19.38,22.77c3.52.43,6.89.38,10.4-.1,4.11-.55,9.07-1.98,13.08-2.19,1.38-.07,3.94,1.47,5.27,2.15,7.24,3.71,14.25,7.91,21.49,11.63,1.13.88,1.45,1.58,1.15,3.03-.15.72-1.9,4.38-2.35,5.11-.47.77-1.16,1.54-2.15,1.46-3.29-1.16-6.1-3.44-9.3-4.85ZM18.49,22.01c-.76.55-6.33,4.15-6.37,4.58-.02.2.04.38.18.53.93.73,4.53,5.73,5.31,5.81l6.29-4.63c.05-.29-.85-1.32-1.1-1.62-1.04-1.27-2.35-2.8-3.47-3.99-.19-.2-.58-.69-.84-.67ZM9.5,28.61c-.46-.27-1.58.58-1.65,1.1,0,.22,1,1.37,1.24,1.65,4.87,5.88,10.4,12.51,15.61,18.04,1.36,1.45,1.74,1.87,3.9,1.56L9.5,28.61ZM25.95,30.68c-.38.03-6.07,4.23-6.17,4.61-.08.32.46.89.68,1.17.3.39,2.52,2.97,2.72,3.02.4.1,5.74-4.16,6.46-4.75-.66-.45-3.21-4.09-3.7-4.05ZM32.02,37.47l-.56-.22-6.11,4.58,3.2,3.88.63-.18c.68-.73,5.51-3.9,5.64-4.43.07-.26-.04-.31-.15-.49-.6-1.02-2.06-2.03-2.66-3.15ZM36.71,43.51l-5.76,4.49c-.46.6,1.02,2.08,1.39,2.08l5.56-5.38c.08-.19-.71-1.32-1.19-1.19ZM63.42,43.88c-2.14.37-2.68,2.87-4.04,4.29l.18.35c1.45-.28,3.08-.4,4.15-1.57.27-.3,1.56-2.58,1.48-2.83-.13-.43-1.39-.3-1.77-.24ZM57.91,44.88c-1.17.08-2.46.1-3.46.79-.68.47-2.34,2.87-2.75,3.67-.1.19-.27.3-.21.57,1.04-.32,2.75-.25,3.63-.79.31-.19,2.35-3.14,2.61-3.63.11-.21.24-.33.17-.61ZM66.26,48.67c.81.24,2.57,1.76,3.32,1.56.58-.16,1.33-2.08,1.67-2.65l-3.17-1.81c-.38.07-2,2.6-1.83,2.9ZM50.46,45.92l-3.52.51c-.89,1.4-2.38,2.71-3.25,4.08-.14.21-.22.34-.17.61l3.74-.68,3.2-4.52ZM36.06,50.95h3.21c.19,0,.86-.68,1.04-.87.34-.34,2.75-3.21,2.83-3.42.06-.18.04-.38.03-.57-.76.07-1.72-.14-2.44.08-.32.1-4.03,3.75-4.41,4.26-.13.17-.33.22-.26.52ZM73.9,49.07c-.14.08-1.46,2.56-1.4,2.8l3.63,2.13,1.54-2.93c-.55-.42-3.28-2.28-3.77-1.99ZM73.35,56.32l-9.82-5.32c-8.18,1.31-16.09,3.31-24.44,3.25-9.28-.06-18.61-.33-27.92-.18-1.77.21-1.4,2.69.52,2.44,11.42-.56,23.53.73,34.87,0,5.87-.38,12.26-2.5,18.18-3.07,2.21.43,4.68,2.26,6.73,2.77.64.16,1.22.13,1.88.12ZM80.57,52.52c-.25.07-1.52,2.42-1.61,2.76-.05.19-.07.29.09.44,2.27,1.29,4.51,2.74,6.84,3.93.35.18.99.64,1.33.41.17-.11,1.59-2.79,1.3-3.22l-7.95-4.32ZM71.62,69.85c.05-.3-.04-.54-.14-.82-.66-1.99-3.18-6.72-4.28-8.73-.37-.67-.56-1.11-1.39-1.21-1.92-.23-4.41.09-6.43.01-2.05-.08-4.64-.59-6.59-.54-1.29.04-2.82.68-4.18.86-1.66.22-2.93.02-4.48.01-3.98,0-7.96-.01-11.94.04l-.62.42-3.67,6.75c-.06.67.84.68,1.38,1.04,1.27.86,1.58,2.25,3.58,2.34,2.77.11,3.23-3.01,6.23-2.96,2.66.05,2.61,1.45,4.1,2.51,2.26,1.6,3.41-1.91,5.84-2.46,4.51-1.01,4.9,2.67,7.96,2.89,2.4.17,2.92-2.12,4.88-2.72.87-.26,2.16-.33,3.06-.21,2.68.35,3.65,3.74,6.69,2.76ZM74.39,67.77c.6-.11,1.07-.53,1.69-.65.63-.13,1.42.21,1.75-.5-1.01-1.86-1.65-4.02-2.54-5.9-.4-.84-.74-1.54-1.76-1.72-.24-.04-2.83.08-3.01.13-.12.03-.35.2-.21.33l4.09,8.32ZM27.91,59.62l-4.29.04-4.3,9.66.09.44c.9.55,2.62-.95,3.3-1.56,1.63-1.47,2.82-3.59,3.84-5.52.23-.44,1.56-2.85,1.36-3.06Z"/>
</svg>