<?xml version="1.0" encoding="UTF-8"?>
<svg id="Layer_1" data-name="Layer 1" xmlns="http://www.w3.org/2000/svg" viewBox="0 0 96 96">
  <defs>
    <style>
      .cls-1 {
        fill: #e2a793;
      }
    </style>
  </defs>
  <path class="cls-1" d="M35.76,93.9c-1.74-.7-3.08-1.9-3.25-3.87.4-11.82-.51-23.96,0-35.73.26-5.9,1.55-12.38,1.53-18.21-.02-5.75-2.26-13.22-.49-18.63,1.3-3.99,3.49-8.04,4.95-12.01,1.53-2.58,5.56-2.21,6.51.63.48,1.44.02,2.32-.41,3.67-.84,2.59-3.72,8.49-3.72,10.79,0,1.01.49,2,.47,3.01.42.1.3-.08.41-.23,5.79-7.47,15.36.16,11.16,7.03-2.42,3.96-8.15,4.08-10.93.4-1.15-1.52-2.17-6.41-2.55-8.46-.74-4.04,2.28-8.97,3.53-12.9.35-1.11.96-2.15.18-3.25-.78-1.1-2.28-1.05-3.13-.05-1.86,5.46-5.8,11.11-5.52,17,.19,4.13,1.22,8.77,1.27,12.82.03,2.32-.6,5.19-.73,7.57-.03.53,0,1.06,0,1.59l4.14,2.72,9.25-1.69c.59-.31.19-3.09,1.49-3.05,3.51,1.32,6.82,3.32,10.43,4.3,2.33-.24,2.51-2.13,3.09-3.96.88-2.78,1.54-5.63,2.43-8.41.17-1.67-1.73-2.54-2.78-1.14-.78,1.18-2.54,7.79-3.24,8.3-.39.29-.85.21-1.25-.04-1.07-1.07-8.48-5.43-8.73-6.23-.33-1.03.3-1.3,1.22-1.04l7.94,5.32c.78-2.04,1.37-4.48,2.32-6.43,1.88-3.9,6.71-2.29,6.12,1.79-.31,2.16-2.23,8.31-3.07,10.46-.99,2.53-3.24,3.57-5.84,2.7-.98-.33-7.85-3.77-8.17-3.46l-1.44,10.1h10.55c1.96,0,4.41,1.86,5.27,3.57.94,1.86.92,3.35.36,5.31-1.1,3.86-3.42,9.61-5.04,13.35-.41.95-.72,1.73-1.57,2.39,2.12,1.46,3.81,3.9,3.06,6.58h-12.71c-.75-.67-.38-1.95-.1-2.81.62-1.92,2.33-3.81,4.34-4.23-.69-.9-1.2-1.98-1.08-3.15l2.34-9.83h-10.73c-1.31,0-3.94-1.57-4.88-2.52-3.06-3.1-2.37-6.71-2.46-10.71l-1.95-1.39-.19,37.62c0,3.07,4.01,3.88,5.25,1.08l3.51-21.56c1.28-.86,1.41.19,1.32,1.32-.53,6.62-2.48,13.65-3.12,20.33-.46,1.71-1.6,2.58-3.16,3.24h-2.16ZM46.35,21.97c-6.81,1.07-3.94,12.42,3.06,9.37,4.98-2.17,2.98-10.32-3.06-9.37ZM59.29,56.92h-11.54c-.81,0-.35-3.64-.27-4.33l-5.57.92c.08,1.63-.19,3.5,0,5.1.14,1.23,1.59,2.82.36,3.45-1.25.27-1.92-2.53-2-3.43-.07-.76-.1-5.85.08-6.22.13-.26.54-.38.8-.46,1.05-.29,6.03-.86,6.46-1.21l.58-2.84-9.11,1.64-4.23-2.54-.28,2.88,3.27,2.51c.35,2.55-.38,5.38.48,7.82,2.48,7.06,11.46,3.91,17.01,4.63.51.07,1,.39.95.95l-2.67,10.88c.32,2.63,3.4,3.37,4.67.88,1.39-4.61,3.92-9.29,5.26-13.86.94-3.22-.82-6.37-4.25-6.77ZM60.1,84.88c-1.19-5.47-8.86-5.56-9.92,0h9.92Z"/>
  <path class="cls-1" d="M5.46,32.39c.04-.46-.06-1,0-1.44.73-5.36,7.52-7.48,11.28-3.61,1.03,1.06,3.22,5.31.72,5.6-2.24.26-8.59.27-10.83,0-.51-.06-.78-.25-1.17-.55ZM16.82,31.12c-.94-5.41-8.79-5.54-9.56,0h9.56Z"/>
  <path class="cls-1" d="M78.81,51.2c2.51-.07,4.92,1.35,6.08,3.56.38.72,1.3,3.22.56,3.81l-.55.17c-3.71-.29-7.91.35-11.56,0-.81-.08-.94-.16-.99-.99-.23-3.38,3.23-6.45,6.46-6.54ZM83.9,57.1c-.92-5.65-8.79-5.48-9.92,0h9.92Z"/>
  <path class="cls-1" d="M19.66,65.81c3.27-.44,6.58,1.8,7.35,5,.23.95.59,2.36-.72,2.54-3.61-.27-7.64.33-11.2,0-1.56-.14-1.35-1.08-1.08-2.36.56-2.68,2.92-4.81,5.64-5.18ZM25.48,71.71c-1-5.72-8.9-5.66-9.92,0h9.92Z"/>
  <path class="cls-1" d="M73.44,33.47c-.43-2.75-2.66-4.15-5.33-4.16-.56,0-1.3.47-1.72-.07-.65-.83.23-1.42,1.02-1.53,2.62-.36,5.31.75,6.71,2.99.48.77,1.9,4.13.48,4.39-.48.09-4.08.08-4.47-.04-.84-.25-.44-1.59.14-1.59h3.16Z"/>
</svg>