<?xml version="1.0" encoding="UTF-8"?>
<svg id="Layer_1" data-name="Layer 1" xmlns="http://www.w3.org/2000/svg" viewBox="0 0 96 96">
  <defs>
    <style>
      .cls-1 {
        fill: #e2a793;
      }
    </style>
  </defs>
  <path class="cls-1" d="M14.16,92.95c-.21-.24-.32-.45-.36-.78-.1-.94-.08-2.92,0-3.88.21-2.3,2.28-4,4.57-3.77-.04-2.19-.23-4.61,1.77-6.04.28-.2,1.41-.81,1.65-.81h7.64c-2.65-3.59-3.79-8.15-5.64-12.18-1.88-.9-3.25-2.78-1.95-4.8.33-.52,1.49-1.45,2.06-1.45h16.42l-.86-9.58c-2.18-2.25-4.09-4.56-4.48-7.81-.7-.26-1.38-.23-2.1-.54-1.44-.61-2.36-2.11-3.07-3.43-.82-1.53-2.2-5.5-3.1-6.55-.69-.8-1.98-.55-2.18-2.39-.09-.85.87-2.7,1.66-2.7h17.29v-4.83c0-.1-.76-1.05-.86-1.77-.88-6.39,8.93-6.39,8.04,0-.1.72-.86,1.67-.86,1.77v4.83h17.29c.79,0,1.75,1.85,1.66,2.7-.2,1.84-1.49,1.59-2.18,2.39-.93,1.09-2.31,5.11-3.16,6.67-.68,1.24-1.66,2.74-3.01,3.31-.72.31-1.4.28-2.1.54-.37,3.26-2.32,5.55-4.48,7.81l-.86,9.58h16.42c.57,0,1.73.93,2.06,1.45,1.29,2.02-.07,3.9-1.95,4.8-1.87,4.03-2.99,8.59-5.64,12.18h7.64c.28,0,1.45.65,1.75.88,1.88,1.49,1.72,3.79,1.67,5.97,4.63-.11,4.92,4,4.57,7.65-.03.33-.15.54-.36.78H14.16ZM46.25,16.44c-3.17.46-2.47,5.46.97,4.84,2.84-.52,2.32-5.31-.97-4.84ZM48.04,22.72c-.92.26-1.9.26-2.81,0v3.51h2.81v-3.51ZM26.32,28.03c-.44.43-.11,1.29.47,1.46l39.08.09c1.38.1,1.85-1.58.35-1.77H27.23c-.28.02-.72.03-.91.23ZM64.72,31.15H28.56c-.03.19.02.35.08.53.38,1.23,2.28,4.95,3.01,6.12.64,1.04,1.24,1.92,2.52,2.22,7.84-.3,16.4.67,24.16.09,2.73-.2,3.37-2.4,4.44-4.51.24-.47,2.13-4.28,1.96-4.45ZM56.65,41.68h-20.01c.61,4.67,4.87,8.39,9.56,8.61,4.99.23,9.84-3.62,10.45-8.61ZM41.9,59.24h9.48l.7-8.6c-3.46,1.61-7.35,1.71-10.79,0l.61,8.6ZM24.3,60.86c-1.65.28-1.85,2.56-.05,2.77h44.78c1.61-.11,1.7-2.25.23-2.7l-44.96-.08ZM67.71,65.38H25.57c.87,2.29,1.73,4.61,2.73,6.84.99,2.23,1.97,5.36,4.9,5.45,8.69-.5,18.09.64,26.7,0,3.23-.24,3.94-2.89,5.08-5.46.99-2.23,1.85-4.56,2.73-6.84ZM73.15,84.52v-3.42c0-.7-1.71-2.06-2.54-1.85l-48.56.09c-.62-.02-1.92,1.28-1.92,1.77v3.42h53.02ZM15.39,88.12c-.18.89.13,2.29,0,3.25h62.5v-3.25c0-.65-1.59-2.11-2.37-2.02H17.93c-1.01-.02-2.34,1.06-2.54,2.02Z"/>
  <path class="cls-1" d="M33.87,8.63c-.77-.77.98-4.8,2.42-4.08,1.02.51-.17,1.5-.45,2.01-.37.69-.82,3.23-1.97,2.07Z"/>
  <path class="cls-1" d="M53.26,3.28c.73,0,1.23.9.58,1.44-.32.27-1.32.44-1.87.76-.5.29-1.49,1.53-2.08.56-.74-1.22,2.4-2.75,3.37-2.76Z"/>
  <path class="cls-1" d="M57.64,4.67c1.06-.1,3.06,3.92,1.69,4.32-1.19.35-1.11-1.01-1.48-1.79-.47-.99-1.91-1.86-.21-2.53Z"/>
  <path class="cls-1" d="M39.92,3.09c1.04-.31,4.55,1.48,3.58,2.71-.67.84-1.53-.39-2.14-.7-.52-.27-1.72-.39-1.88-.93-.12-.4-.01-.94.45-1.07Z"/>
  <path class="cls-1" d="M43.7,9.07c.41-.41,1.23-.28,1.36.4.09.5.06,3.6-.15,3.87-.48.61-1.29.25-1.41-.55-.09-.56-.1-3.41.21-3.72Z"/>
  <path class="cls-1" d="M35.23,16.14c-.15.92-1.58.52-1.58.18v-3.86c0-.56,1.58-.56,1.58,0,0,1.04.16,2.75,0,3.69Z"/>
  <path class="cls-1" d="M59.81,16.75c-2.02,1.03-1.71-2.19-1.59-3.43.16-1.59,1.59-1.15,1.59-.69v4.13Z"/>
  <path class="cls-1" d="M35.23,24.04c-.15.92-1.58.52-1.58.18v-3.86c0-.56,1.58-.56,1.58,0,0,1.04.16,2.75,0,3.69Z"/>
  <path class="cls-1" d="M58.88,20.11c.6-.16.86.22.93.76.08.59.09,3.53-.25,3.8-.84.67-1.27-.18-1.34-.97-.07-.79-.25-3.33.66-3.58Z"/>
  <path class="cls-1" d="M48.61,13.72c-.33-.34-.33-3.88-.06-4.27.32-.45.94-.45,1.26,0,.27.37.27,3.69,0,4.06-.23.33-.88.54-1.2.21Z"/>
  <path class="cls-1" d="M68.89,30.82c1.11-.15,2.08,3.69.17,3.11-.59-.18-1.43-2.94-.17-3.11Z"/>
  <path class="cls-1" d="M23.25,40.32c.45.45.45,3.34-.86,3.03-1.36-.31-.4-4.3.86-3.03Z"/>
  <path class="cls-1" d="M70.03,40.32c.33-.34,1.15-.22,1.33.25.2.54.47,2.44-.27,2.66-1.37.56-1.57-2.4-1.06-2.91Z"/>
  <path class="cls-1" d="M24.12,30.82c.29-.07.63.12.84.32.3.5-.15,2.6-.74,2.78-1.86.56-.89-2.91-.1-3.11Z"/>
  <path class="cls-1" d="M22.36,49.6c1.49-.43,1.77,4.17-.13,3.05-.42-.25-.78-2.79.13-3.05Z"/>
  <path class="cls-1" d="M71.18,52.52c-.28.28-1.04.27-1.32,0-.41-.4-.11-3.8,1.29-2.78.49.36.34,2.47.03,2.78Z"/>
</svg>