<?xml version="1.0" encoding="UTF-8"?>
<svg id="Layer_1" data-name="Layer 1" xmlns="http://www.w3.org/2000/svg" viewBox="0 0 96 96">
  <defs>
    <style>
      .cls-1 {
        fill: #e2a793;
      }
    </style>
  </defs>
  <path class="cls-1" d="M51.63,53.07c-13.74-1.79-32.14-9.68-37.99-23.12-1.15-2.65-4.74-13.99-1.54-15.35,3.43-1.45,2.46,6.01,2.87,7.88,2.79,12.72,15.04,21.01,26.76,24.73,2.3.73,12.47,2.35,12.94,2.82.49.49.5,6.89,2.39,7.98,1.21.7,3.66.25,5.43.72,4.55,1.23,5.18,6.79,11.79,3.39,6.06-3.12,5.22-10.29,5.1-16.04-18.67.1-45.51-7.82-41.57-31.15l2.34-.34c1.04,3.84.67,7.46,2.16,11.29,5.45,13.93,27.11,16.72,40.02,16.47,2,5.12.4,10.7.18,15.96,3.46-.06,5.32,2.71,7.83,4.08,2.07,1.13,5.89.08,3.98,4.44-6.41.9-7.89-5.15-13.04-4.68-3.99.36-5.47,5.14-11.51,4.72-5.74-.4-6.5-6.89-13.27-4.08-1.54.64-2.44,2.55-4.36,3.32-8.13,3.25-9.96-4.19-15.42-3.95-5.01.22-7.11,7.56-15.22,3.72-1.39-.66-2.12-2.1-3.34-2.81-2.37-1.36-6.83-.62-4.82-4.63l6.06.31C5.89,49.46.17,31.16,1.3,15.34c.69-.76,1.02-1.1,1.96-.37,1.26.98,2.04,12.89,2.65,15.79,2.96,14.06,11.32,27.3,26.94,28.24,2.01.12,3.87-1.09,6.76-.44,4.69,1.05,7.85,8.89,14.36,1.69l-2.34-7.18Z"/>
  <path class="cls-1" d="M34.56,69.32c1.96-.4,3.69-.33,5.62.19,4.11,1.09,4.68,5.71,10.19,4.08,1.39-.41,3.55-3.15,5.37-3.84,8.05-3.05,9.95,3.91,14.8,4.07,4.61.15,6.34-5.57,11.48-4.69,6.85,1.16-6.31,5.96-7.08,7.52-2.41,1.09-4.58,1.29-7.14.59-4.54-1.23-4.78-6.33-11.31-3.66-1.15.47-2.21,1.97-3.5,2.65-8.91,4.7-10.41-3.54-16.29-3.28-4.26.19-7.62,6.97-12.34,3.92v-2.37c4.46-.1,6.51-4.41,10.2-5.16Z"/>
</svg>