<?xml version="1.0" encoding="UTF-8"?>
<svg id="Layer_1" data-name="Layer 1" xmlns="http://www.w3.org/2000/svg" viewBox="0 0 96 96">
  <defs>
    <style>
      .cls-1 {
        fill: #e2a793;
      }
    </style>
  </defs>
  <path class="cls-1" d="M92.19,69.49c-.8,4.25-4.13,7.6-8.52,7.94-3.96.31-8.3-.27-12.3.02l-5.22,12.11c-1.98,1.71-3.87.26-3.08-2.22,1.28-4.08,3.95-8.32,5.31-12.45.36-.58.79-1.01,1.5-1.09,4.06-.48,12.92,1.03,16.1-.96,1.86-1.17,2.46-3.04,2.61-5.15.51-7.48-.38-15.56-.03-23.1-.04-4.51-5.73-5.09-8.42-2.44-2.23,2.19-4.46,5.77-6.55,8.27-.85,1.02-2.03,2.91-3.35,3.03-2.79.26-5.84-.13-8.63-.02-2.58.1-2.6,1.58-2.5,3.81h15.42l5.61-7.14c1.21-.7,2.71.03,2.88,1.41.07.53-.26,1.03-.52,1.47-1.3,2.22-3.6,4.35-4.92,6.63-.21,2.06.14,4.31-.04,6.35-.12,1.42-.53,2.12-2.01,2.3-3.58.44-8.71-1.51-10.41,2.52-2.37,5.59-3.54,12.49-5.98,17.99-1.13,2.56-3.98,1.7-3.65-.9,2.27-5.85,3.67-12.51,6.06-18.26,1.03-2.49,3.5-5.13,6.42-5.13h5.77v-3.62H22.4v3.62h5.77c2.92,0,5.39,2.64,6.42,5.13,2.39,5.75,3.79,12.41,6.06,18.26.29,2.63-2.51,3.47-3.65.9-2.43-5.5-3.61-12.4-5.98-17.99-1.7-4.03-6.83-2.08-10.41-2.52-1.48-.18-1.89-.89-2.01-2.3-.17-2.04.18-4.28-.04-6.35-1.32-2.28-3.63-4.4-4.92-6.63-.26-.45-.58-.95-.52-1.47.17-1.38,1.68-2.11,2.88-1.41l5.61,7.14h15.42c.07-2.36.13-3.59-2.49-3.8-2.76-.22-5.89.27-8.63.01-.95-.09-1.19-.48-1.8-1.13-2.81-3.01-5.25-7.36-8.1-10.17-.68-.67-1.7-1.36-2.67-1.47-2.43-.27-4.86.03-5.55,2.72,0,7.83-.76,16.48-.23,24.28.15,2.24.86,4.24,2.93,5.35,3.25,1.73,11.75.29,15.78.77.71.08,1.14.51,1.5,1.09,1.41,4.08,3.85,8.16,5.22,12.2.12.35.33.85.36,1.2.16,1.92-2.17,2.71-3.34,1.28l-5.22-12.11c-4-.29-8.34.29-12.3-.02-4.5-.35-8.18-4.03-8.53-8.54-.63-8.09.48-17.01,0-25.19,1.15-7.66,10.13-9,15.08-3.71,2.77,2.97,5.03,6.75,7.84,9.75,4.29.75,10.7-1.73,13.18,3.02.15.28.6,1.24.6,1.47v2.76l.59.27c4.3-.39,9.44.49,13.63,0,.25-.03.44-.02.59-.27v-2.76c0-.32.58-1.46.79-1.8.98-1.61,2.82-2.69,4.73-2.6-.56-5.6,2.16-15.25-4.66-17.85-2.47-.94-10.28-.8-13.19-.61-4.93.31-7.67,2.88-8,7.86-.11,1.62.28,4.24-.04,5.65-.4,1.76-3.35,1.83-3.59-.65-.66-6.87.71-14.47,8.48-16.2,2.91-.65,11.52-.55,14.68-.26,4.54.42,9.93,4.95,9.93,9.72v12.33h4.57c2.87-3.03,5.17-6.91,8.01-9.92,2.67-2.82,5.46-3.59,9.32-2.76,2.78.6,5.32,3.29,5.68,6.13v26.22Z"/>
  <path class="cls-1" d="M92.19,22.75c.07.6.07,1.98,0,2.59-.79,6.62-8.81,10.14-14.36,6.35-8.28-5.65-2.79-18.56,6.98-16.65,3.57.7,6.93,4.03,7.37,7.71ZM86.96,20.22c-5.12-5.25-13.05,2.69-7.8,7.81,5.07,4.96,12.76-2.73,7.8-7.81Z"/>
  <path class="cls-1" d="M12.37,14.87c7.6-.71,12.78,8.04,8.38,14.43-3.45,5.01-10.73,5.35-14.64.7-4.81-5.73-1.12-14.44,6.26-15.13ZM17,28.04c5.24-5.12-2.69-13.06-7.8-7.81-4.95,5.08,2.73,12.77,7.8,7.81Z"/>
  <path class="cls-1" d="M46.83,5.72c12.7-1.54,14.05,17.65,1.85,18.4-11.76.72-13.3-17.01-1.85-18.4ZM46.82,9.51c-1.34.23-3.01,1.57-3.61,2.77-2.36,4.73,2.45,9.82,7.21,7.57,5.58-2.65,3.22-11.49-3.61-10.34Z"/>
  <rect class="cls-1" x="46.18" y="64.49" width="3.79" height="25.87"/>
  <rect class="cls-1" x="46.18" y="35.17" width="3.79" height="3.62"/>
</svg>