<svg xmlns="http://www.w3.org/2000/svg" id="Layer_1" data-name="Layer 1" viewBox="160.42 172.89 521.3 249.23"><path d="M675.52,188.89a6.2,6.2,0,1,1-6.2,6.21,6.08,6.08,0,0,1,6.2-6.21Zm0,.7a5.49,5.49,0,1,0,5.24,5.48,5.21,5.21,0,0,0-5.24-5.48Zm3.13,6.83c-.16.57-.38,1.46-.52,1.83a7.83,7.83,0,0,1-2.17.39,3.54,3.54,0,0,1-3.88-3.48,3.67,3.67,0,0,1,4-3.62,5.43,5.43,0,0,1,2.15.37c.07.53.12,1,.22,1.8l-.46.11c-.35-1.12-.93-1.72-2-1.72-1.47,0-2.32,1.24-2.32,2.89,0,1.82,1,3,2.36,3,1.12,0,1.72-.64,2.19-1.7Z"/><path d="M160.42,189.13h14.83v40.59a1.08,1.08,0,0,1-.35.75c-.32.34-.48.37-.52.37h-.31v1.3h8.19v-1.3H182s-.19,0-.48-.36a1.15,1.15,0,0,1-.32-.76V189.13H196v-1.24H160.42Z"/><path d="M240.31,230.19a57.15,57.15,0,0,1-7.63-1.7,49.2,49.2,0,0,1-7.24-2.77,42,42,0,0,1-3.81-2.06,19.35,19.35,0,0,0,12.79-.67,18.57,18.57,0,0,0,6-4,19,19,0,0,0,4-5.94,18.6,18.6,0,0,0,0-14.54,18.62,18.62,0,0,0-10-10,18.62,18.62,0,0,0-13.41-.44,19.43,19.43,0,0,0-5.26,2.83,17.76,17.76,0,0,0-4.05,4.33,19.53,19.53,0,0,0-1.88,3.63v-11h-7v1.3h.31s.18,0,.47.38a1.26,1.26,0,0,1,.34.8v39.41a1.28,1.28,0,0,1-.34.74c-.29.36-.45.38-.47.38h-.31v1.24h8.12V230.9h-.3c-.18,0-.37-.2-.5-.37a1.3,1.3,0,0,1-.31-.75V212.9a20.8,20.8,0,0,0,3.36,5.35,31.57,31.57,0,0,0,6.33,5.58,37.89,37.89,0,0,0,6.41,3.6A53.85,53.85,0,0,0,233,230a55.6,55.6,0,0,0,7.42,1.56,51.93,51.93,0,0,0,7.34.54h.31v-1.3h-.31a49.76,49.76,0,0,1-7.49-.59m-15.44-40.73a14.31,14.31,0,0,1,5.16,1,15.38,15.38,0,0,1,5.57,3.81,16.12,16.12,0,0,1,3.31,5.39,17.33,17.33,0,0,1,0,12.31,16.27,16.27,0,0,1-3.31,5.4,14.53,14.53,0,0,1-5,3.55,14.21,14.21,0,0,1-11.36,0,14.4,14.4,0,0,1-5-3.55,17,17,0,0,1-4.45-10.43,17.52,17.52,0,0,1,.58-5.7,16.4,16.4,0,0,1,2.47-5.27,14.74,14.74,0,0,1,4.89-4.56,14.36,14.36,0,0,1,6.05-1.89c.35,0,.7,0,1.06,0"/><polygon points="273.6 176.09 271.77 172.89 260.62 182.68 261.1 183.47 273.6 176.09"/><path d="M253.76,189.13h.31c.14,0,.33.14.53.38a1.26,1.26,0,0,1,.34.8v39.41a1.17,1.17,0,0,1-.33.76.86.86,0,0,1-.54.36h-.31v1.3h26.62v-1.3H260.83V207.37H273v-1.29H260.83v-17h19.55v-1.3H253.76Z"/><path d="M324.88,192.57a19.57,19.57,0,0,0-6-4,18.17,18.17,0,0,0-7.32-1.48,17.89,17.89,0,0,0-6.1,1,19.86,19.86,0,0,0-5.23,2.83,18.81,18.81,0,0,0-6,8v-11h-7v1.3h.31c.18,0,.37.21.5.37a1.38,1.38,0,0,1,.31.81v39.41a1.37,1.37,0,0,1-.31.75c-.13.17-.32.37-.5.37h-.31v1.24h8.19V230.9h-.31c-.15,0-.34-.14-.54-.38a1.23,1.23,0,0,1-.33-.74V212.69a17.1,17.1,0,0,0,1.92,3.61,19.58,19.58,0,0,0,4,4.29,18,18,0,0,0,5.25,2.84,19.13,19.13,0,0,0,13.44-.44,19.13,19.13,0,0,0,6-4,18.46,18.46,0,0,0,4-5.94,18.27,18.27,0,0,0,1.46-7.25,18.74,18.74,0,0,0-5.46-13.26m-15.59-3.11a14.49,14.49,0,0,1,5.17,1,14.79,14.79,0,0,1,5.54,3.81,15.6,15.6,0,0,1,3.35,5.38,18,18,0,0,1,0,12.33,15.64,15.64,0,0,1-3.35,5.39,14.52,14.52,0,0,1-5,3.55,14.21,14.21,0,0,1-11.36,0,14.51,14.51,0,0,1-5-3.56,15.55,15.55,0,0,1-3.34-5.35,17.78,17.78,0,0,1-1.1-6.16,18.75,18.75,0,0,1,.73-5.16,15.38,15.38,0,0,1,2.32-4.72,14.84,14.84,0,0,1,4.89-4.56,14.36,14.36,0,0,1,6-1.89c.35,0,.7,0,1.05,0"/><path d="M372.35,192.57a19.33,19.33,0,0,0-6-4,18.11,18.11,0,0,0-7.32-1.48,17.79,17.79,0,0,0-6.09,1,19.55,19.55,0,0,0-5.23,2.83,18.48,18.48,0,0,0-4.08,4.33,19.08,19.08,0,0,0-1.91,3.63v-11h-7v1.3h.3c.18,0,.38.21.5.37a1.38,1.38,0,0,1,.31.81v39.41a1.3,1.3,0,0,1-.31.75c-.12.17-.32.37-.5.37h-.3v1.24h8.18V230.9h-.3c-.15,0-.34-.14-.54-.38a1.23,1.23,0,0,1-.33-.74V212.69a17.1,17.1,0,0,0,1.92,3.61,19.34,19.34,0,0,0,4,4.29,17.94,17.94,0,0,0,5.24,2.84,19.13,19.13,0,0,0,13.44-.44,19,19,0,0,0,6-4,18.49,18.49,0,0,0,5.46-13.19,18.67,18.67,0,0,0-1.45-7.29,18.35,18.35,0,0,0-4-6m-15.58-3.11a14.53,14.53,0,0,1,5.17,1,14.79,14.79,0,0,1,5.54,3.81,15.43,15.43,0,0,1,3.34,5.38,17.83,17.83,0,0,1,0,12.33,15.49,15.49,0,0,1-3.35,5.39,14.48,14.48,0,0,1-5,3.55,14.21,14.21,0,0,1-11.36,0,14.51,14.51,0,0,1-5-3.56,15.57,15.57,0,0,1-3.35-5.35,18,18,0,0,1-1.09-6.16,18.38,18.38,0,0,1,.73-5.16A15.13,15.13,0,0,1,344.8,196a14.87,14.87,0,0,1,4.9-4.56,14.32,14.32,0,0,1,6-1.89c.35,0,.7,0,1.06,0"/><path d="M412.61,230.14a8.13,8.13,0,0,1-.81-1.65l-15.08-40.33-.07-.2h-8v1.29h.31a1.45,1.45,0,0,1,.85.23c.19.13.1.56,0,.79l-7.13,20.66c-.42,1.11-.86,2.41-1.31,3.86a41.84,41.84,0,0,0-1.16,4.54,23.83,23.83,0,0,0-.47,4.62,10.06,10.06,0,0,0,.8,4.1,6.66,6.66,0,0,0,2.67,3,9.61,9.61,0,0,0,5,1.13h4.9V230.9h-4.9a8.25,8.25,0,0,1-4.31-1,5.45,5.45,0,0,1-2.2-2.49,9.09,9.09,0,0,1-.69-3.64,22.65,22.65,0,0,1,.4-4.22,34.2,34.2,0,0,1,1-4.19c.43-1.35.84-2.55,1.21-3.59l7.54-21.65L405.7,229a1.8,1.8,0,0,1,0,1.33.66.66,0,0,1-.67.49h-.31v1.3H414v-1.3h-.3a1.27,1.27,0,0,1-1.08-.7"/><path d="M449.74,224.4,419.51,188l-.1-.11h-7.62l4,4.89v24.09a26.34,26.34,0,0,0,.66,6.1,11.77,11.77,0,0,0,2.35,4.84,11.38,11.38,0,0,0,4.5,3.19,18.62,18.62,0,0,0,6.94,1.14h.31v-1.3h-.31a17.55,17.55,0,0,1-6.46-1,9.67,9.67,0,0,1-4-2.86,10.93,10.93,0,0,1-2.08-4.41,24.58,24.58,0,0,1-.61-5.67V194.33l31.38,37.81H451V187.89h-1.24Z"/><path d="M484.06,190.37a1.26,1.26,0,0,1,.33-.79q.32-.39.54-.39h.31v-1.3H477v1.3h.3c.15,0,.34.14.54.39a1.24,1.24,0,0,1,.34.79v39.35a1.3,1.3,0,0,1-.34.8c-.2.25-.39.38-.54.38H477v1.24h26.68V230.9H484.06Z"/><path d="M509.26,189.19h.31c.14,0,.33.14.53.38a1.28,1.28,0,0,1,.34.8v39.35a1.32,1.32,0,0,1-.34.8c-.2.24-.39.38-.53.38h-.31v1.24h8.19V230.9h-.31s-.18,0-.48-.38a1.3,1.3,0,0,1-.33-.8V190.37a1.3,1.3,0,0,1,.33-.8c.3-.36.45-.38.48-.38h.31v-1.3h-8.19Z"/><path d="M554,189.09a9.67,9.67,0,0,0-5-1.13H544v1.29h4.9a8.27,8.27,0,0,1,4.31.95,5.49,5.49,0,0,1,2.21,2.5,9.18,9.18,0,0,1,.68,3.63,22.36,22.36,0,0,1-.4,4.2,34,34,0,0,1-1,4.15c-.42,1.33-.83,2.54-1.21,3.59L546,229.93l-14.66-39a1.72,1.72,0,0,1,0-1.32.74.74,0,0,1,.71-.5h.31v-1.24H523v1.24h.3a1.31,1.31,0,0,1,1.14.72,11.63,11.63,0,0,1,.81,1.62l15.14,40.47.08.2h6.08l7.89-23c.37-1.07.8-2.33,1.27-3.79a37.55,37.55,0,0,0,1.19-4.53,23.83,23.83,0,0,0,.47-4.62,10.28,10.28,0,0,0-.8-4.13,6.61,6.61,0,0,0-2.66-3"/><path d="M563,189.19h.31a.89.89,0,0,1,.54.38,1.33,1.33,0,0,1,.33.8v39.35a1.3,1.3,0,0,1-.33.8.89.89,0,0,1-.54.38H563v1.24h8.19V230.9h-.31s-.18,0-.47-.38a1.26,1.26,0,0,1-.34-.8V190.37a1.26,1.26,0,0,1,.34-.8c.29-.36.44-.38.47-.38h.31v-1.3H563Z"/><path d="M614.39,224.4,584.15,188l-.09-.11h-7.62l4,4.89v24.09a26.34,26.34,0,0,0,.66,6.1,11.79,11.79,0,0,0,2.36,4.84A11.31,11.31,0,0,0,588,231a18.58,18.58,0,0,0,6.94,1.14h.31v-1.3h-.31a17.52,17.52,0,0,1-6.46-1,9.7,9.7,0,0,1-4-2.86,10.93,10.93,0,0,1-2.08-4.41,25.15,25.15,0,0,1-.61-5.67V194.33l31.38,37.81h2.5V187.89h-1.23Z"/><path d="M641,207v1.23h16.88v17.08A12.74,12.74,0,0,1,653,229a14.94,14.94,0,0,1-5.78,1.22h-.17a17.36,17.36,0,0,1-5.89-1.07,21.41,21.41,0,0,1-5.72-3.12,23.71,23.71,0,0,1-4.75-4.84,20.88,20.88,0,0,1-3.15-6.27,22.12,22.12,0,0,1-.92-7.41,24.57,24.57,0,0,1,1.93-8.3,21,21,0,0,1,3.52-5.69A12.84,12.84,0,0,1,636.9,190a12.13,12.13,0,0,1,3.78-.91,7.47,7.47,0,0,1,2.83.39,10.23,10.23,0,0,1,2.38,1.2c.81.55,1.64,1.08,2.47,1.59,1.07.66,2.14,1.27,3.18,1.81a8.86,8.86,0,0,0,3.25,1,6.39,6.39,0,0,0,3.35-.62,10.05,10.05,0,0,0,3.42-2.9l.29-.43-.91-.68-.37.25-.06,0a3.28,3.28,0,0,1-1.53,1.06,4.35,4.35,0,0,1-1.88.11,9.92,9.92,0,0,1-2.26-.63l-2.6-1.05c-.85-.37-1.86-.77-3-1.19a20.72,20.72,0,0,0-3.75-1,21.23,21.23,0,0,0-4.35-.25,16.36,16.36,0,0,0-4.78,1,23.76,23.76,0,0,0-10.84,8.08,21.86,21.86,0,0,0-3.18,6.05,21.6,21.6,0,0,0-1.14,7,22.08,22.08,0,0,0,2,9.54,22.54,22.54,0,0,0,12.36,11.6,23.69,23.69,0,0,0,8.17,1.67h.48a20.62,20.62,0,0,0,7.56-1.42,17.46,17.46,0,0,0,6.79-4.8,19.64,19.64,0,0,0,3-4.57,21.44,21.44,0,0,0,1.51-4.7,31.14,31.14,0,0,0,.57-4.88c.06-1.65.09-3.39.09-5.17V207Z"/><path d="M315.73,290c0,14.49-10.57,24.93-27.81,24.93H269.39v33.29l4.83,5.75v.65H253.85V354l4.44-5.75v-76l-4.44-5.74v-.65h33.81C305.16,265.84,315.73,275.37,315.73,290Zm-11.62.78c0-14.23-6-22.19-17.49-22.19H269.39v43.6H287C298.11,312.18,304.11,304.35,304.11,290.77Z"/><path d="M398.63,354.22v.39H385.57l-34.2-44h-8.88v37.59l4.44,5.75v.65H327V354l4.44-5.75v-76L327,266.49v-.65h34.85c16.58,0,26.5,8.74,26.5,21.93,0,12.53-8.87,21.8-23.75,22.71Zm-56.14-46.48h18.67c10,0,15.54-6.92,15.54-19.58s-5.62-19.58-15.93-19.58H342.49Z"/><path d="M405.16,266.49v-.65h20v.65l-4.44,5.74v76l4.44,5.75v.65h-20V354l4.43-5.75v-76Z"/><path d="M509.33,265.84v.65l-7.05,9.79-25.59,78.33H466.12l-28.2-81.2-5.35-6.92v-.65h17.75v.65L449,272l26.5,76.63,23.76-72.84-3.92-9.27v-.65Z"/><path d="M579.7,337.64l-6,17H516.38V354l4.44-5.75v-76l-4.44-5.74v-.65h54.83l5.09,15.66h-1.56l-15.67-12.92H531.92v36.94h36.81v5.23H531.92v41.12H561l17.1-14.23ZM564,251.22l-27.28,9.14-.79-1.18,21.54-16.45Z"/><path d="M315.41,421.71c0-1.89.06-18.2,0-21.52h5.34a39.89,39.89,0,0,1,4.67.19c2.87.38,8.95,3.07,8.95,10.13,0,9.18-7.1,10.78-9.56,11-1.92.22-5.47.16-6.88.16Zm2.46-1.25c.61.22,6,.51,8.15-.38s5.69-2.59,5.92-8.57a9.85,9.85,0,0,0-7.36-9.95,39.29,39.29,0,0,0-6.74-.35C317.84,407.35,317.87,414.32,317.87,420.46Z"/><path d="M353.14,421.71c0-.48-.35-2.91-.35-4.45-1.06,2.11-2.88,4.86-7,4.86-5.21,0-8.25-3.42-8.25-8.6V400.19h2.5v13.46c0,4,2.2,6.94,6.23,6.94s6.59-3.14,6.59-7.07c0-4.25,0-11.54,0-13.33h2.37c0,6.14-.29,15.38-.1,21.52Z"/><path d="M360.36,421.71c0-1.89.07-18.2,0-21.52h6c3.78,0,5.92,2.33,5.92,4.92a5.21,5.21,0,0,1-4.48,5c3.3.16,6,1.6,6,5.37,0,4.29-3.67,6.21-7.54,6.21Zm2.37-11.48c4.92,0,7-1.22,7-4.77,0-4.57-4.76-4.51-7-4.51Zm0,10.52c4.38.38,8.41,0,8.41-4.83,0-3.45-2.21-5.12-5.47-5.12-1,0-2,0-2.94,0Z"/><path d="M390.29,421.71c-.73-2.08-1.85-5-2.88-7.55h-8.57l-3.13,7.55h-.93l9-21.84h.29s.45,1.4.8,2.27c2.78,6.94,6.84,16.53,8.15,19.57ZM387,413.23l-3.87-9.59v-.38l-4,10Z"/><path d="M396.56,421.71c0-1.89.09-18.2,0-21.52H399c0,6.14,0,15.41,0,21.52Z"/><path d="M412.74,421.71c0-1.89.09-18.2,0-21.52h2.36c0,6.14,0,15.41,0,21.52Z"/><path d="M420,417.71a5.56,5.56,0,0,0,5.46,3.26c2.63,0,4.64-1.6,4.64-4,0-6.1-10.1-4.47-10.1-11.67,0-3.52,3.19-5.31,5.94-5.31a7.81,7.81,0,0,1,4.86,1.57l-.8,1.76a4.18,4.18,0,0,0-4.15-2.37c-2,0-4,1-4,3.36,0,6.14,10.23,4.32,10.23,11.51,0,3.9-3.1,6.17-6.55,6.17a9,9,0,0,1-6.24-2.2Z"/><path d="M436,421.71c0-1.89.06-18.2,0-21.52h2.43l0,20.62s8.8.1,10.36-.19l-.38,1.09Z"/><path d="M465.49,421.71c-.73-2.08-1.85-5-2.87-7.55h-8.57l-3.14,7.55H450l9-21.84h.29s.45,1.4.8,2.27c2.78,6.94,6.84,16.53,8.16,19.57Zm-3.26-8.48c-1.69-4.22-3.87-9.59-3.87-9.59v-.38l-4,10Z"/><path d="M486.92,417.93c0-1.88,0-14.42-.07-17.74h1c0,6.14-.13,15.76,0,21.9-2.3-2.52-16-19.06-16-19.06l.22.71v18h-1c0-1.73,0-15.26,0-19.89l-.19-1.63h1.37c1.31,1.79,14.39,17.2,14.39,17.2Z"/><path d="M492.7,421.71c0-1.89.07-18.2,0-21.52H498a39.69,39.69,0,0,1,4.67.19c2.88.38,9,3.07,9,10.13,0,9.18-7.1,10.78-9.56,11-1.92.22-5.47.16-6.88.16Zm2.47-1.25c.6.22,6,.51,8.15-.38,2-.8,5.69-2.59,5.92-8.57a9.86,9.86,0,0,0-7.36-9.95,39.4,39.4,0,0,0-6.75-.35C495.13,407.35,495.17,414.32,495.17,420.46Z"/><path d="M514.61,417.71a5.56,5.56,0,0,0,5.46,3.26c2.63,0,4.64-1.6,4.64-4,0-6.1-10.1-4.47-10.1-11.67,0-3.52,3.19-5.31,5.94-5.31a7.81,7.81,0,0,1,4.86,1.57l-.8,1.76a4.18,4.18,0,0,0-4.15-2.37c-2,0-4,1-4,3.36,0,6.14,10.23,4.32,10.23,11.51,0,3.9-3.1,6.17-6.55,6.17a9,9,0,0,1-6.24-2.2Z"/></svg>