<?xml version="1.0" encoding="UTF-8"?>
<svg id="Layer_1" xmlns="http://www.w3.org/2000/svg" version="1.1" viewBox="0 0 500 500">
  <!-- Generator: Adobe Illustrator 30.1.0, SVG Export Plug-In . SVG Version: 2.1.1 Build 136)  -->
  <defs>
    <style>
      .st0 {
        fill: #daaa97;
      }
    </style>
  </defs>
  <path class="st0" d="M273.47,334.33c39.31,9.37,36.49,29.13,31.74,29.13h-140.36c-1.59,0-3.22-2.97-3.05-4.25.9-6.5,5.44-12,11-15.39,10.39-6.35,22.33-9.75,34.24-11.48l10.03-1.46-19.81-70.71c-.65-2.32-1.25-4.1-2.14-6.16-5.69,3.71.22,11.56-4.81,12.56-2.23.44-3.78-.09-4.68-2.5-1.12-3.01-4.47-6.11-7.94-6.07-6.31.06-9.9,5.88-8.54,11.7.38,1.63-1.07,3.6-2.44,4.16-4.56,1.85-3.51-8.64-12.34-8.96-3.21-.12-7.09,2.03-8.46,5.93-.67,1.91-.15,5.79-.49,8.12-.2,1.07-3.22,1.51-4.25,1.16-2.73-.94-3.72-8.65-4.02-11.63-.83-8.35-.57-16.45,1.47-24.41,5.35-20.85,20.43-37.56,40.49-44.96,1.65-2.34-3.62-7.27,1.61-9.29,4.75-1.84,4.45,5.96,6.56,6.79,9.43-1.53,19.8-1.74,28.9.58,22.88,5.83,40.56,23.05,46.6,46.03.38,1.46-1.74,3.22-2.92,3.31s-3.42-.78-3.81-2.09c-1.45-4.82-6.36-7.67-10.89-6.21s-7.21,6.3-5.74,11.17c.53,1.77-1.3,3.95-2.86,4.16-5.21.71-2.88-6.98-10.9-9-2.91-.73-5.59.96-7.4,2.59-5.74,5.15,1.6,12-6,13.16-4.31-1.37-3.47-8.07-9.64-8.55.09,2.26.64,4.19,1.27,6.45l20.21,71.89c6.78.08,13.35-.27,19.99.3,5.16.44,10.25.57,15.29,1.36l7.58,1.19c2.11.33,4.38.88,6.47,1.38ZM185.97,253.64c7.47-9.54,13-11.51,23.77-7.04,4.86-7.99,14.53-11.91,23.24-6.38,3.5-6.23,9.48-9.97,17.32-9.52-12.95-21.45-36.57-31.87-60.37-27.29-22.09,4.25-40.2,21.66-45.12,44.64-.25,1.15-2.09,13.81-.17,12.85,6.35-3.15,10.63-5.11,18.23-.06,4.58-9.13,14.35-12.21,23.09-7.19ZM170.85,356.13h129.16c-4.61-8.13-21.41-13.61-29.57-15.29l-5.69-1.17c-9.33-1.91-28.91-3.4-38.23-2.38-.94,1.68-2.27,3.32-3.56,3.39-1.48.08-2.7-1.12-4-2-2.16-1.47-16.63,1.42-20.04,2.29-7.89,1.99-15.63,4.47-22.39,8.93-2.46,1.63-5.49,3.45-5.68,6.23Z"/>
  <path class="st0" d="M319.88,211.7c-4.3,1.02-8.33.27-12.41-1-11.72-3.65-18.82-14.92-18.16-27.02s9.06-22.09,20.95-24.32c14.08-2.65,26.84,5.73,30.34,19.66.92,3.67.9,8.77.09,12.54-2.28,10.52-10.38,17.67-20.81,20.14ZM317.51,204.88c10.86-1.35,17.85-11.36,16.76-21.68s-9.53-18.01-19.95-17.45c-8.34.45-14.91,6.49-17.17,13.57-2.53,7.93.04,16.3,6.28,21.33,4.05,3.27,8.34,4.94,14.08,4.23Z"/>
  <path class="st0" d="M318.8,138.91c.21,5.41,1.65,15.08-3.9,14.42-4.58-.54-3.46-10.13-3.09-14.05.11-1.15,2.33-2.45,3.3-2.72,1.08-.3,3.64,1.18,3.69,2.34Z"/>
  <path class="st0" d="M318.77,231.82c-.02,1.11-2.29,2.66-3.31,2.71-4.95.28-3.9-8.78-3.88-13.01,0-1.88,1.77-3.61,3.34-3.71s4.06,1.17,4.03,3.01l-.17,11Z"/>
  <path class="st0" d="M293.81,158.53c.89,1.03.13,3.53-.73,4.26-.98.82-3.5,1.32-4.48.35-2.95-2.91-10.29-9.26-7.34-12.16.73-.72,3.35-1.39,4.19-.73,3.08,2.41,5.72,5.22,8.37,8.29Z"/>
  <path class="st0" d="M286.85,219.58c-1.1,1.13-3.18,1.74-4.41,1.25s-2.57-3.63-1.64-4.79c2.44-3.06,5.15-5.67,8.14-8.36.83-.75,3.85-.14,4.57.71.84.99.78,3.55-.26,4.62l-6.39,6.57Z"/>
  <path class="st0" d="M342.54,162.61c-1.04,1.07-3.28,1.27-4.49.68-1.05-.51-2.09-3.52-1.19-4.64,2.34-2.89,5.31-5.82,8.12-8.32.72-.64,3.18-.24,4.03.17.97.46,1.42,3.67.67,4.54-2.08,2.44-4.62,4.99-7.13,7.57Z"/>
  <path class="st0" d="M341.52,207.66c2.97,2.49,11.6,9.44,7.33,12.74-.93.72-3.49.88-4.48-.16l-7.41-7.74c-.75-.78-.25-3.49.35-4.22.69-.83,3.38-1.32,4.21-.62Z"/>
  <path class="st0" d="M360.75,188.72l-9.86.18c-1.71.03-3.47-.9-4.01-2.31s-.1-4.11,1.76-4.27c4.26-.35,8.45-.34,12.81,0,.91.07,1.83,2.29,1.83,3.19,0,1.02-1.36,3.19-2.53,3.21Z"/>
  <path class="st0" d="M280.81,188.83l-11.11-.22c-1.14-.02-2.3-2.73-2.19-3.82.16-1.51,1.99-2.8,3.84-2.77l9.96.15c1.56.02,2.72,1.94,2.6,3.25s-1.49,3.43-3.1,3.4Z"/>
</svg>