<?xml version="1.0" encoding="UTF-8"?>
<svg id="Layer_1" xmlns="http://www.w3.org/2000/svg" version="1.1" viewBox="0 0 500 500">
  <!-- Generator: Adobe Illustrator 30.1.0, SVG Export Plug-In . SVG Version: 2.1.1 Build 136)  -->
  <defs>
    <style>
      .st0 {
        fill: #daaa97;
      }
    </style>
  </defs>
  <path class="st0" d="M276.56,296.59l.04,46.46,11.73.29-.33,9.41-119.86.02-.57-9.5,11.82-.23.03-46.39,36.07-.03.1,45.51c0,1.45,4.59,1.26,4.77,0,.6-4.18,3.34-7.17,6.82-7.46,8.84-.71,7.59,9.35,9.99,8.66l3.31-.94v-45.76s36.07-.05,36.07-.05Z"/>
  <path class="st0" d="M290.31,352.91l-.23-11.32-11.46-.51.16-119.68,3.08-.9c2.56-.75-1.88-5.15,3.47-11.42l7.82-9.17.9-17.87,1.14,17.86,6.11,7.54c3.04,3.75,4.37,7.56,3.76,12.55l4.07,1.62v131.05s-18.83.25-18.83.25Z"/>
  <path class="st0" d="M217.49,341.23l-.18-46.5-27.38-.17c4.99-30.08,20.26-57.11,43.63-76.11l.55-23.43c.54,6.65.83,12.96.83,20.26l.07,119.82c-3.61-1.8-6.89-2.97-9.76-2.06-3.62,1.15-5.1,4.33-7.77,8.2Z"/>
  <path class="st0" d="M249.32,294.61l-.25-16.37c-.02-1.01,2.53-2.94,3.37-3.52l.02-32.56,3.35-2.4c.31-12.41-1.07-25.03.59-37.58l1.58-12.01c.31-2.36,1.39-5.5,1.51-7.96l.96-19.16c.26-5.23,1.06-10.54,1.63-15.96l1.96,16.44c1.09,9.17.78,18.3,1.28,27.67.32,6.07,1.08,11.69.69,18.08-.15,2.47,1.09,4.64,2.82,6.18l.31,35.01c1.84,1.14,3.05,2.62,3.07,4.59l.22,29.59c2.28,1.67,4.92,8.8,1.37,9.56-8.02.7-14.86.45-24.46.39Z"/>
  <path class="st0" d="M332.43,352.77l-21.16.04-.02-69.58c0-1.65,1.77-5.26,2.32-6.78h16.75c.56,1.84,1.98,5.14,2.09,6.75l.03,69.57Z"/>
</svg>