<?xml version="1.0" encoding="UTF-8"?>
<svg id="Layer_1" xmlns="http://www.w3.org/2000/svg" version="1.1" viewBox="0 0 500 500">
  <!-- Generator: Adobe Illustrator 30.1.0, SVG Export Plug-In . SVG Version: 2.1.1 Build 136)  -->
  <defs>
    <style>
      .st0 {
        fill: #daaa97;
      }
    </style>
  </defs>
  <path class="st0" d="M322.49,348.89c-3.24-3.81-7.19-5.9-11.82-5.91s-8.72,2-11.74,5.67c-8.9,10.81-25.25,10.81-34.2.04-3.03-3.65-7.14-5.7-11.73-5.7s-8.67,2.09-11.69,5.73c-8.96,10.79-25.32,10.7-34.21-.12-3.02-3.67-7.22-5.61-11.77-5.6-4.61.02-8.58,2.21-11.64,5.8-9.05,10.61-24.96,10.51-34-.02-3.02-3.52-6.8-5.61-11.73-5.8l.04-7.53c5.03-.12,8.83,1.49,12.71,4.13,12.03-18.58,29.21-32.54,50.1-40.53-17.48-33.65-18.54-70.26-5.99-106.51-16.61,10.83-22.69,30.83-20.36,49.3.17,1.37-.45,3.04-1.27,3.67-1.12.87-3.14,1.15-4.26.39-6.45-4.39-11.55-9.87-15.73-16.35-11.8-18.3-5.18-41.51,12.68-52.79-10.65,1.05-19.84,5.24-28.07,11.3-1.04.76-2.86.8-4.02.25-.97-.45-2.05-2.12-1.93-3.52.66-7.8,2.88-14.91,6.43-21.72,7.17-13.74,21.37-20.92,36.66-19.73,12.49.97,23.14,7.86,28.03,20.04,4.9-12.17,15.47-19.01,27.9-20.02,15.09-1.23,29.33,5.68,36.49,19.25,3.85,6.85,5.99,14.24,6.74,22.21.12,1.28-.9,2.88-1.78,3.39-1.05.6-3.13.66-4.29-.23-8.39-6.41-17.97-10.44-28.57-11.52,5.09,2.81,9.03,6.74,12.38,11.59,8.56,12.41,9.23,28.17,1.21,41-4.18,6.68-9.36,12.23-15.92,16.77-1,.69-2.93.57-3.93-.03-1.1-.66-1.9-2.24-1.71-3.79,2.1-16.78-2.52-34.95-16.29-46.46-1.8,34.21,11.85,67.27,32.88,93.67,29.99-1.08,61.19,7.19,84.98,25.67,8.85,6.96,16.27,14.95,22.29,24.7,3.88-2.74,8.02-4.35,12.74-4.1v7.41c-4.57.35-8.56,2.11-11.53,5.7-8.81,10.66-24.98,11.03-34.1.29ZM198.48,175.96c-.4-5.08-2-8.92-4-12.72-4.17-7.62-11.58-11.75-20.22-12.23-8-.44-15.9,1.2-22.03,6.66-5.6,5-9.6,11.81-11.09,19.21,18.17-10.48,39.12-10.63,57.34-.92ZM265.02,176.89c-4.48-17.33-16.88-27.81-34.9-25.76-13.68,1.56-20.82,11.65-22.74,24.92,19.14-10.58,38.83-9.03,57.64.84ZM166.48,233.83c-.03-21.02,10.38-39.44,27.96-50.28-4.1-1.76-7.92-2.44-11.91-2.77-8.92-.64-16.77,3.57-21.71,10.9-4.48,6.66-7.07,14.42-5.51,22.58,1.43,7.5,5.44,14.38,11.16,19.57ZM244.49,190.75c-8.12-10.97-20.38-12.22-32.97-7.2,17.7,10.69,28.13,29.51,28.06,50.41,12.88-12.66,15.73-28.59,4.91-43.21ZM238.87,289.71c-8.74-11.86-15.48-23.51-20.87-36.63l-10.65-.14.02-7.45,7.67-.15c-6.2-17.82-8.57-36.08-7.14-54.78-.68-.89-2.08-1.62-3.21-1.8-11.9,28.69-14.26,61.54-3.98,90.96l10.8.07-.05,7.47-7.77.19,4.4,8.95c10.21-3.52,19.95-5.3,30.78-6.68ZM270.37,343.75c6.17,7.5,17.08,7.1,23.02-.16,4.45-5.44,10.9-8.26,17.71-8.16,6.85.1,12.72,3.47,17.27,8.72,5.59,6.45,15.55,6.85,21.22.63-12.23-21.16-34.42-35.5-57.43-42.39-26.01-7.78-53.8-7.65-79.7.47-22.44,7.04-44.2,21.35-55.96,42.01,6.05,6.18,15.68,5.59,21.18-.72,4.56-5.23,10.41-8.62,17.25-8.72,6.82-.1,13.28,2.73,17.72,8.16,2.93,3.59,7.11,5.6,11.53,5.61s8.64-1.97,11.58-5.53c9.04-10.97,25.48-11.02,34.61.08Z"/>
</svg>