<?xml version="1.0" encoding="UTF-8"?>
<svg id="Layer_1" xmlns="http://www.w3.org/2000/svg" version="1.1" viewBox="0 0 500 500">
  <!-- Generator: Adobe Illustrator 30.1.0, SVG Export Plug-In . SVG Version: 2.1.1 Build 136)  -->
  <defs>
    <style>
      .st0 {
        fill: #daaa97;
      }
    </style>
  </defs>
  <path class="st0" d="M259.76,347.92c-7.94,2.54-14.75,1.69-22.2-.94-10.75-3.8-20.55-9.23-30.01-15.93l-27.88,35.39c-2.52.38-5.53.59-8.07.5l-16.93-.61,37.11-48.45c-7.01-7-13.03-13.64-18.47-21.33-2.69-3.8-3.84-8.63-4.39-13.18l-.11-20.09-.11-92.86c0-4.45,1.72-9.01,4.1-12.66,6.6-10.17,18.38-15.62,30.52-15.72l17.54-.15c-.08-5.68,3.63-9.06,8.93-9.01l38.47.39c4.95.05,7.97,3.64,7.95,8.91l20.93.31c8.89.13,17.11,4.19,23.53,9.77,6.84,5.94,9.49,13.23,9.59,22.17l1.12,106.74c.08,7.85-2.77,14.66-7.79,20.23l-15.16,16.81,36.91,48.88-25.06-.05-27.57-35.33c-13.48,7.59-17.79,11.34-32.94,16.19ZM305.12,234.33c1.94-8.91,3.56-17.33,3.47-26.14l-.3-31.1c-.1-10.19-6.25-20.05-17.7-20.1l-41.49-.18-41.73-.15c-8.84-.03-16.27,6.69-16.37,15.83l-.33,30.29c-.14,12.65,1.42,24.77,5.52,36.66,9.04,17.68,24.04,30.57,42.31,37.94,7.6,3.06,14.86,3.14,22.56.23,13.49-5.11,25.14-13.52,34.34-24.71,4.5-5.48,8.12-11.26,9.71-18.56ZM197.9,272.47c-5.84,1.44-8.3,6.71-7.18,11.39,1.31,5.48,6.35,8.32,11.58,7.15,4.92-1.1,8.3-6.15,7.1-11.17s-5.97-8.73-11.51-7.37ZM296.86,273.17c-5.45,1.83-7.56,7.75-5.64,12.4,2.09,5.05,7.46,7.12,12.1,5.51,5.13-1.78,7.3-7.29,5.86-11.78-1.7-5.28-7.16-7.87-12.33-6.13Z"/>
</svg>