<?xml version="1.0" encoding="UTF-8"?>
<svg id="Layer_1" xmlns="http://www.w3.org/2000/svg" version="1.1" viewBox="0 0 500 500">
  <!-- Generator: Adobe Illustrator 30.1.0, SVG Export Plug-In . SVG Version: 2.1.1 Build 136)  -->
  <defs>
    <style>
      .st0 {
        fill: #daaa97;
      }
    </style>
  </defs>
  <path class="st0" d="M365.6,341.59l-105.35.11-1.77-31.29-20.97.02-2.34,31.27-100.95-.05,104.09-183.05,10.59-.14-.79,12.91c.03.59,2.56.67,2.58.08l-.63-12.98,11.53.14,104.02,182.98ZM251.48,185.9l-.59-11.14-3.22.15-.76,10.95,4.57.03ZM252.67,205.34l-.93-14.97-5.15-.05-1.15,15.06,7.24-.04ZM253.89,228.69l-1.04-18.89h-7.77s-1.35,18.92-1.35,18.92l10.17-.02ZM255.64,260l-1.28-24.41-11.22-.04-1.79,24.51,14.3-.06ZM257.77,297.48l-1.56-27.54-15.65.05-2.07,27.54,19.28-.05Z"/>
  <path class="st0" d="M125.93,341.23c-3.14.68-5.67.64-8.56.06l116.55-181.6c.84-1.31,1.86-1.69,3.05-.82l-111.04,182.36Z"/>
  <path class="st0" d="M382.63,341.2l-8.48.63-110.88-183.65c41.2,60.6,79.09,122.19,119.36,183.02Z"/>
</svg>