<?xml version="1.0" encoding="UTF-8"?>
<svg id="Layer_1" xmlns="http://www.w3.org/2000/svg" version="1.1" viewBox="0 0 500 500">
  <!-- Generator: Adobe Illustrator 30.1.0, SVG Export Plug-In . SVG Version: 2.1.1 Build 136)  -->
  <defs>
    <style>
      .st0 {
        fill: #daaa97;
      }
    </style>
  </defs>
  <path class="st0" d="M245.93,356.61l-8.26-.04-.15,16.74-71.07-.03,22.37-167.48h105.95s22.37,167.47,22.37,167.47l-71.07.04-.13-16.7ZM246,239.05l-.06-16.52-8.35.14.04,16.62,8.37-.25ZM245.98,272.74l-.04-16.71-8.36.13.04,16.62,8.36-.05ZM245.98,306.24l-.04-16.71-8.36.14.04,16.62,8.36-.05ZM246,339.54l-.06-16.51-8.35.2.03,16.55c3.08.03,5.78.02,8.37-.24Z"/>
  <path class="st0" d="M359.12,179.68l-.16,17.75H124.52s.04-33.52.04-33.52h234.53s.03,15.77.03,15.77ZM191.5,184.84l-.05-8.36h-33.35s0,8.37,0,8.37h33.4ZM258.5,184.84l-.05-8.35h-33.34s0,8.36,0,8.36h33.4ZM325.5,184.84l-.05-8.35h-33.34s0,8.36,0,8.36h33.4Z"/>
  <polygon class="st0" points="245.99 126.26 284.19 126.22 288.1 155.54 195.47 155.54 199.37 126.23 237.59 126.27 237.63 138.78 245.94 138.78 245.99 126.26"/>
  <path class="st0" d="M149.64,373.67c-3.16-.22-5.56-.52-8.3-1.07l22.22-166.63c2.73-.19,5.4-.19,8.44-.03l-22.37,167.72Z"/>
  <path class="st0" d="M342.21,372.49c-2.66.72-5.1.98-8.27,1.29l-22.37-167.73c2.79-.3,5.59-.3,8.43-.08l22.21,166.53Z"/>
  <polygon class="st0" points="141.3 272.79 116.2 272.8 116.17 264.48 124.51 264.3 124.54 205.83 132.9 205.85 132.91 264.28 141.23 264.47 141.3 272.79"/>
  <polygon class="st0" points="367.41 264.46 367.36 272.79 342.29 272.8 342.33 264.44 350.65 264.36 350.67 205.86 359.05 205.84 359.1 223.19 359.1 245.16 359.1 264.33 367.41 264.46"/>
  <path class="st0" d="M178.76,155.49l-8.45-.05,3.83-29.07c2.8-.12,5.54-.12,8.44-.05l-3.83,29.17Z"/>
  <polygon class="st0" points="313.24 155.36 304.83 155.52 300.98 126.39 309.39 126.26 313.24 155.36"/>
</svg>